<svg width="24" height="24" viewBox="0 0 24 24" fill="none" xmlns="http://www.w3.org/2000/svg">
<path fill-rule="evenodd" clip-rule="evenodd" d="M8 2C5.79086 2 4 3.79086 4 6V17C4 19.2091 5.79086 21 8 21H11.0407C11.0139 20.8244 11 20.6446 11 20.4615C11 18.3875 12.1561 16.5835 13.8591 15.6587C13.6285 15.1534 13.5 14.5917 13.5 14C13.5 11.7909 15.2909 10 17.5 10C18.4459 10 19.3152 10.3284 20 10.8773V6C20 3.79086 18.2091 2 16 2H8ZM8.5 7C7.94772 7 7.5 7.44772 7.5 8C7.5 8.55228 7.94772 9 8.5 9H15.5C16.0523 9 16.5 8.55228 16.5 8C16.5 7.44772 16.0523 7 15.5 7H8.5Z" fill="#F36B2B"/>
<path d="M15.5 14C15.5 12.8954 16.3954 12 17.5 12C18.6046 12 19.5 12.8954 19.5 14C19.5 15.1046 18.6046 16 17.5 16C16.3954 16 15.5 15.1046 15.5 14Z" fill="#129FCE"/>
<path d="M13 20.4615C13 18.5498 14.5498 17 16.4615 17H18.5385C20.4502 17 22 18.5498 22 20.4615C22 21.3112 21.3112 22 20.4615 22H14.5385C13.6888 22 13 21.3112 13 20.4615Z" fill="#129FCE"/>
</svg>
