<svg width="38" height="16" viewBox="0 0 38 16" fill="none" xmlns="http://www.w3.org/2000/svg">
<path d="M0 4C0 1.79086 1.79086 0 4 0H34C36.2091 0 38 1.79086 38 4V12C38 14.2091 36.2091 16 34 16H4C1.79086 16 0 14.2091 0 12V4Z" fill="#F36B2B"/>
<path d="M0 4C0 1.79086 1.79086 0 4 0H33.5649C35.9368 0 37.7877 2.05225 37.5436 4.4116L36.8562 11.0571C36.6517 13.0337 35.0271 14.5605 33.0416 14.6421L4.16425 15.8289C1.89259 15.9222 0 14.1058 0 11.8322V4Z" fill="#F36B2B"/>
<path d="M9.5 5.75V5H5V5.75H6.5V11.25H8V5.75H9.5Z" fill="white"/>
<path d="M11.25 5V5.75H10.5V10.5H11.25V11.25H14.25V10.5H15V5.75H14.25V5H11.25ZM13.5 10.5H12V5.75H13.5V10.5Z" fill="white"/>
<path d="M19.5 5.75V5H16.5V11.25H19.5V10.5H20.25V9.75H21V6.5H20.25V5.75H19.5ZM19.5 9.75H18.75V10.5H18V5.75H18.75V6.5H19.5V9.75Z" fill="white"/>
<path d="M23.25 5.75V6.5H22.5V11.25H24V9.5H25.5V11.25H27V6.5H26.25V5.75H25.5V5H24V5.75H23.25ZM25.5 8.75H24V6.5H25.5V8.75Z" fill="white"/>
<path d="M28.75 8V8.75H29.5V11.25H31V8.75H31.75V8H32.5V5H31V8H29.5V5H28V8H28.75Z" fill="white"/>
</svg>
