<svg width="24" height="24" viewBox="0 0 24 24" fill="none" xmlns="http://www.w3.org/2000/svg">
<path fill-rule="evenodd" clip-rule="evenodd" d="M8 2C5.79086 2 4 3.79086 4 6V17C4 19.2091 5.79086 21 8 21H11.9951C11.3756 20.0312 11 18.8509 11 17.4932C11 14.0386 13.7835 11 17.491 11C18.3957 11 19.2395 11.1769 20 11.4927V6C20 3.79086 18.2091 2 16 2H8ZM8.5 6.96704C7.94772 6.96704 7.5 7.41476 7.5 7.96704C7.5 8.51933 7.94772 8.96704 8.5 8.96704H15.5C16.0523 8.96704 16.5 8.51933 16.5 7.96704C16.5 7.41476 16.0523 6.96704 15.5 6.96704H8.5Z" fill="#129FCE"/>
<path fill-rule="evenodd" clip-rule="evenodd" d="M17.5 22C19.9853 22 22 19.9853 22 17.5C22 15.0147 19.9853 13 17.5 13C15.0147 13 13 15.0147 13 17.5C13 19.9853 15.0147 22 17.5 22ZM14.75 18.25C15.1642 18.25 15.5 17.9142 15.5 17.5C15.5 17.0858 15.1642 16.75 14.75 16.75C14.3358 16.75 14 17.0858 14 17.5C14 17.9142 14.3358 18.25 14.75 18.25ZM21 17.5C21 17.9142 20.6642 18.25 20.25 18.25C19.8358 18.25 19.5 17.9142 19.5 17.5C19.5 17.0858 19.8358 16.75 20.25 16.75C20.6642 16.75 21 17.0858 21 17.5ZM17.5 18.25C17.9142 18.25 18.25 17.9142 18.25 17.5C18.25 17.0858 17.9142 16.75 17.5 16.75C17.0858 16.75 16.75 17.0858 16.75 17.5C16.75 17.9142 17.0858 18.25 17.5 18.25Z" fill="#9B51E0"/>
<path d="M21.8849 21.3095L21.5 19L19 21.5L21.3095 21.8849C21.6479 21.9413 21.9413 21.6479 21.8849 21.3095Z" fill="#9B51E0"/>
</svg>
