<svg width="24" height="24" viewBox="0 0 24 24" fill="none" xmlns="http://www.w3.org/2000/svg">
<path fill-rule="evenodd" clip-rule="evenodd" d="M8 2C5.79086 2 4 3.79086 4 6V17C4 19.2091 5.79086 21 8 21H11.4178C11.1511 20.4198 11 19.7693 11 19.0614V17.5921C11 15.9875 11.8077 14.6536 12.9496 13.7852C13.1859 11.4328 15.398 10 17.5003 10C18.3631 10 19.2444 10.2414 20 10.6886V6C20 3.79086 18.2091 2 16 2H8ZM8.5 7C7.94772 7 7.5 7.44772 7.5 8C7.5 8.55228 7.94772 9 8.5 9H15.5C16.0523 9 16.5 8.55228 16.5 8C16.5 7.44772 16.0523 7 15.5 7H8.5Z" fill="#E5E5E5"/>
<path fill-rule="evenodd" clip-rule="evenodd" d="M17.5003 12C16.0801 12 14.9288 12.9867 14.9288 14.204V14.9361C13.7884 15.4077 13 16.4197 13 17.5921V19.0614C13 20.6843 14.511 22 16.375 22H18.625C20.489 22 22 20.6843 22 19.0614V17.5921C22 16.4199 21.2118 15.408 20.0717 14.9364V14.204C20.0717 12.9867 18.9204 12 17.5003 12ZM19.0431 14.6758V14.204C19.0431 13.4736 18.3524 12.8816 17.5003 12.8816C16.6482 12.8816 15.9574 13.4736 15.9574 14.204V14.6757C16.0942 14.661 16.2336 14.6535 16.375 14.6535H18.625C18.7666 14.6535 18.9061 14.661 19.0431 14.6758ZM17.5 16.735C17.733 16.735 17.9219 16.8994 17.9219 17.1023V18.0818C17.9219 18.2847 17.733 18.4492 17.5 18.4492C17.267 18.4492 17.0781 18.2847 17.0781 18.0818V17.1023C17.0781 16.8994 17.267 16.735 17.5 16.735Z" fill="#F36B2B"/>
</svg>
