<svg width="72" height="72" viewBox="0 0 72 72" fill="none" xmlns="http://www.w3.org/2000/svg">
<path d="M1.70711 70.2929L70.2929 1.70711C70.9229 1.07714 70.4767 0 69.5858 0H39.6808C39.4192 0 39.1681 0.102493 38.9812 0.285492L0.300377 38.1604C0.108269 38.3485 0 38.6061 0 38.8749V69.5858C0 70.4767 1.07714 70.9229 1.70711 70.2929Z" fill="#47C1B3"/>
<path d="M13.4313 46.9685L8.1364 41.6737L6.54541 43.2646L11.8403 48.5595L12.6358 47.764L13.4313 48.5595L16.6132 45.3775L15.8177 44.582L16.6132 43.7865L11.3184 38.4917L9.72739 40.0827L15.0223 45.3775L13.4313 46.9685Z" fill="white"/>
<path d="M17.5015 33.8995L16.7061 33.104L12.7286 37.0815L18.7654 43.1183L20.3564 41.5273L18.5485 39.7194L20.9349 37.3329L20.1395 36.5374L20.9349 35.7419L18.297 33.104L17.5015 33.8995ZM19.344 37.3329L17.753 38.9239L15.1151 36.286L16.7061 34.695L19.344 37.3329Z" fill="white"/>
<path d="M22.742 28.659L21.9466 27.8635L18.7646 31.0455L24.8549 37.1358L28.0369 33.9538L27.2414 33.1583L28.0369 32.3628L27.2414 31.5673L28.0369 30.7718L25.1285 27.8635L24.333 28.659L23.5375 27.8635L22.742 28.659ZM26.4459 32.3628L25.6504 33.1583L26.4459 33.9538L25.6504 34.7493L21.1511 30.25L21.9466 29.4545L22.742 30.25L23.5375 29.4545L26.4459 32.3628Z" fill="white"/>
<path d="M26.5922 24.8088L27.3877 25.6043L26.5922 26.3998L31.0916 30.8991L32.6826 29.3081L31.4532 28.0787L33.0442 26.4877L34.2736 27.7171L35.8645 26.1262L31.3652 21.6268L30.5697 22.4223L29.7742 21.6268L28.9787 22.4223L28.1832 21.6268L26.5922 23.2178L27.3877 24.0133L26.5922 24.8088ZM32.1607 25.6043L30.5697 27.1953L28.1832 24.8088L29.7742 23.2178L32.1607 25.6043Z" fill="white"/>
<path d="M36.6296 15.2054L35.6171 14.1929L30.8442 18.9659L31.8566 19.9783L33.4476 18.3873L38.4375 23.3773L40.0285 21.7863L35.0386 16.7964L36.6296 15.2054Z" fill="white"/>
<path d="M44.8097 12.9553L44.0142 12.1598L41.6277 14.5463L39.2412 12.1598L42.4232 8.97787L41.6277 8.18237L36.8547 12.9553L42.8571 18.9577L47.6301 14.1847L46.8346 13.3892L43.6526 16.5712L42.4232 15.3418L44.8097 12.9553Z" fill="white"/>
</svg>
