<svg width="72" height="72" viewBox="0 0 72 72" fill="none" xmlns="http://www.w3.org/2000/svg">
<path d="M1.70711 70.2929L70.2929 1.70711C70.9229 1.07714 70.4767 0 69.5858 0H39.7402C39.4789 0 39.228 0.10228 39.0411 0.284958L0.300919 38.1603C0.108482 38.3485 0 38.6063 0 38.8754V69.5858C0 70.4767 1.07714 70.9229 1.70711 70.2929Z" fill="#F36B2B"/>
<path d="M9.74649 41.5944L8.94026 40.7881L4.90906 44.8193L10.8752 50.7855L12.4877 49.173L10.5527 47.2381L12.9715 44.8193L12.1652 44.0131L12.9715 43.2069L10.5527 40.7881L9.74649 41.5944ZM11.359 44.8193L9.74649 46.4318L7.32778 44.0131L8.94025 42.4006L11.359 44.8193Z" fill="white"/>
<path d="M11.6501 38.0784L12.4563 38.8846L11.6501 39.6909L16.0038 44.0446L16.81 43.2383L17.6163 44.0446L20.8412 40.8196L20.035 40.0134L20.8412 39.2071L16.4875 34.8534L15.6813 35.6597L14.875 34.8534L11.6501 38.0784ZM19.2287 40.8196L17.6163 42.4321L13.2626 38.0784L14.875 36.4659L19.2287 40.8196Z" fill="white"/>
<path d="M21.4911 29.8498L20.6849 29.0436L16.6537 33.0748L22.6198 39.0409L24.2323 37.4285L22.2974 35.4935L24.7161 33.0748L23.9098 32.2685L24.7161 31.4623L22.2974 29.0436L21.4911 29.8498ZM23.1036 33.0748L21.4911 34.6872L19.0724 32.2685L20.6849 30.656L23.1036 33.0748Z" fill="white"/>
<path d="M29.2408 30.8075L24.0809 25.6476L22.4684 27.2601L27.6284 32.42L28.4346 31.6137L29.2408 32.42L32.4658 29.195L31.6596 28.3888L32.4658 27.5825L27.3059 22.4226L25.6934 24.0351L30.8533 29.195L29.2408 30.8075Z" fill="white"/>
<path d="M28.3573 21.3712L34.3234 27.3373L39.1609 22.4999L38.3546 21.6937L35.1297 24.9186L29.9698 19.7587L28.3573 21.3712Z" fill="white"/>
<path d="M35.6742 15.6667L36.4804 16.4729L35.6742 17.2791L40.0279 21.6328L41.6404 20.0204L40.5116 18.8916L42.1241 17.2791L43.2529 18.4079L44.8653 16.7954L40.5116 12.4417L39.7054 13.2479L38.8992 12.4417L38.0929 13.2479L37.2867 12.4417L35.6742 14.0542L36.4805 14.8604L35.6742 15.6667ZM41.3179 16.4729L39.7054 18.0854L37.2867 15.6667L38.8992 14.0542L41.3179 16.4729Z" fill="white"/>
<path d="M39.9819 9.7466L45.9481 15.7128L47.5605 14.1003L45.6256 12.1653L46.4318 11.3591L47.238 12.1653L48.0443 11.3591L49.173 12.4878L50.7855 10.8753L49.6568 9.7466L48.8505 10.5528L47.238 8.94036L48.0443 8.13412L45.6256 5.7154L44.8193 6.52164L44.0131 5.7154L39.9819 9.7466ZM46.4318 9.7466L44.8193 11.3591L42.4006 8.94036L44.0131 7.32788L46.4318 9.7466Z" fill="white"/>
</svg>
