<svg width="72" height="72" viewBox="0 0 72 72" fill="none" xmlns="http://www.w3.org/2000/svg">
<path d="M1.70711 70.2929L70.2929 1.70711C70.9229 1.07714 70.4767 0 69.5858 0H39.6808C39.4192 0 39.1681 0.102486 38.9812 0.285492L0.300377 38.1604C0.108269 38.3485 0 38.6061 0 38.8749V69.5858C0 70.4767 1.07714 70.9229 1.70711 70.2929Z" fill="#A5ACC6"/>
<path d="M16.5987 43.7238L15.812 42.937L14.2385 44.5105L15.0252 45.2972L15.812 44.5105L16.5987 45.2972L19.7456 42.1503L18.9589 41.3636L19.7456 40.5769L19.2591 40.0903L18.4723 40.8771L17.6856 40.0903L16.8989 40.8771L16.1122 40.0903L15.3254 40.8771L14.5387 40.0903L13.752 40.8771L12.1785 39.3036L13.752 37.7302L14.5387 38.5169L16.1122 36.9434L15.3254 36.1567L14.5387 36.9434L13.752 36.1567L10.6051 39.3036L11.3918 40.0903L10.6051 40.8771L12.1785 42.4505L12.9653 41.6638L13.752 42.4505L14.5387 41.6638L15.3254 42.4505L16.1122 41.6638L16.8989 42.4505L17.6856 41.6638L18.1721 42.1503L16.5987 43.7238Z" fill="white"/>
<path d="M15.6754 34.2333L21.669 40.2269L26.3893 35.5066L25.6026 34.7198L22.4557 37.8667L17.2488 32.6599L15.6754 34.2333Z" fill="white"/>
<path d="M29.2658 28.5102L28.479 27.7235L26.1189 30.0837L23.7587 27.7235L26.9056 24.5766L26.1189 23.7898L21.3985 28.5102L27.3921 34.5038L32.1125 29.7834L31.3257 28.9967L28.1788 32.1436L26.9056 30.8704L29.2658 28.5102Z" fill="white"/>
<path d="M35.4337 22.3423L34.647 21.5555L32.2868 23.9157L29.9266 21.5555L33.0735 18.4086L32.2868 17.6219L27.5664 22.3423L33.56 28.3359L38.2804 23.6155L37.4937 22.8288L34.3468 25.9757L33.0735 24.7024L35.4337 22.3423Z" fill="white"/>
<path d="M38.4547 13.0274L37.668 12.2407L33.7344 16.1743L39.728 22.1679L41.3014 20.5945L39.2414 18.5345L41.6016 16.1743L40.8149 15.3876L41.6016 14.6009L39.2414 12.2407L38.4547 13.0274ZM40.0282 16.1743L38.4547 17.7478L36.0945 15.3876L37.668 13.8142L40.0282 16.1743Z" fill="white"/>
</svg>
