<svg width="248" height="100" viewBox="0 0 248 100" fill="none" xmlns="http://www.w3.org/2000/svg">
<g filter="url(#filter0_d_2963_206900)">
<path d="M85.1054 38.1174C62.1827 54.4366 57.2671 -3.34691 102.212 14.2818C130.096 25.2189 140.548 38.3005 140.656 54.4365H84.0509C81.7762 46.525 89.1078 35.268 85.1054 38.1174Z" fill="#C18946"/>
<path d="M85.1054 38.1174C62.1827 54.4366 57.2671 -3.34691 102.212 14.2818C130.096 25.2189 140.548 38.3005 140.656 54.4365H84.0509C81.7762 46.525 89.1078 35.268 85.1054 38.1174Z" stroke="black" stroke-width="3" stroke-linecap="round" stroke-linejoin="round"/>
</g>
<mask id="mask0_2963_206900" style="mask-type:alpha" maskUnits="userSpaceOnUse" x="66" y="9" width="77" height="47">
<path d="M85.1054 38.1174C62.1827 54.4366 57.2671 -3.34691 102.212 14.2818C130.096 25.2189 140.548 38.3005 140.656 54.4365H84.0509C81.7762 46.525 89.1078 35.268 85.1054 38.1174Z" fill="#C18946" stroke="black" stroke-width="3" stroke-linecap="round" stroke-linejoin="round"/>
</mask>
<g mask="url(#mask0_2963_206900)">
<path d="M85.1054 38.1174C62.1827 54.4366 57.2671 -3.34691 102.212 14.2818C130.096 25.2189 140.548 40.9571 140.656 57.0931H85.1054C79.7922 51.4004 89.1078 35.268 85.1054 38.1174Z" fill="#C18946" stroke="black" stroke-width="3" stroke-linecap="round" stroke-linejoin="round"/>
</g>
<rect x="79" y="55" width="85.7703" height="10.6264" fill="#FEEDE6"/>
<rect x="73" y="55" width="99" height="1" fill="#F36B2B"/>
<g filter="url(#filter1_d_2963_206900)">
<path fill-rule="evenodd" clip-rule="evenodd" d="M102.087 36.6991C104.081 32.166 106.861 27.9003 110.662 24.7209C102.943 19.142 99.9066 9.65415 110.662 3.96142C121.418 -1.73131 119.584 19.7157 119.584 19.7157C122.558 18.0473 130.465 15.7115 138.299 19.7157C138.299 19.7157 139.756 -1.92107 149.623 5.47949C159.49 12.8801 151.141 22.9372 148.31 24.7209L148.378 24.8087C150.28 27.277 153.151 31.003 155.39 36.9316C158.112 37.4805 160.427 38.6469 161.985 39.9722C163.142 40.9566 165.183 43.5655 165.183 47.1097C165.183 50.6538 163.356 53.0986 162.442 54.0011C161.3 55.1291 159.107 56.4131 154.905 57.2007C151.266 57.8825 137.074 57.9557 127.993 57.7501C118.913 57.9558 104.715 57.8828 101.076 57.2008C99.7589 56.954 98.6391 56.6583 97.6873 56.3341L97.6295 56.3344C97.6297 56.3278 97.63 56.3212 97.6303 56.3145C95.5788 55.6082 94.3156 54.7686 93.5387 54.0012C92.6251 53.0988 90.7979 50.654 90.7979 47.1098C90.7979 43.5657 92.8383 40.9568 93.9955 39.9723C95.8319 38.4101 98.7213 37.0686 102.087 36.6991Z" fill="#EABB83"/>
<path d="M110.662 24.7209L111.624 25.8715C111.979 25.5746 112.178 25.1304 112.161 24.6678C112.145 24.2053 111.916 23.7762 111.541 23.5051L110.662 24.7209ZM102.087 36.6991L102.251 38.1901C102.784 38.1317 103.245 37.7934 103.461 37.3028L102.087 36.6991ZM119.584 19.7157L118.09 19.5879C118.043 20.1414 118.305 20.6757 118.772 20.9766C119.239 21.2774 119.834 21.2957 120.318 21.0239L119.584 19.7157ZM138.299 19.7157L137.617 21.0513C138.066 21.2808 138.6 21.2693 139.039 21.0207C139.478 20.7721 139.762 20.3196 139.796 19.8164L138.299 19.7157ZM149.623 5.47949L150.523 4.27949L149.623 5.47949ZM148.31 24.7209L147.51 23.4517C147.153 23.6769 146.907 24.0423 146.833 24.4582C146.759 24.8741 146.864 25.3019 147.122 25.6364L148.31 24.7209ZM148.378 24.8087L147.189 25.7243L147.189 25.7243L148.378 24.8087ZM155.39 36.9316L153.987 37.4615C154.169 37.9446 154.587 38.2999 155.093 38.402L155.39 36.9316ZM161.985 39.9722L161.013 41.1147L161.985 39.9722ZM162.442 54.0011L163.496 55.0683V55.0682L162.442 54.0011ZM154.905 57.2007L155.181 58.675H155.181L154.905 57.2007ZM127.993 57.7501L128.027 56.2505C128.005 56.25 127.982 56.25 127.959 56.2505L127.993 57.7501ZM101.076 57.2008L101.352 55.7265H101.352L101.076 57.2008ZM97.6873 56.3341L98.171 54.9142C98.0123 54.8601 97.8457 54.8331 97.678 54.8341L97.6873 56.3341ZM97.6295 56.3344L96.1308 56.2719C96.1137 56.6819 96.2652 57.0809 96.5502 57.3761C96.8351 57.6713 97.2285 57.8369 97.6388 57.8344L97.6295 56.3344ZM97.6303 56.3145L99.129 56.3776C99.1569 55.7147 98.746 55.1123 98.1186 54.8963L97.6303 56.3145ZM93.5387 54.0012L94.5928 52.9341L94.5928 52.934L93.5387 54.0012ZM93.9955 39.9723L94.9675 41.1148H94.9675L93.9955 39.9723ZM109.7 23.5702C105.671 26.9396 102.77 31.4198 100.714 36.0953L103.461 37.3028C105.391 32.9123 108.05 28.8609 111.624 25.8715L109.7 23.5702ZM109.96 2.63567C104.189 5.69034 101.786 9.99717 102.241 14.5337C102.679 18.8928 105.722 23.0016 109.783 25.9366L111.541 23.5051C107.882 20.8612 105.548 17.4367 105.226 14.234C104.923 11.2087 106.38 7.92524 111.364 5.28717L109.96 2.63567ZM119.584 19.7157C121.079 19.8434 121.079 19.843 121.079 19.8425C121.079 19.8422 121.079 19.8416 121.079 19.841C121.079 19.8399 121.079 19.8385 121.08 19.8367C121.08 19.8332 121.08 19.8284 121.081 19.8222C121.082 19.81 121.083 19.7927 121.085 19.7706C121.088 19.7262 121.093 19.6622 121.099 19.58C121.11 19.4158 121.125 19.1788 121.14 18.8811C121.17 18.2861 121.201 17.4459 121.203 16.4565C121.207 14.4906 121.098 11.881 120.63 9.42299C120.176 7.03871 119.325 4.46592 117.599 2.90793C116.69 2.08763 115.553 1.5629 114.197 1.50528C112.873 1.449 111.459 1.84243 109.96 2.63567L111.364 5.28717C112.554 4.65723 113.435 4.47559 114.07 4.50257C114.673 4.52821 115.157 4.74506 115.589 5.13488C116.544 5.99711 117.251 7.71867 117.683 9.98456C118.101 12.1767 118.207 14.5731 118.203 16.4506C118.201 17.3829 118.172 18.1738 118.144 18.7294C118.13 19.007 118.116 19.2253 118.106 19.3724C118.101 19.4459 118.097 19.5017 118.094 19.5381C118.092 19.5563 118.091 19.5697 118.091 19.578C118.09 19.5822 118.09 19.5852 118.09 19.5868C118.09 19.5876 118.09 19.5881 118.09 19.5883C118.09 19.5884 118.09 19.5883 118.09 19.5884C118.09 19.5882 118.09 19.5879 119.584 19.7157ZM138.982 18.38C130.572 14.0815 122.119 16.5738 118.851 18.4075L120.318 21.0239C122.998 19.5207 130.358 17.3415 137.617 21.0513L138.982 18.38ZM150.523 4.27949C149.151 3.25085 147.805 2.63384 146.48 2.47686C145.123 2.31608 143.909 2.65296 142.875 3.32301C140.911 4.5956 139.667 7.01998 138.848 9.31899C138.003 11.6894 137.496 14.2685 137.198 16.2252C137.049 17.2099 136.95 18.0508 136.889 18.6477C136.859 18.9463 136.837 19.1845 136.823 19.3497C136.817 19.4324 136.811 19.4968 136.808 19.5415C136.806 19.5639 136.805 19.5813 136.804 19.5936C136.804 19.5998 136.804 19.6046 136.803 19.6082C136.803 19.61 136.803 19.6114 136.803 19.6126C136.803 19.6131 136.803 19.6137 136.803 19.614C136.803 19.6145 136.803 19.615 138.299 19.7157C139.796 19.8164 139.796 19.8167 139.796 19.8168C139.796 19.8168 139.796 19.8169 139.796 19.8168C139.796 19.8166 139.796 19.8161 139.796 19.8153C139.796 19.8136 139.796 19.8106 139.797 19.8064C139.797 19.798 139.798 19.7845 139.8 19.7661C139.802 19.7294 139.807 19.6733 139.813 19.5992C139.825 19.4511 139.845 19.2317 139.873 18.9532C139.931 18.3957 140.023 17.604 140.164 16.6759C140.448 14.807 140.921 12.4395 141.674 10.3258C142.452 8.14065 143.422 6.54345 144.507 5.84055C144.997 5.52287 145.515 5.38353 146.127 5.45601C146.77 5.53228 147.628 5.85799 148.723 6.67949L150.523 4.27949ZM149.109 25.99C150.01 25.4223 151.186 24.3204 152.277 22.9282C153.383 21.5177 154.482 19.7104 155.153 17.6763C155.826 15.6358 156.082 13.3184 155.424 10.9545C154.761 8.57646 153.211 6.29588 150.523 4.27949L148.723 6.67949C150.968 8.36338 152.075 10.1152 152.534 11.76C152.996 13.4189 152.839 15.1149 152.304 16.7367C151.767 18.3649 150.864 19.8689 149.917 21.077C148.955 22.3035 148.025 23.1275 147.51 23.4517L149.109 25.99ZM149.566 23.8932L149.498 23.8053L147.122 25.6364L147.189 25.7243L149.566 23.8932ZM156.793 36.4016C154.473 30.2575 151.488 26.3878 149.566 23.8931L147.189 25.7243C149.071 28.1663 151.829 31.7486 153.987 37.4615L156.793 36.4016ZM155.093 38.402C157.588 38.9051 159.666 39.9684 161.013 41.1147L162.957 38.8296C161.189 37.3254 158.635 36.0559 155.687 35.4612L155.093 38.402ZM161.013 41.1147C161.943 41.9056 163.683 44.1293 163.683 47.1097H166.683C166.683 43.0018 164.342 40.0076 162.957 38.8296L161.013 41.1147ZM163.683 47.1097C163.683 50.1335 162.114 52.2167 161.388 52.9339L163.496 55.0682C164.597 53.9806 166.683 51.1741 166.683 47.1097H163.683ZM161.388 52.9339C160.527 53.7837 158.649 54.9728 154.628 55.7263L155.181 58.675C159.565 57.8533 162.072 56.4746 163.496 55.0683L161.388 52.9339ZM154.628 55.7263C152.962 56.0385 148.65 56.2298 143.467 56.3083C138.349 56.3859 132.55 56.3529 128.027 56.2505L127.959 59.2497C132.518 59.3529 138.355 59.3861 143.513 59.308C148.606 59.2308 153.208 59.0447 155.181 58.675L154.628 55.7263ZM127.959 56.2505C123.437 56.353 117.636 56.386 112.517 56.3085C107.333 56.23 103.019 56.0387 101.352 55.7265L100.8 58.6751C102.773 59.0449 107.377 59.2311 112.471 59.3082C117.631 59.3863 123.469 59.353 128.027 59.2497L127.959 56.2505ZM101.352 55.7265C100.096 55.4911 99.0469 55.2126 98.171 54.9142L97.2036 57.7539C98.2314 58.1041 99.4214 58.4168 100.8 58.6751L101.352 55.7265ZM97.6388 57.8344L97.6966 57.834L97.678 54.8341L97.6202 54.8345L97.6388 57.8344ZM96.1316 56.2515C96.1313 56.2583 96.131 56.2652 96.1308 56.2719L99.1282 56.3969C99.1284 56.3905 99.1287 56.384 99.129 56.3776L96.1316 56.2515ZM98.1186 54.8963C96.2322 54.2467 95.1776 53.5117 94.5928 52.9341L92.4846 55.0684C93.4537 56.0256 94.9254 56.9696 97.142 57.7328L98.1186 54.8963ZM94.5928 52.934C93.8667 52.2168 92.2979 50.1337 92.2979 47.1098H89.2979C89.2979 51.1743 91.3835 53.9807 92.4846 55.0684L94.5928 52.934ZM92.2979 47.1098C92.2979 44.1294 94.0377 41.9058 94.9675 41.1148L93.0236 38.8298C91.6389 40.0078 89.2979 43.0019 89.2979 47.1098H92.2979ZM94.9675 41.1148C96.5607 39.7594 99.1635 38.529 102.251 38.1901L101.924 35.208C98.279 35.6081 95.103 37.0608 93.0236 38.8298L94.9675 41.1148Z" fill="black"/>
<mask id="mask1_2963_206900" style="mask-type:alpha" maskUnits="userSpaceOnUse" x="119" y="16" width="20" height="26">
<path d="M128.536 41.6836C122.753 40.4313 130.859 28.133 119.139 18.9341C127.892 13.6634 135.907 17.1283 138.82 19.5195C128.095 29.1812 133.185 41.8219 128.536 41.6836Z" fill="#D2915B"/>
</mask>
<g mask="url(#mask1_2963_206900)">
<path d="M110.045 23.6333C99.9682 31.2845 96.3183 46.1271 95.6887 54.7507L158.757 56.6267C158.939 38.4833 152.109 29.2777 148.736 24.7842C151.698 23.1014 160.576 13.3804 150.653 5.73775C140.731 -1.90494 138.596 19.5133 138.596 19.5133C130.663 15.3018 122.468 17.3771 119.362 18.9411C119.362 18.9411 121.879 -2.27731 110.658 3.04083C99.436 8.35897 102.276 17.8633 110.045 23.6333Z" fill="#CE935B" stroke="black" stroke-width="3" stroke-linecap="round" stroke-linejoin="round"/>
</g>
<mask id="mask2_2963_206900" style="mask-type:alpha" maskUnits="userSpaceOnUse" x="90" y="37" width="76" height="22">
<path fill-rule="evenodd" clip-rule="evenodd" d="M161.985 40.7323C163.142 41.7168 165.183 44.3256 165.183 47.8698C165.183 51.4139 163.356 53.8588 162.442 54.7612C161.3 55.8893 159.107 57.1732 154.905 57.9608C151.268 58.6422 137.092 58.7157 128.01 58.5106C118.931 58.7168 104.718 58.6441 101.076 57.9617C96.8734 57.1741 94.6807 55.8902 93.5387 54.7621C92.6251 53.8597 90.7979 51.4149 90.7979 47.8707C90.7979 44.3266 92.8383 41.7177 93.9955 40.7332C98.1609 37.1896 107.745 34.7814 116.021 42.2783C119.087 45.0557 120.851 42.9674 122.609 40.8856C123.397 39.9531 124.183 39.0218 125.086 38.5298C126.063 37.9969 127.057 37.767 127.975 37.7919C128.902 37.761 129.907 37.9901 130.895 38.5289C131.797 39.0209 132.584 39.9522 133.371 40.8847C135.13 42.9665 136.894 45.0548 139.96 42.2774C148.236 34.7805 157.82 37.1887 161.985 40.7323Z" fill="#FFFFFD"/>
</mask>
<g mask="url(#mask2_2963_206900)">
<path fill-rule="evenodd" clip-rule="evenodd" d="M111.364 6.04647C112.554 5.41653 113.435 5.23489 114.07 5.26186C114.673 5.2875 115.157 5.50435 115.588 5.89417C116.544 6.7564 117.251 8.47797 117.683 10.7439C118.101 12.936 118.206 15.3324 118.203 17.2098C118.201 18.1422 118.172 18.9331 118.144 19.4887C118.13 19.7663 118.116 19.9845 118.106 20.1317C118.101 20.2052 118.096 20.261 118.094 20.2974L118.09 20.3373L118.09 20.3461L118.09 20.3472C118.042 20.9007 118.305 21.435 118.772 21.7359C119.239 22.0367 119.834 22.0549 120.318 21.7832C122.998 20.28 130.358 18.1008 137.617 21.8106C138.066 22.0401 138.6 22.0286 139.039 21.78C139.477 21.5314 139.762 21.0791 139.796 20.5761L139.796 20.5761L139.796 20.5757L139.796 20.5746L139.797 20.5657L139.799 20.5254C139.802 20.4887 139.807 20.4325 139.813 20.3585C139.825 20.2104 139.845 19.991 139.873 19.7125C139.93 19.155 140.023 18.3633 140.164 17.4352C140.448 15.5663 140.921 13.1987 141.674 11.085C142.452 8.89994 143.422 7.30274 144.506 6.59985C144.997 6.28216 145.515 6.14283 146.127 6.2153C146.77 6.29157 147.627 6.61729 148.723 7.43878C150.968 9.12268 152.075 10.8744 152.534 12.5192C152.996 14.1782 152.838 15.8742 152.304 17.496C151.767 19.1242 150.864 20.6281 149.916 21.8363C148.955 23.0628 148.025 23.8868 147.51 24.211C147.153 24.4362 146.907 24.8016 146.833 25.2174C146.759 25.6333 146.864 26.0611 147.121 26.3957C148.851 28.6399 151.505 32.1021 153.695 37.4388C149.469 37.0254 144.516 38.1507 139.96 42.2777C136.894 45.0551 135.13 42.9668 133.372 40.885C132.584 39.9525 131.798 39.0212 130.896 38.5292C129.908 37.9908 128.904 37.7617 127.977 37.7921C127.059 37.7669 126.064 37.9967 125.086 38.53C124.184 39.022 123.397 39.9533 122.61 40.8858C120.851 42.9676 119.088 45.0559 116.021 42.2785C111.996 38.6324 107.662 37.3292 103.792 37.36C105.693 33.2386 108.252 29.4515 111.624 26.6308C111.979 26.3338 112.177 25.8897 112.161 25.4271C112.145 24.9646 111.916 24.5355 111.541 24.2644C107.882 21.6205 105.548 18.196 105.226 14.9933C104.923 11.968 106.379 8.68453 111.364 6.04647ZM100.35 37.7432C102.201 33.2847 104.784 28.9663 108.33 25.5583C105.011 22.7437 102.625 19.1146 102.241 15.2929C101.786 10.7565 104.189 6.44963 109.96 3.39496C111.459 2.60172 112.873 2.20829 114.197 2.26457C115.552 2.32219 116.69 2.84692 117.599 3.66722C119.325 5.22522 120.175 7.79801 120.63 10.1823C121.098 12.6403 121.206 15.2499 121.203 17.2158C121.202 17.5329 121.198 17.8347 121.193 18.118C124.887 16.7802 130.856 15.8391 137.021 18.2559C137.07 17.87 137.128 17.4428 137.198 16.9845C137.495 15.0278 138.003 12.4487 138.848 10.0783C139.667 7.77927 140.911 5.3549 142.875 4.08231C143.909 3.41225 145.123 3.07537 146.48 3.23615C147.804 3.39313 149.151 4.01014 150.523 5.03879C153.211 7.05518 154.761 9.33575 155.423 11.7138C156.082 14.0777 155.826 16.3951 155.153 18.4356C154.482 20.4697 153.383 22.277 152.277 23.6875C151.655 24.4812 151.005 25.1806 150.395 25.7404C152.396 28.4055 155.088 32.358 157.188 38.1594C159.131 38.7822 160.784 39.7101 161.986 40.7326C163.143 41.7171 165.183 44.3259 165.183 47.8701C165.183 51.4142 163.356 53.8591 162.442 54.7615C161.975 55.2234 161.331 55.7114 160.445 56.1807C160.457 56.5251 160.466 56.8727 160.473 57.2236C160.48 57.6264 160.326 58.0152 160.044 58.3027C159.761 58.5902 159.376 58.7522 158.973 58.7522H97.6049C97.1962 58.7522 96.8052 58.5855 96.5224 58.2906C96.2395 57.9956 96.0892 57.5981 96.1062 57.1898C96.1158 56.9577 96.1274 56.7214 96.1409 56.4809C94.9351 55.923 94.1072 55.3234 93.5392 54.7623C92.6256 53.8599 90.7983 51.4151 90.7983 47.8709C90.7983 44.3268 92.8388 41.7179 93.996 40.7334C95.5077 39.4474 97.7329 38.311 100.35 37.7432Z" fill="white"/>
</g>
<path d="M110.662 24.7209L111.624 25.8715C111.979 25.5746 112.178 25.1304 112.161 24.6678C112.145 24.2053 111.916 23.7762 111.541 23.5051L110.662 24.7209ZM102.026 36.706L102.195 38.1964C102.724 38.1364 103.182 37.8002 103.397 37.3131L102.026 36.706ZM110.662 3.96142L109.96 2.63567L110.662 3.96142ZM119.584 19.7157L118.09 19.5879C118.043 20.1414 118.305 20.6757 118.772 20.9766C119.239 21.2774 119.834 21.2957 120.318 21.0239L119.584 19.7157ZM138.299 19.7157L137.617 21.0513C138.066 21.2808 138.6 21.2693 139.039 21.0207C139.478 20.7721 139.762 20.3196 139.796 19.8164L138.299 19.7157ZM149.623 5.47949L150.523 4.27949L149.623 5.47949ZM148.31 24.7209L147.51 23.4517C147.153 23.6769 146.907 24.0423 146.833 24.4582C146.759 24.8741 146.864 25.3018 147.122 25.6364L148.31 24.7209ZM148.378 24.8087L147.189 25.7243L147.189 25.7243L148.378 24.8087ZM155.39 36.9316L153.987 37.4615C154.169 37.9446 154.587 38.2999 155.093 38.402L155.39 36.9316ZM161.985 39.9722L161.013 41.1147L161.985 39.9722ZM162.442 54.0011L163.496 55.0683V55.0682L162.442 54.0011ZM154.905 57.2007L155.181 58.675H155.181L154.905 57.2007ZM127.993 57.7501L128.027 56.2505C128.005 56.25 127.982 56.25 127.959 56.2505L127.993 57.7501ZM101.076 57.2008L100.8 58.6751H100.8L101.076 57.2008ZM93.5387 54.0012L92.4846 55.0684L92.4846 55.0684L93.5387 54.0012ZM93.9955 39.9723L94.9675 41.1148H94.9675L93.9955 39.9723ZM109.7 23.5702C105.635 26.9695 102.716 31.4409 100.654 36.0989L103.397 37.3131C105.33 32.9462 108.007 28.897 111.624 25.8715L109.7 23.5702ZM109.96 2.63567C104.189 5.69034 101.786 9.99717 102.241 14.5336C102.679 18.8928 105.722 23.0016 109.783 25.9366L111.541 23.5051C107.882 20.8612 105.548 17.4367 105.226 14.234C104.923 11.2087 106.38 7.92524 111.364 5.28717L109.96 2.63567ZM119.584 19.7157C121.079 19.8434 121.079 19.843 121.079 19.8425C121.079 19.8422 121.079 19.8416 121.079 19.841C121.079 19.8399 121.079 19.8385 121.08 19.8367C121.08 19.8332 121.08 19.8284 121.081 19.8222C121.082 19.81 121.083 19.7927 121.085 19.7706C121.088 19.7262 121.093 19.6622 121.099 19.58C121.11 19.4158 121.125 19.1788 121.14 18.8811C121.17 18.2861 121.201 17.4459 121.203 16.4565C121.207 14.4906 121.098 11.881 120.63 9.42299C120.176 7.03871 119.325 4.46592 117.599 2.90793C116.69 2.08763 115.553 1.5629 114.197 1.50528C112.873 1.449 111.459 1.84243 109.96 2.63567L111.364 5.28717C112.554 4.65723 113.435 4.47559 114.07 4.50257C114.673 4.52821 115.157 4.74506 115.589 5.13488C116.544 5.99711 117.251 7.71867 117.683 9.98456C118.101 12.1767 118.207 14.5731 118.203 16.4506C118.201 17.3829 118.172 18.1738 118.144 18.7294C118.13 19.007 118.116 19.2253 118.106 19.3724C118.101 19.4459 118.097 19.5017 118.094 19.5381C118.092 19.5563 118.091 19.5697 118.091 19.578C118.09 19.5822 118.09 19.5852 118.09 19.5868C118.09 19.5876 118.09 19.5881 118.09 19.5883C118.09 19.5884 118.09 19.5883 118.09 19.5884C118.09 19.5882 118.09 19.5879 119.584 19.7157ZM138.982 18.38C130.572 14.0815 122.119 16.5738 118.851 18.4075L120.318 21.0239C122.998 19.5207 130.358 17.3415 137.617 21.0513L138.982 18.38ZM150.523 4.27949C149.151 3.25085 147.805 2.63384 146.48 2.47686C145.123 2.31608 143.909 2.65296 142.875 3.32301C140.911 4.5956 139.667 7.01998 138.848 9.31899C138.003 11.6894 137.496 14.2685 137.198 16.2252C137.049 17.2099 136.95 18.0508 136.889 18.6477C136.859 18.9463 136.837 19.1845 136.823 19.3497C136.817 19.4324 136.811 19.4968 136.808 19.5415C136.806 19.5639 136.805 19.5813 136.804 19.5936C136.804 19.5998 136.804 19.6046 136.803 19.6082C136.803 19.61 136.803 19.6114 136.803 19.6126C136.803 19.6131 136.803 19.6137 136.803 19.614C136.803 19.6145 136.803 19.6149 138.299 19.7157C139.796 19.8164 139.796 19.8167 139.796 19.8168C139.796 19.8168 139.796 19.8169 139.796 19.8168C139.796 19.8166 139.796 19.8161 139.796 19.8153C139.796 19.8136 139.796 19.8106 139.797 19.8064C139.797 19.798 139.798 19.7845 139.8 19.7661C139.802 19.7294 139.807 19.6733 139.813 19.5992C139.825 19.4511 139.845 19.2317 139.873 18.9532C139.931 18.3957 140.023 17.604 140.164 16.6759C140.448 14.807 140.921 12.4395 141.674 10.3258C142.452 8.14065 143.422 6.54345 144.507 5.84055C144.997 5.52287 145.515 5.38353 146.127 5.45601C146.77 5.53228 147.628 5.85799 148.723 6.67949L150.523 4.27949ZM149.109 25.99C150.01 25.4223 151.186 24.3204 152.277 22.9282C153.383 21.5177 154.482 19.7104 155.153 17.6763C155.826 15.6358 156.082 13.3184 155.424 10.9545C154.761 8.57646 153.211 6.29588 150.523 4.27949L148.723 6.67949C150.968 8.36338 152.075 10.1152 152.534 11.76C152.996 13.4189 152.839 15.1149 152.304 16.7367C151.767 18.3649 150.864 19.8689 149.917 21.077C148.955 22.3035 148.025 23.1275 147.51 23.4517L149.109 25.99ZM149.566 23.8932L149.498 23.8053L147.122 25.6364L147.189 25.7243L149.566 23.8932ZM156.793 36.4016C154.473 30.2575 151.488 26.3878 149.566 23.8931L147.189 25.7243C149.071 28.1663 151.829 31.7486 153.987 37.4615L156.793 36.4016ZM155.093 38.402C157.588 38.9051 159.666 39.9684 161.013 41.1147L162.957 38.8296C161.189 37.3254 158.635 36.0559 155.687 35.4612L155.093 38.402ZM161.013 41.1147C161.943 41.9056 163.683 44.1293 163.683 47.1097H166.683C166.683 43.0018 164.342 40.0076 162.957 38.8296L161.013 41.1147ZM163.683 47.1097C163.683 50.1335 162.114 52.2167 161.388 52.9339L163.496 55.0682C164.597 53.9806 166.683 51.1741 166.683 47.1097H163.683ZM161.388 52.9339C160.527 53.7837 158.649 54.9728 154.628 55.7263L155.181 58.675C159.565 57.8533 162.072 56.4746 163.496 55.0683L161.388 52.9339ZM154.628 55.7263C152.962 56.0385 148.65 56.2298 143.467 56.3083C138.349 56.3859 132.55 56.3529 128.027 56.2505L127.959 59.2497C132.518 59.3529 138.355 59.3861 143.513 59.308C148.606 59.2308 153.208 59.0447 155.181 58.675L154.628 55.7263ZM127.959 56.2505C123.437 56.353 117.636 56.386 112.517 56.3085C107.333 56.23 103.019 56.0387 101.352 55.7265L100.8 58.6751C102.773 59.0449 107.377 59.2311 112.471 59.3082C117.631 59.3863 123.469 59.353 128.027 59.2497L127.959 56.2505ZM101.352 55.7265C97.3316 54.973 95.4531 53.7838 94.5928 52.9341L92.4846 55.0684C93.9084 56.4747 96.4153 57.8535 100.8 58.6751L101.352 55.7265ZM94.5928 52.9341C93.8667 52.2168 92.2979 50.1337 92.2979 47.1098H89.2979C89.2979 51.1743 91.3835 53.9807 92.4846 55.0684L94.5928 52.9341ZM92.2979 47.1098C92.2979 44.1294 94.0377 41.9058 94.9675 41.1148L93.0236 38.8298C91.6389 40.0078 89.2979 43.0019 89.2979 47.1098H92.2979ZM94.9675 41.1148C96.5508 39.7679 99.1315 38.5441 102.195 38.1964L101.857 35.2155C98.2404 35.6259 95.0905 37.0715 93.0236 38.8298L94.9675 41.1148Z" fill="black"/>
<path d="M113.189 21.7992C104.688 14.8162 109.647 9.78128 113.189 8.13672C116.605 11.5523 115.846 17.6246 115.466 20.2812C115.162 22.4065 113.822 22.1788 113.189 21.7992Z" fill="#D2915B"/>
<path d="M144.286 21.653C153.689 15.9422 149.492 10.2567 146.218 8.12778C142.354 11.0261 142.247 17.1447 142.247 19.8282C142.247 21.9751 143.606 21.9393 144.286 21.653Z" fill="#D2915B"/>
</g>
<g filter="url(#filter2_d_2963_206900)">
<ellipse cx="102.563" cy="57.0932" rx="8.72883" ry="4.55417" fill="#EABB83"/>
<path d="M110.042 57.0932C110.042 57.6502 109.585 58.4603 108.157 59.2053C106.79 59.9187 104.814 60.3974 102.563 60.3974C100.312 60.3974 98.3367 59.9187 96.9693 59.2053C95.5414 58.4603 95.0845 57.6502 95.0845 57.0932C95.0845 56.5363 95.5414 55.7262 96.9693 54.9812C98.3367 54.2677 100.312 53.7891 102.563 53.7891C104.814 53.7891 106.79 54.2677 108.157 54.9812C109.585 55.7262 110.042 56.5363 110.042 57.0932Z" stroke="black" stroke-width="2.5"/>
</g>
<path d="M99.1477 58.6108L98.3887 59.1801M105.599 58.7057L105.979 59.3699" stroke="black" stroke-width="2.5" stroke-linecap="round" stroke-linejoin="round"/>
<g filter="url(#filter3_d_2963_206900)">
<ellipse cx="154.178" cy="57.0923" rx="8.72883" ry="4.55417" fill="#EABB83"/>
<path d="M161.656 57.0923C161.656 57.6492 161.199 58.4593 159.772 59.2043C158.404 59.9177 156.428 60.3964 154.178 60.3964C151.927 60.3964 149.951 59.9177 148.584 59.2043C147.156 58.4593 146.699 57.6492 146.699 57.0923C146.699 56.5353 147.156 55.7252 148.584 54.9802C149.951 54.2668 151.927 53.7881 154.178 53.7881C156.428 53.7881 158.404 54.2668 159.772 54.9802C161.199 55.7252 161.656 56.5353 161.656 57.0923Z" stroke="black" stroke-width="2.5"/>
</g>
<path d="M150.762 58.6108L150.003 59.1801M157.214 58.7057L157.594 59.3699" stroke="black" stroke-width="2.5" stroke-linecap="round" stroke-linejoin="round"/>
<path d="M121.531 41.8502C120.591 43.7411 118.881 44.1904 117.364 43.4313C115.846 42.6723 115.561 40.3968 116.501 38.5059C117.442 36.6149 119.33 35.8307 120.719 36.7542C122.107 37.6777 122.471 39.9592 121.531 41.8502Z" fill="black"/>
<path d="M134.058 41.5469C134.769 43.5353 136.414 44.1826 138.011 43.6075C139.608 43.0323 140.158 40.806 139.447 38.8176C138.736 36.8292 136.953 35.8283 135.465 36.582C133.977 37.3356 133.347 39.5585 134.058 41.5469Z" fill="black"/>
<path d="M127.61 42.6714C127.683 44.6299 128.298 49.3881 123.056 50.2617C120.779 50.6412 118.502 50.2617 116.604 47.9846" stroke="black" stroke-width="3" stroke-linecap="round" stroke-linejoin="round"/>
<path d="M128.048 42.6714C127.976 44.6299 127.361 49.3881 132.602 50.2617C134.88 50.6412 137.157 50.2617 139.054 47.9846" stroke="black" stroke-width="3" stroke-linecap="round" stroke-linejoin="round"/>
<path d="M131.026 41.5866C131.026 40.5086 129.667 39.6348 127.99 39.6348C126.313 39.6348 124.954 40.5086 124.954 41.5866C124.954 42.6645 126.313 44.1889 127.99 44.1889C129.667 44.1889 131.026 42.6645 131.026 41.5866Z" fill="black"/>
<circle cx="104.147" cy="48.6591" r="3.48187" fill="#FCE3E3"/>
<circle cx="152.725" cy="48.6591" r="3.48187" fill="#FCE3E3"/>
<path d="M116.365 22.1613C116.352 18.1318 119.608 14.8652 123.638 14.8652L133.871 14.8652C137.9 14.8652 141.177 18.1318 141.19 22.1613C141.194 23.3588 140.227 24.3297 139.029 24.3297L118.541 24.3297C117.343 24.3297 116.369 23.3588 116.365 22.1613Z" fill="#282828" stroke="black" stroke-width="2.5"/>
<path d="M127.98 9.01053C128.395 8.31786 129.294 8.095 129.988 8.51276C130.681 8.93051 130.907 9.83068 130.492 10.5233L129.565 12.0702C129.15 12.7629 128.251 12.9858 127.558 12.568C126.864 12.1503 126.638 11.2501 127.053 10.5574L127.98 9.01053Z" fill="black"/>
<path d="M135.983 18.0005C136.839 18.2314 137.541 18.8246 137.773 19.4907" stroke="white" stroke-opacity="0.3" stroke-width="2.5" stroke-linecap="round" stroke-linejoin="round"/>
<g filter="url(#filter4_d_2963_206900)">
<path d="M221.935 54.4411C223.823 51.7885 227.498 51.1751 230.145 53.0712L236.215 57.4201C238.862 59.3162 239.477 63.0037 237.59 65.6563C237.227 66.1655 236.522 66.2833 236.014 65.9193L222.199 56.0222C221.691 55.6582 221.573 54.9503 221.935 54.4411Z" fill="#282828" stroke="black" stroke-width="2.5"/>
<path d="M235.665 60.4199C236.112 60.9663 236.291 61.6758 236.132 62.2144" stroke="white" stroke-opacity="0.3" stroke-width="2.5" stroke-linecap="round" stroke-linejoin="round"/>
<path d="M219.258 62.9074L222.375 57.5489L234.517 66.2482L230.478 70.9454C228.286 73.4945 223.948 74.0165 221.216 72.0591C218.484 70.1016 217.567 65.8153 219.258 62.9074Z" fill="#C18946" stroke="black" stroke-width="2.5"/>
<path d="M235.541 50.8896C236.131 50.6337 236.816 50.9062 237.072 51.4983C237.327 52.0904 237.056 52.7778 236.466 53.0337L235.149 53.6052C234.559 53.861 233.874 53.5885 233.618 52.9964C233.363 52.4043 233.634 51.7169 234.224 51.461L235.541 50.8896Z" fill="black"/>
<path d="M228.956 67.239C228.149 68.3557 227.4 69.0969 225.939 69.4758" stroke="white" stroke-width="2.5" stroke-linecap="round" stroke-linejoin="round"/>
</g>
<path d="M204.065 18.2929C202.266 16.6929 202.11 13.9418 203.716 12.1483L207.277 8.17029C208.883 6.37675 211.643 6.2199 213.442 7.81994C213.835 8.16975 213.869 8.7712 213.518 9.16332L205.413 18.2163C205.062 18.6084 204.458 18.6427 204.065 18.2929Z" fill="#282828" stroke="black" stroke-width="1.5"/>
<path d="M209.228 8.96108C209.651 8.68576 210.169 8.61319 210.539 8.76787" stroke="white" stroke-opacity="0.3" stroke-width="1.1" stroke-linecap="round" stroke-linejoin="round"/>
<path d="M206.317 18.2285C206.25 18.1791 206.24 18.0829 206.295 18.0209L213.423 10.0598C213.479 9.99774 213.576 9.99667 213.632 10.0574L216.66 13.2944C218.353 15.1043 218.389 18.312 216.736 20.158C215.084 22.004 211.882 22.3317 209.886 20.8603L206.317 18.2285Z" fill="#C18946" stroke="black" stroke-width="1.5"/>
<path d="M202.691 8.23891C202.555 7.79981 202.802 7.33392 203.242 7.19833C203.683 7.06273 204.15 7.30876 204.287 7.74786L204.591 8.72848C204.727 9.16758 204.48 9.63347 204.04 9.76907C203.599 9.90467 203.131 9.65863 202.995 9.21953L202.691 8.23891Z" fill="black"/>
<path d="M214.046 14.711C214.777 15.3711 215.246 15.961 215.402 17.0291" stroke="white" stroke-width="1.5" stroke-linecap="round" stroke-linejoin="round"/>
<g clip-path="url(#clip0_2963_206900)">
<path d="M15.5455 74.4101C12.3691 70.7682 12.7547 65.2503 16.4068 62.0857L26.9113 52.9832C30.5634 49.8185 36.099 50.2054 39.2754 53.8473L39.8296 54.4827C40.8279 55.6273 40.7067 57.3615 39.5589 58.3561L19.9856 75.3171C18.8378 76.3117 17.0981 76.1902 16.0998 75.0456L15.5455 74.4101Z" fill="#282828" stroke="black" stroke-width="2.5"/>
<path d="M30.9419 55.7993C31.9319 55.3205 33.0721 55.3062 33.8306 55.7424" stroke="white" stroke-opacity="0.3" stroke-width="2.5" stroke-linecap="round" stroke-linejoin="round"/>
<path d="M28.6771 82.9019L20.6497 75.2439L39.3941 59.0011L45.8857 67.9899C48.9531 72.2373 48.1814 78.9424 44.2239 82.3717L44.223 82.3726L44.222 82.3734L44.221 82.3743L44.22 82.3751L44.219 82.376L44.218 82.3768L44.2171 82.3777L44.2161 82.3786L44.2151 82.3794L44.2141 82.3803L44.2131 82.3811L44.2121 82.382L44.2111 82.3828L44.2102 82.3837L44.2092 82.3845L44.2082 82.3854L44.2072 82.3862L44.2062 82.3871L44.2052 82.3879L44.2043 82.3888L44.2033 82.3896L44.2023 82.3905L44.2013 82.3913L44.2003 82.3922L44.1993 82.3931L44.1983 82.3939L44.1974 82.3948L44.1964 82.3956L44.1954 82.3965L44.1944 82.3973L44.1934 82.3982L44.1924 82.399L44.1914 82.3999L44.1905 82.4007L44.1895 82.4016L44.1885 82.4024L44.1875 82.4033L44.1865 82.4042L44.1855 82.405L44.1845 82.4059L44.1836 82.4067L44.1826 82.4076L44.1816 82.4084L44.1806 82.4093L44.1796 82.4101L44.1786 82.411L44.1776 82.4119L44.1766 82.4127L44.1757 82.4136L44.1747 82.4144L44.1737 82.4153L44.1727 82.4161L44.1717 82.417L44.1707 82.4178L44.1697 82.4187L44.1687 82.4196L44.1678 82.4204L44.1668 82.4213L44.1658 82.4221L44.1648 82.423L44.1638 82.4238L44.1628 82.4247L44.1618 82.4255L44.1608 82.4264L44.1599 82.4273L44.1589 82.4281L44.1579 82.429L44.1569 82.4298L44.1559 82.4307L44.1549 82.4315L44.1539 82.4324L44.1529 82.4333L44.1519 82.4341L44.151 82.435L44.15 82.4358L44.149 82.4367L44.148 82.4375L44.147 82.4384L44.146 82.4393L44.145 82.4401L44.144 82.441L44.143 82.4418L44.1421 82.4427L44.1411 82.4435L44.1401 82.4444L44.1391 82.4453L44.1381 82.4461L44.1371 82.447L44.1361 82.4478L44.1351 82.4487L44.1341 82.4495L44.1331 82.4504L44.1322 82.4513L44.1312 82.4521L44.1302 82.453L44.1292 82.4538L44.1282 82.4547L44.1272 82.4556L44.1262 82.4564L44.1252 82.4573L44.1242 82.4581L44.1232 82.459L44.1222 82.4599L44.1213 82.4607L44.1203 82.4616L44.1193 82.4624L44.1183 82.4633L44.1173 82.4641L44.1163 82.465L44.1153 82.4659L44.1143 82.4667L44.1133 82.4676L44.1123 82.4684L44.1113 82.4693L44.1103 82.4702L44.1093 82.471L44.1084 82.4719L44.1074 82.4727L44.1064 82.4736L44.1054 82.4745L44.1044 82.4753L44.1034 82.4762L44.1024 82.477L44.1014 82.4779L44.1004 82.4788L44.0994 82.4796L44.0984 82.4805L44.0974 82.4813L44.0964 82.4822L44.0954 82.4831L44.0945 82.4839L44.0935 82.4848L44.0925 82.4857L44.0915 82.4865L44.0905 82.4874L44.0895 82.4882L44.0885 82.4891L44.0875 82.49L44.0865 82.4908L44.0855 82.4917L44.0845 82.4925L44.0835 82.4934L44.0825 82.4943L44.0815 82.4951L44.0805 82.496L44.0795 82.4969L44.0785 82.4977L44.0776 82.4986L44.0766 82.4994L44.0756 82.5003L44.0746 82.5012L44.0736 82.502L44.0726 82.5029L44.0716 82.5038L44.0706 82.5046L44.0696 82.5055L44.0686 82.5063L44.0676 82.5072L44.0666 82.5081L44.0656 82.5089L44.0646 82.5098L44.0636 82.5107L44.0626 82.5115L44.0616 82.5124L44.0606 82.5132L44.0596 82.5141L44.0586 82.515L44.0576 82.5158L44.0566 82.5167L44.0556 82.5176L44.0547 82.5184L44.0537 82.5193L44.0527 82.5201L44.0517 82.521L44.0507 82.5219L44.0497 82.5227L44.0487 82.5236L44.0477 82.5245L44.0467 82.5253L44.0457 82.5262L44.0447 82.5271L44.0437 82.5279L44.0427 82.5288L44.0417 82.5297L44.0407 82.5305L44.0397 82.5314L44.0387 82.5322L44.0377 82.5331L44.0367 82.534L44.0357 82.5348L44.0347 82.5357L44.0337 82.5366L44.0327 82.5374L44.0317 82.5383L44.0307 82.5392L44.0297 82.54L44.0287 82.5409L44.0277 82.5418L44.0267 82.5426L44.0257 82.5435L44.0247 82.5444L44.0237 82.5452L44.0227 82.5461L44.0217 82.547L44.0207 82.5478L44.0197 82.5487L44.0187 82.5496L44.0177 82.5504L44.0167 82.5513L44.0157 82.5522L44.0147 82.553L44.0137 82.5539L44.0127 82.5548L44.0117 82.5556L44.0107 82.5565L44.0097 82.5574L44.0087 82.5582L44.0077 82.5591L44.0067 82.56L44.0057 82.5608L44.0047 82.5617L44.0037 82.5626L44.0027 82.5634L44.0017 82.5643L44.0007 82.5652L43.9997 82.566L43.9987 82.5669L43.9977 82.5678L43.9967 82.5686L43.9957 82.5695L43.9947 82.5704L43.9937 82.5712L43.9927 82.5721L43.9917 82.573L43.9907 82.5738L43.9897 82.5747L43.9887 82.5756L43.9877 82.5764L43.9867 82.5773L43.9857 82.5782L43.9847 82.579L43.9837 82.5799L43.9827 82.5808L43.9817 82.5816L43.9807 82.5825L43.9797 82.5834L43.9787 82.5843L43.9777 82.5851L43.9767 82.586L43.9757 82.5869L43.9747 82.5877L43.9737 82.5886L43.9727 82.5895L43.9717 82.5903L43.9707 82.5912L43.9697 82.5921L43.9687 82.5929L43.9676 82.5938L43.9666 82.5947L43.9656 82.5956L43.9646 82.5964L43.9636 82.5973L43.9626 82.5982L43.9616 82.599L43.9606 82.5999L43.9596 82.6008L43.9586 82.6016L43.9576 82.6025L43.9566 82.6034L43.9556 82.6043L43.9546 82.6051L43.9536 82.606L43.9526 82.6069L43.9516 82.6077L43.9506 82.6086L43.9496 82.6095L43.9486 82.6103L43.9476 82.6112L43.9466 82.6121L43.9456 82.613L43.9445 82.6138L43.9435 82.6147L43.9425 82.6156L43.9415 82.6164L43.9405 82.6173L43.9395 82.6182L43.9385 82.6191L43.9375 82.6199L43.9365 82.6208L43.9355 82.6217L43.9345 82.6225L43.9335 82.6234L43.9325 82.6243L43.9315 82.6252L43.9305 82.626L43.9295 82.6269L43.9285 82.6278L43.9274 82.6286L43.9264 82.6295L43.9254 82.6304L43.9244 82.6313L43.9234 82.6321L43.9224 82.633L43.9214 82.6339L43.9204 82.6348L43.9194 82.6356L43.9184 82.6365L43.9174 82.6374L43.9164 82.6382L43.9154 82.6391L43.9144 82.64L43.9133 82.6409L43.9123 82.6417L43.9113 82.6426L43.9103 82.6435L43.9093 82.6444L43.9083 82.6452L43.9073 82.6461L43.9063 82.647L43.9053 82.6479L43.9043 82.6487L43.9033 82.6496L43.9023 82.6505L43.9012 82.6514L43.9002 82.6522L43.8992 82.6531L43.8982 82.654L43.8972 82.6548L43.8962 82.6557L43.8952 82.6566L43.8942 82.6575L43.8932 82.6583L43.8922 82.6592L43.8912 82.6601L43.8901 82.661L43.8891 82.6618L43.8881 82.6627L43.8871 82.6636L43.8861 82.6645L43.8851 82.6653L43.8841 82.6662L43.8831 82.6671L43.8821 82.668L43.8811 82.6688L43.88 82.6697L43.879 82.6706L43.878 82.6715L43.877 82.6723L43.876 82.6732L43.875 82.6741L43.874 82.675L43.873 82.6759L43.872 82.6767L43.871 82.6776L43.8699 82.6785L43.8689 82.6794L43.8679 82.6802L43.8669 82.6811L43.8659 82.682L43.8649 82.6829L43.8639 82.6837L43.8629 82.6846L43.8619 82.6855L43.8608 82.6864L43.8598 82.6872L43.8588 82.6881L43.8578 82.689L43.8568 82.6899L43.8558 82.6908L43.8548 82.6916L43.8538 82.6925L43.8527 82.6934L43.8517 82.6943L43.8507 82.6951L43.8497 82.696L43.8487 82.6969L43.8477 82.6978L43.8467 82.6986L43.8457 82.6995L43.8446 82.7004L43.8436 82.7013L43.8426 82.7022L43.8416 82.703L43.8406 82.7039L43.8396 82.7048L43.8386 82.7057L43.8375 82.7066L43.8365 82.7074L43.8355 82.7083L43.8345 82.7092L43.8335 82.7101L43.8325 82.7109L43.8315 82.7118L43.8305 82.7127L43.8294 82.7136L43.8284 82.7145L43.8274 82.7153L43.8264 82.7162L43.8254 82.7171L43.8244 82.718L43.8233 82.7189L43.8223 82.7197L43.8213 82.7206L43.8203 82.7215L43.8193 82.7224L43.8183 82.7233L43.8173 82.7241L43.8162 82.725L43.8152 82.7259L43.8142 82.7268L43.8132 82.7277L43.8122 82.7285L43.8112 82.7294L43.8102 82.7303L43.8091 82.7312L43.8081 82.7321L43.8071 82.7329L43.8061 82.7338L43.8051 82.7347L43.8041 82.7356L43.803 82.7365L43.802 82.7373L43.801 82.7382L43.8 82.7391L43.799 82.74L43.798 82.7409L43.7969 82.7417L43.7959 82.7426L43.7949 82.7435L43.7939 82.7444L43.7929 82.7453L43.7919 82.7461L43.7908 82.747L43.7898 82.7479L43.7888 82.7488L43.7878 82.7497L43.7868 82.7506L43.7858 82.7514L43.7847 82.7523L43.7837 82.7532L43.7827 82.7541L43.7817 82.755L43.7807 82.7558L43.7796 82.7567L43.7786 82.7576L43.7776 82.7585L43.7766 82.7594L43.7756 82.7603L43.7746 82.7611L43.7735 82.762L43.7725 82.7629L43.7715 82.7638L43.7705 82.7647L43.7695 82.7656L43.7684 82.7664L43.7674 82.7673L43.7664 82.7682L43.7654 82.7691L43.7644 82.77L43.7633 82.7709L43.7623 82.7717L43.7613 82.7726L43.7603 82.7735L43.7593 82.7744L43.7582 82.7753L43.7572 82.7762L43.7562 82.777L43.7552 82.7779L43.7542 82.7788L43.7531 82.7797L43.7521 82.7806L43.7511 82.7815L43.7501 82.7823L43.7491 82.7832L43.748 82.7841L43.747 82.785L43.746 82.7859L43.745 82.7868L43.744 82.7876L43.7429 82.7885L43.7419 82.7894L43.7409 82.7903L43.7399 82.7912L43.7389 82.7921L43.7378 82.793L43.7368 82.7938L43.7358 82.7947L43.7348 82.7956L43.7337 82.7965L43.7327 82.7974L43.7317 82.7983L43.7307 82.7992L43.7297 82.8L43.7286 82.8009L43.7276 82.8018L43.7266 82.8027L43.7256 82.8036L43.7245 82.8045L43.7235 82.8054L43.7225 82.8062L43.7215 82.8071L43.7205 82.808L43.7194 82.8089L43.7184 82.8098L43.7174 82.8107L43.7164 82.8116L43.7153 82.8124L43.7143 82.8133L43.7133 82.8142L43.7123 82.8151L43.7113 82.816L43.7102 82.8169L43.7092 82.8178L43.7082 82.8187L43.7072 82.8195L43.7061 82.8204L43.7051 82.8213L43.7041 82.8222L43.7031 82.8231L43.702 82.824L43.701 82.8249L43.7 82.8257L43.699 82.8266L43.698 82.8275L43.6969 82.8284L43.6959 82.8293L43.6949 82.8302L43.6939 82.8311L43.6928 82.8319L43.6918 82.8328L43.6908 82.8337L43.6898 82.8346L43.6888 82.8355L43.6877 82.8364L43.6867 82.8373L43.6857 82.8381L43.6847 82.839L43.6836 82.8399L43.6826 82.8408L43.6816 82.8417L43.6806 82.8426L43.6796 82.8435L43.6785 82.8443L43.6775 82.8452L43.6765 82.8461L43.6755 82.847L43.6745 82.8479L43.6734 82.8488L43.6724 82.8496L43.6714 82.8505L43.6704 82.8514L43.6694 82.8523L43.6683 82.8532L43.6673 82.8541L43.6663 82.855L43.6653 82.8558L43.6643 82.8567L43.6632 82.8576L43.6622 82.8585L43.6612 82.8594L43.6602 82.8603L43.6592 82.8611L43.6581 82.862L43.6571 82.8629L43.6561 82.8638L43.6551 82.8647L43.6541 82.8656L43.653 82.8664L43.652 82.8673L43.651 82.8682L43.65 82.8691L43.649 82.87L43.6479 82.8709L43.6469 82.8717L43.6459 82.8726L43.6449 82.8735L43.6439 82.8744L43.6428 82.8753L43.6418 82.8761L43.6408 82.877L43.6398 82.8779L43.6388 82.8788L43.6378 82.8797L43.6367 82.8806L43.6357 82.8814L43.6347 82.8823L43.6337 82.8832L43.6327 82.8841L43.6317 82.885L43.6306 82.8858L43.6296 82.8867L43.6286 82.8876L43.6276 82.8885L43.6266 82.8894L43.6255 82.8903L43.6245 82.8911L43.6235 82.892L43.6225 82.8929L43.6215 82.8938L43.6205 82.8947L43.6194 82.8955L43.6184 82.8964L43.6174 82.8973L43.6164 82.8982L43.6154 82.8991L43.6144 82.8999L43.6134 82.9008L43.6123 82.9017L43.6113 82.9026L43.6103 82.9035L43.6093 82.9043L43.6083 82.9052L43.6073 82.9061L43.6062 82.907L43.6052 82.9079L43.6042 82.9087L43.6032 82.9096L43.6022 82.9105L43.6012 82.9114L43.6002 82.9123L43.5991 82.9131L43.5981 82.914L43.5971 82.9149L43.5961 82.9158L43.5951 82.9167L43.5941 82.9175L43.593 82.9184L43.592 82.9193L43.591 82.9202L43.59 82.9211L43.589 82.9219L43.588 82.9228L43.587 82.9237L43.5859 82.9246L43.5849 82.9254L43.5839 82.9263L43.5829 82.9272L43.5819 82.9281L43.5809 82.929L43.5799 82.9298L43.5789 82.9307L43.5778 82.9316L43.5768 82.9325L43.5758 82.9334L43.5748 82.9342L43.5738 82.9351L43.5728 82.936L43.5718 82.9369L43.5708 82.9377L43.5697 82.9386L43.5687 82.9395L43.5677 82.9404L43.5667 82.9413L43.5657 82.9421L43.5647 82.943L43.5637 82.9439L43.5627 82.9448L43.5616 82.9456L43.5606 82.9465L43.5596 82.9474L43.5586 82.9483L43.5576 82.9491L43.5566 82.95L43.5556 82.9509L43.5546 82.9518L43.5535 82.9526L43.5525 82.9535L43.5515 82.9544L43.5505 82.9553L43.5495 82.9562L43.5485 82.957L43.5475 82.9579L43.5465 82.9588L43.5455 82.9597L43.5444 82.9605L43.5434 82.9614L43.5424 82.9623L43.5414 82.9632L43.5404 82.964L43.5394 82.9649L43.5384 82.9658L43.5374 82.9667L43.5364 82.9675L43.5354 82.9684L43.5343 82.9693L43.5333 82.9702L43.5323 82.971L43.5313 82.9719L43.5303 82.9728L43.5293 82.9737L43.5283 82.9745L43.5273 82.9754L43.5263 82.9763L43.5253 82.9772L43.5243 82.978L43.5232 82.9789L43.5222 82.9798L43.5212 82.9807L43.5202 82.9815L43.5192 82.9824L43.5182 82.9833L43.5172 82.9842L43.5162 82.985L43.5152 82.9859L43.5142 82.9868L43.5132 82.9876L43.5121 82.9885L43.5111 82.9894L43.5101 82.9903L43.5091 82.9911L43.5081 82.992L43.5071 82.9929L43.5061 82.9938L43.5051 82.9946L43.5041 82.9955L43.5031 82.9964L43.5021 82.9973L43.5011 82.9981L43.5001 82.999L43.499 82.9999L43.498 83.0007L43.497 83.0016L43.496 83.0025L43.495 83.0034L43.494 83.0042L43.493 83.0051L43.492 83.006L43.491 83.0069L43.49 83.0077L43.489 83.0086L43.488 83.0095L43.487 83.0103L43.486 83.0112L43.485 83.0121L43.484 83.013L43.4829 83.0138L43.4819 83.0147L43.4809 83.0156L43.4799 83.0164L43.4789 83.0173L43.4779 83.0182L43.4769 83.0191L43.4759 83.0199L43.4749 83.0208L43.4739 83.0217L43.4729 83.0225L43.4719 83.0234L43.4709 83.0243L43.4699 83.0252L43.4689 83.026L43.4679 83.0269L43.4669 83.0278L43.4659 83.0286L43.4649 83.0295L43.4638 83.0304L43.4628 83.0312L43.4618 83.0321L43.4608 83.033L43.4598 83.0339L43.4588 83.0347L43.4578 83.0356L43.4568 83.0365L43.4558 83.0373L43.4548 83.0382L43.4538 83.0391L43.4528 83.0399L43.4518 83.0408L43.4508 83.0417L43.4498 83.0426L43.4488 83.0434L43.4478 83.0443L43.4468 83.0452L43.4458 83.046L43.4448 83.0469L43.4438 83.0478L43.4428 83.0486L43.4418 83.0495L43.4408 83.0504L43.4398 83.0512L43.4388 83.0521L43.4378 83.053L43.4368 83.0538L43.4358 83.0547L43.4348 83.0556L43.4338 83.0565L43.4328 83.0573L43.4318 83.0582L43.4308 83.0591L43.4297 83.0599L43.4287 83.0608L43.4277 83.0617L43.4267 83.0625L43.4257 83.0634L43.4247 83.0643L43.4237 83.0651L43.4227 83.066L43.4217 83.0669L43.4207 83.0677L43.4197 83.0686L43.4187 83.0695L43.4177 83.0703L43.4167 83.0712L43.4157 83.0721L43.4147 83.0729L43.4137 83.0738L43.4127 83.0747L43.4117 83.0755L43.4107 83.0764L43.4097 83.0773L43.4087 83.0781L43.4077 83.079L43.4067 83.0799L43.4057 83.0807L43.4047 83.0816L43.4037 83.0825L43.4027 83.0833L43.4017 83.0842L43.4007 83.0851L43.3997 83.0859L43.3987 83.0868L43.3977 83.0877L43.3967 83.0885L43.3957 83.0894L43.3947 83.0903L43.3937 83.0911L43.3927 83.092L43.3917 83.0929L43.3907 83.0937L43.3897 83.0946L43.3887 83.0955L43.3877 83.0963L43.3868 83.0972L43.3858 83.098L43.3848 83.0989L43.3838 83.0998L43.3828 83.1006L43.3818 83.1015L43.3808 83.1024L43.3798 83.1032L43.3788 83.1041L43.3778 83.105L43.3768 83.1058L43.3758 83.1067L43.3748 83.1076L43.3738 83.1084L43.3728 83.1093L43.3718 83.1102L43.3708 83.111L43.3698 83.1119L43.3688 83.1127L43.3678 83.1136L43.3668 83.1145L43.3658 83.1153L43.3648 83.1162L43.3638 83.1171L43.3628 83.1179L43.3618 83.1188L43.3608 83.1197L43.3598 83.1205L43.3588 83.1214L43.3578 83.1222L43.3568 83.1231L43.3558 83.124L43.3548 83.1248L43.3538 83.1257L43.3529 83.1266L43.3519 83.1274L43.3509 83.1283L43.3499 83.1291L43.3489 83.13L43.3479 83.1309L43.3469 83.1317L43.3459 83.1326L43.3449 83.1335L43.3439 83.1343L43.3429 83.1352L43.3419 83.136L43.3409 83.1369L43.3399 83.1378L43.3389 83.1386L43.3379 83.1395L43.3369 83.1404L43.3359 83.1412L43.3349 83.1421L43.334 83.1429L43.333 83.1438L43.332 83.1447L43.331 83.1455L43.33 83.1464L43.329 83.1472L43.328 83.1481L43.327 83.149L43.326 83.1498L43.325 83.1507L43.324 83.1515L43.323 83.1524L43.322 83.1533L43.321 83.1541L43.32 83.155L43.319 83.1559L43.3181 83.1567L43.3171 83.1576L43.3161 83.1584L43.3151 83.1593L43.3141 83.1602L43.3131 83.161L43.3121 83.1619L43.3111 83.1627L43.3101 83.1636L43.3091 83.1645L43.3081 83.1653L43.3071 83.1662L43.3061 83.167L43.3052 83.1679L43.3042 83.1687L43.3032 83.1696L43.3022 83.1705L43.3012 83.1713L43.3002 83.1722L43.2992 83.173L43.2982 83.1739L43.2972 83.1748L43.2962 83.1756L43.2952 83.1765L43.2942 83.1773L43.2933 83.1782L43.2923 83.1791L43.2913 83.1799L43.2903 83.1808L43.2893 83.1816L43.2883 83.1825L43.2873 83.1833L43.2863 83.1842L43.2853 83.1851L43.2843 83.1859L43.2834 83.1868L43.2824 83.1876L43.2814 83.1885L43.2804 83.1894L43.2794 83.1902L43.2784 83.1911L43.2774 83.1919L43.2764 83.1928L43.2754 83.1936L43.2744 83.1945L43.2735 83.1954L43.2725 83.1962L43.2715 83.1971L43.2705 83.1979L43.2695 83.1988L43.2685 83.1996L43.2675 83.2005L43.2665 83.2014L43.2655 83.2022L43.2646 83.2031L43.2636 83.2039L43.2626 83.2048L43.2616 83.2056L43.2606 83.2065L43.2596 83.2074L43.2586 83.2082L43.2576 83.2091L43.2566 83.2099L43.2557 83.2108L43.2547 83.2116L43.2537 83.2125L43.2527 83.2133L43.2517 83.2142L43.2507 83.2151L43.2497 83.2159L43.2487 83.2168L43.2478 83.2176L43.2468 83.2185L43.2458 83.2193L43.2448 83.2202L43.2438 83.221L43.2428 83.2219L43.2418 83.2228L43.2408 83.2236L43.2399 83.2245L43.2389 83.2253L43.2379 83.2262L43.2369 83.227L43.2359 83.2279L43.2349 83.2287L43.2339 83.2296L43.233 83.2305L43.232 83.2313L43.231 83.2322L43.23 83.233L43.229 83.2339L43.228 83.2347L43.227 83.2356L43.2261 83.2364L43.2251 83.2373L43.2241 83.2381L43.2231 83.239L43.2221 83.2398L43.2211 83.2407L43.2201 83.2416L43.2192 83.2424L43.2182 83.2433L43.2172 83.2441L43.2162 83.245L43.2152 83.2458L43.2142 83.2467L43.2132 83.2475L43.2123 83.2484L43.2113 83.2492L43.2103 83.2501L43.2093 83.2509L43.2083 83.2518L43.2073 83.2526L43.2064 83.2535L43.2054 83.2544L43.2044 83.2552L43.2034 83.2561L43.2024 83.2569L43.2014 83.2578L43.2005 83.2586L43.1995 83.2595L43.1985 83.2603L43.1975 83.2612L43.1965 83.262C39.2391 86.6913 32.4702 86.5204 28.6771 82.9019ZM39.2337 58.779L39.234 58.7793L39.2337 58.779Z" fill="#C18946" stroke="black" stroke-width="2.5"/>
<path d="M16.3749 52.9012C16.2013 51.9145 16.8629 50.9754 17.8527 50.8035C18.8425 50.6315 19.7857 51.292 19.9593 52.2786L20.3471 54.4819C20.5207 55.4685 19.8591 56.4077 18.8693 56.5796C17.8795 56.7515 16.9363 56.0911 16.7627 55.1045L16.3749 52.9012Z" fill="black"/>
<path d="M41.4478 69.458C42.8469 71.086 43.6981 72.4901 43.7419 74.8417" stroke="white" stroke-width="2.5" stroke-linecap="round" stroke-linejoin="round"/>
</g>
<defs>
<filter id="filter0_d_2963_206900" x="62.501" y="9.39746" width="83.6548" height="54.5391" filterUnits="userSpaceOnUse" color-interpolation-filters="sRGB">
<feFlood flood-opacity="0" result="BackgroundImageFix"/>
<feColorMatrix in="SourceAlpha" type="matrix" values="0 0 0 0 0 0 0 0 0 0 0 0 0 0 0 0 0 0 127 0" result="hardAlpha"/>
<feOffset dy="4"/>
<feGaussianBlur stdDeviation="2"/>
<feComposite in2="hardAlpha" operator="out"/>
<feColorMatrix type="matrix" values="0 0 0 0 0 0 0 0 0 0 0 0 0 0 0 0 0 0 0.25 0"/>
<feBlend mode="normal" in2="BackgroundImageFix" result="effect1_dropShadow_2963_206900"/>
<feBlend mode="normal" in="SourceGraphic" in2="effect1_dropShadow_2963_206900" result="shape"/>
</filter>
<filter id="filter1_d_2963_206900" x="85.2979" y="1.5" width="85.3848" height="65.8511" filterUnits="userSpaceOnUse" color-interpolation-filters="sRGB">
<feFlood flood-opacity="0" result="BackgroundImageFix"/>
<feColorMatrix in="SourceAlpha" type="matrix" values="0 0 0 0 0 0 0 0 0 0 0 0 0 0 0 0 0 0 127 0" result="hardAlpha"/>
<feOffset dy="4"/>
<feGaussianBlur stdDeviation="2"/>
<feComposite in2="hardAlpha" operator="out"/>
<feColorMatrix type="matrix" values="0 0 0 0 0 0 0 0 0 0 0 0 0 0 0 0 0 0 0.18 0"/>
<feBlend mode="normal" in2="BackgroundImageFix" result="effect1_dropShadow_2963_206900"/>
<feBlend mode="normal" in="SourceGraphic" in2="effect1_dropShadow_2963_206900" result="shape"/>
</filter>
<filter id="filter2_d_2963_206900" x="87.8345" y="46.5391" width="29.4575" height="21.1084" filterUnits="userSpaceOnUse" color-interpolation-filters="sRGB">
<feFlood flood-opacity="0" result="BackgroundImageFix"/>
<feColorMatrix in="SourceAlpha" type="matrix" values="0 0 0 0 0 0 0 0 0 0 0 0 0 0 0 0 0 0 127 0" result="hardAlpha"/>
<feOffset/>
<feGaussianBlur stdDeviation="3"/>
<feComposite in2="hardAlpha" operator="out"/>
<feColorMatrix type="matrix" values="0 0 0 0 0 0 0 0 0 0 0 0 0 0 0 0 0 0 0.25 0"/>
<feBlend mode="normal" in2="BackgroundImageFix" result="effect1_dropShadow_2963_206900"/>
<feBlend mode="normal" in="SourceGraphic" in2="effect1_dropShadow_2963_206900" result="shape"/>
</filter>
<filter id="filter3_d_2963_206900" x="139.449" y="46.5381" width="29.4575" height="21.1084" filterUnits="userSpaceOnUse" color-interpolation-filters="sRGB">
<feFlood flood-opacity="0" result="BackgroundImageFix"/>
<feColorMatrix in="SourceAlpha" type="matrix" values="0 0 0 0 0 0 0 0 0 0 0 0 0 0 0 0 0 0 127 0" result="hardAlpha"/>
<feOffset/>
<feGaussianBlur stdDeviation="3"/>
<feComposite in2="hardAlpha" operator="out"/>
<feColorMatrix type="matrix" values="0 0 0 0 0 0 0 0 0 0 0 0 0 0 0 0 0 0 0.25 0"/>
<feBlend mode="normal" in2="BackgroundImageFix" result="effect1_dropShadow_2963_206900"/>
<feBlend mode="normal" in="SourceGraphic" in2="effect1_dropShadow_2963_206900" result="shape"/>
</filter>
<filter id="filter4_d_2963_206900" x="213.159" y="50.7178" width="30.7734" height="31.7817" filterUnits="userSpaceOnUse" color-interpolation-filters="sRGB">
<feFlood flood-opacity="0" result="BackgroundImageFix"/>
<feColorMatrix in="SourceAlpha" type="matrix" values="0 0 0 0 0 0 0 0 0 0 0 0 0 0 0 0 0 0 127 0" result="hardAlpha"/>
<feOffset dy="4"/>
<feGaussianBlur stdDeviation="2"/>
<feComposite in2="hardAlpha" operator="out"/>
<feColorMatrix type="matrix" values="0 0 0 0 0 0 0 0 0 0 0 0 0 0 0 0 0 0 0.18 0"/>
<feBlend mode="normal" in2="BackgroundImageFix" result="effect1_dropShadow_2963_206900"/>
<feBlend mode="normal" in="SourceGraphic" in2="effect1_dropShadow_2963_206900" result="shape"/>
</filter>
<clipPath id="clip0_2963_206900">
<rect width="60" height="60" fill="white" transform="translate(59.9897 37.9995) rotate(88.9336)"/>
</clipPath>
</defs>
</svg>
