<svg width="18" height="20" viewBox="0 0 18 20" fill="none" xmlns="http://www.w3.org/2000/svg">
<path fill-rule="evenodd" clip-rule="evenodd" d="M5.75 1C5.75 0.585786 5.41421 0.25 5 0.25C4.58579 0.25 4.25 0.585786 4.25 1V2.01751C1.61895 2.19842 0 3.77641 0 6.53696V15.3799C0 18.3645 1.83427 20 4.77096 20H13.229C16.175 20 18 18.3922 18 15.4538V6.53696C18.0087 3.77268 16.3941 2.19415 13.75 2.01678V1C13.75 0.585786 13.4142 0.25 13 0.25C12.5858 0.25 12.25 0.585786 12.25 1V2H5.75V1ZM2.30509 4.2656C2.70606 3.89314 3.3325 3.60172 4.25 3.52182V4C4.25 4.41421 4.58579 4.75 5 4.75C5.41421 4.75 5.75 4.41421 5.75 4V3.5H12.25V4C12.25 4.41421 12.5858 4.75 13 4.75C13.4142 4.75 13.75 4.41421 13.75 4V3.52087C14.677 3.59944 15.3053 3.89195 15.7049 4.26417C16.1574 4.68567 16.5036 5.38293 16.5 6.53223V6.53696V7.25H1.5V6.53696C1.5 5.38882 1.84881 4.68942 2.30509 4.2656ZM1.5 8.75V15.3799C1.5 16.5585 1.85368 17.2825 2.31567 17.7201C2.7899 18.1692 3.57269 18.5 4.77096 18.5H13.229C14.4395 18.5 15.2245 18.1719 15.6959 17.732C16.1519 17.3066 16.5 16.6043 16.5 15.4538V8.75H1.5ZM5.75 11.75C5.75 12.1642 5.41421 12.5 5 12.5C4.58579 12.5 4.25 12.1642 4.25 11.75C4.25 11.3358 4.58579 11 5 11C5.41421 11 5.75 11.3358 5.75 11.75ZM5 16.437C5.41421 16.437 5.75 16.1012 5.75 15.687C5.75 15.2728 5.41421 14.937 5 14.937C4.58579 14.937 4.25 15.2728 4.25 15.687C4.25 16.1012 4.58579 16.437 5 16.437ZM9.75879 11.75C9.75879 12.1642 9.423 12.5 9.00879 12.5C8.59458 12.5 8.25879 12.1642 8.25879 11.75C8.25879 11.3358 8.59458 11 9.00879 11C9.423 11 9.75879 11.3358 9.75879 11.75ZM9.00879 16.437C9.423 16.437 9.75879 16.1012 9.75879 15.687C9.75879 15.2728 9.423 14.937 9.00879 14.937C8.59458 14.937 8.25879 15.2728 8.25879 15.687C8.25879 16.1012 8.59458 16.437 9.00879 16.437ZM13.75 11.75C13.75 12.1642 13.4142 12.5 13 12.5C12.5858 12.5 12.25 12.1642 12.25 11.75C12.25 11.3358 12.5858 11 13 11C13.4142 11 13.75 11.3358 13.75 11.75ZM13 16.437C13.4142 16.437 13.75 16.1012 13.75 15.687C13.75 15.2728 13.4142 14.937 13 14.937C12.5858 14.937 12.25 15.2728 12.25 15.687C12.25 16.1012 12.5858 16.437 13 16.437Z" fill="#333333"/>
</svg>
