<svg width="18" height="18" viewBox="0 0 18 18" fill="none" xmlns="http://www.w3.org/2000/svg">
<path fill-rule="evenodd" clip-rule="evenodd" d="M1.38462 9.02056C1.38462 4.80509 4.79414 1.38778 9 1.38778C13.2059 1.38778 16.6154 4.80509 16.6154 9.02056C16.6154 12.0407 14.8653 14.6526 12.3231 15.8904C11.9791 16.0579 11.8358 16.4731 12.0029 16.8178C12.1699 17.1625 12.5842 17.3062 12.9281 17.1387C15.929 15.6775 18 12.5921 18 9.02056C18 4.03864 13.9706 0 9 0C4.02944 0 0 4.03864 0 9.02056C0 13.6984 3.5521 17.5439 8.10083 17.9966C8.12356 17.9989 8.14639 18 8.16923 18C8.71275 18 9.12693 17.7707 9.38573 17.4282C9.61945 17.1189 9.69231 16.7649 9.69231 16.5146V13.7005C11.0281 13.4033 12.0569 12.2635 12.1675 10.8465L12.3116 9H12.3143C12.693 9 13 8.693 13 8.31429C13 6.79945 11.772 5.57143 10.2571 5.57143H7.74286C6.22802 5.57143 5 6.79945 5 8.31429C5 8.693 5.307 9 5.68571 9H5.68854L5.83263 10.8465C5.94321 12.2635 6.97192 13.4032 8.30769 13.7005V16.5146C8.30769 16.5143 8.30769 16.5143 8.30767 16.5144C8.30754 16.5157 8.3066 16.53 8.30064 16.5498C8.29436 16.5708 8.28667 16.5841 8.28197 16.5903C8.27915 16.5941 8.27821 16.5948 8.2746 16.5965C8.27136 16.5981 8.24952 16.6086 8.19718 16.6115C4.36902 16.2099 1.38462 12.9641 1.38462 9.02056ZM8.47559 3.64954C8.68269 3.29082 9.14139 3.16791 9.5001 3.37502C9.85882 3.58213 9.98173 4.04082 9.77462 4.39954L9.52462 4.83255C9.31752 5.19127 8.85882 5.31418 8.5001 5.10707C8.14139 4.89996 8.01848 4.44127 8.22559 4.08255L8.47559 3.64954ZM6.80388 7.5C7.03176 7.23746 7.36792 7.07143 7.74286 7.07143H10.2571C10.6321 7.07143 10.9682 7.23746 11.1961 7.5H6.80388ZM7.32808 10.7298L7.1931 9.00002H10.807L10.672 10.7298C10.6039 11.6027 9.87565 12.2763 9.00005 12.2763C8.12444 12.2763 7.39621 11.6027 7.32808 10.7298Z" fill="#333333"/>
</svg>
