<svg width="20" height="20" viewBox="0 0 20 20" fill="none" xmlns="http://www.w3.org/2000/svg">
<path fill-rule="evenodd" clip-rule="evenodd" d="M10 0.25C10.4142 0.25 10.75 0.585786 10.75 1V3C10.75 3.41421 10.4142 3.75 10 3.75C9.58579 3.75 9.25 3.41421 9.25 3V1C9.25 0.585786 9.58579 0.25 10 0.25ZM10 13.5C11.933 13.5 13.5 11.933 13.5 10C13.5 8.067 11.933 6.5 10 6.5C8.067 6.5 6.5 8.067 6.5 10C6.5 11.933 8.067 13.5 10 13.5ZM10 15C12.7614 15 15 12.7614 15 10C15 7.23858 12.7614 5 10 5C7.23858 5 5 7.23858 5 10C5 12.7614 7.23858 15 10 15ZM16.9795 4.11627C17.2724 3.82337 17.2724 3.3485 16.9795 3.05561C16.6867 2.76271 16.2118 2.76271 15.9189 3.05561L14.5047 4.46982C14.2118 4.76271 14.2118 5.23759 14.5047 5.53048C14.7976 5.82337 15.2724 5.82337 15.5653 5.53048L16.9795 4.11627ZM3.05561 3.05561C2.76271 3.3485 2.76271 3.82337 3.05561 4.11627L4.46982 5.53048C4.76271 5.82337 5.23759 5.82337 5.53048 5.53048C5.82337 5.23759 5.82337 4.76271 5.53048 4.46982L4.11627 3.05561C3.82337 2.76271 3.3485 2.76271 3.05561 3.05561ZM4.11612 16.9445L5.53033 15.5303C5.82322 15.2374 5.82322 14.7626 5.53033 14.4697C5.23744 14.1768 4.76256 14.1768 4.46967 14.4697L3.05546 15.8839C2.76256 16.1768 2.76256 16.6516 3.05546 16.9445C3.34835 17.2374 3.82322 17.2374 4.11612 16.9445ZM14.4697 15.5303L15.8839 16.9445C16.1768 17.2374 16.6516 17.2374 16.9445 16.9445C17.2374 16.6516 17.2374 16.1768 16.9445 15.8839L15.5303 14.4697C15.2374 14.1768 14.7626 14.1768 14.4697 14.4697C14.1768 14.7626 14.1768 15.2374 14.4697 15.5303ZM17 10.75C16.5858 10.75 16.25 10.4142 16.25 10C16.25 9.58579 16.5858 9.25 17 9.25H19C19.4142 9.25 19.75 9.58579 19.75 10C19.75 10.4142 19.4142 10.75 19 10.75H17ZM0.25 10C0.25 10.4142 0.585786 10.75 1 10.75H3C3.41421 10.75 3.75 10.4142 3.75 10C3.75 9.58579 3.41421 9.25 3 9.25H1C0.585786 9.25 0.25 9.58579 0.25 10ZM10.75 17C10.75 16.5858 10.4142 16.25 10 16.25C9.58579 16.25 9.25 16.5858 9.25 17V19C9.25 19.4142 9.58579 19.75 10 19.75C10.4142 19.75 10.75 19.4142 10.75 19V17Z" fill="#333333"/>
</svg>
