<svg width="28" height="29" viewBox="0 0 28 29" fill="none" xmlns="http://www.w3.org/2000/svg">
<path d="M6.51285 11.6121C9.59753 11.6121 12.2486 9.80405 13.4094 7.2168H14.0353V20.8912H6.51285L4.00537 11.6121L4.37635 11.3125C5.0536 11.5075 5.77067 11.6121 6.51285 11.6121Z" fill="#A57136"/>
<path d="M21.5577 11.6121C18.473 11.6121 15.822 9.80405 14.6612 7.2168H14.0353V20.8912H21.5577L24.0652 11.6121L23.6942 11.3125C23.017 11.5075 22.2999 11.6121 21.5577 11.6121Z" fill="#A57136"/>
<circle cx="14.0001" cy="4.43398" r="2.1" fill="#A57136"/>
<circle cx="24.9085" cy="9.74297" r="1.575" fill="#A57136"/>
<ellipse cx="2.97515" cy="9.74297" rx="1.575" ry="1.575" fill="#A57136"/>
<path d="M5.8335 22.7441C5.8335 22.2609 6.22525 21.8691 6.7085 21.8691H21.2918C21.7751 21.8691 22.1668 22.2609 22.1668 22.7441C22.1668 23.2274 21.7751 23.6191 21.2918 23.6191H6.7085C6.22525 23.6191 5.8335 23.2274 5.8335 22.7441Z" fill="#A57136"/>
</svg>
