<svg width="32" height="32" viewBox="0 0 32 32" fill="none" xmlns="http://www.w3.org/2000/svg">
<path d="M7 13.4C10.6906 13.4 13.8623 11.1786 15.2511 8H16V26H7L4 13.4L4.44385 13.0318C5.25413 13.2714 6.11204 13.4 7 13.4Z" fill="#949494"/>
<path d="M25 13.4C21.3094 13.4 18.1377 11.1786 16.7489 8H16V26H25L28 13.4L27.5562 13.0318C26.7459 13.2714 25.888 13.4 25 13.4Z" fill="#949494"/>
<circle cx="16" cy="4" r="2" fill="#949494"/>
<circle cx="30" cy="10" r="2" fill="#949494"/>
<circle cx="2" cy="10" r="2" fill="#949494"/>
<path d="M6 28.25C6 27.8358 6.33579 27.5 6.75 27.5H25.25C25.6642 27.5 26 27.8358 26 28.25C26 28.6642 25.6642 29 25.25 29H6.75C6.33579 29 6 28.6642 6 28.25Z" fill="#949494"/>
<path d="M16 18V19H15V20H14V21H13V23H19V22H15V21H16V20H17V19H18V18H19V15H18V14H14V15H13V17H15V15H17V18H16Z" fill="white"/>
</svg>
