<svg width="25" height="16" viewBox="0 0 25 16" fill="none" xmlns="http://www.w3.org/2000/svg">
<path fill-rule="evenodd" clip-rule="evenodd" d="M6.69702 4C4.9021 4 3.44702 5.45508 3.44702 7.25V8.25C3.44702 10.0449 4.90207 11.5 6.697 11.5H8.4834C8.89761 11.5 9.2334 11.1642 9.2334 10.75C9.2334 10.3358 8.89761 10 8.4834 10H6.697C5.73051 10 4.94702 9.21651 4.94702 8.25V7.25C4.94702 6.2835 5.73052 5.5 6.69702 5.5H11.297C12.2634 5.5 13.047 6.28361 13.047 7.25019V7.75C13.047 8.16421 13.3828 8.5 13.797 8.5C14.2112 8.5 14.547 8.16421 14.547 7.75V7.25019C14.547 5.45533 13.092 4 11.297 4H6.69702ZM17.697 11.5C19.4919 11.5 20.947 10.0449 20.947 8.25V7.25C20.947 5.45508 19.492 4 17.697 4H15.9106C15.4964 4 15.1606 4.33579 15.1606 4.75C15.1606 5.16421 15.4964 5.5 15.9106 5.5H17.697C18.6635 5.5 19.447 6.28349 19.447 7.25V8.25C19.447 9.2165 18.6635 10 17.697 10H13.097C12.1306 10 11.347 9.21639 11.347 8.24981V7.75C11.347 7.33579 11.0112 7 10.597 7C10.1828 7 9.84702 7.33579 9.84702 7.75V8.24981C9.84702 10.0447 11.302 11.5 13.097 11.5H17.697Z" fill="black" fill-opacity="0.38"/>
</svg>
