<svg width="24" height="24" viewBox="0 0 24 24" fill="none" xmlns="http://www.w3.org/2000/svg">
<path fill-rule="evenodd" clip-rule="evenodd" d="M18.4747 4.75C17.6111 4.75 16.8975 5.35651 16.7347 6.15065C16.6515 6.55642 16.2551 6.81791 15.8494 6.73471C15.4436 6.65152 15.1821 6.25513 15.2653 5.84935C15.5704 4.36125 16.895 3.25 18.4747 3.25C20.2765 3.25 21.75 4.69798 21.75 6.5C21.75 8.29359 20.2902 9.73645 18.5 9.74991V9.75H18.4747H3C2.58579 9.75 2.25 9.41421 2.25 9C2.25 8.58579 2.58579 8.25 3 8.25H18.4747C19.4623 8.25 20.25 7.45941 20.25 6.5C20.25 5.54059 19.4623 4.75 18.4747 4.75ZM2.25 14C2.25 13.5858 2.58579 13.25 3 13.25H10.5C10.9142 13.25 11.25 13.5858 11.25 14C11.25 14.4142 10.9142 14.75 10.5 14.75H3C2.58579 14.75 2.25 14.4142 2.25 14ZM3 18.25C2.58579 18.25 2.25 18.5858 2.25 19C2.25 19.4142 2.58579 19.75 3 19.75H18C20.0711 19.75 21.75 18.0711 21.75 16C21.75 13.9289 20.0711 12.25 18 12.25C15.9289 12.25 14.25 13.9289 14.25 16C14.25 16.4142 14.5858 16.75 15 16.75C15.4142 16.75 15.75 16.4142 15.75 16C15.75 14.7574 16.7574 13.75 18 13.75C19.2426 13.75 20.25 14.7574 20.25 16C20.25 17.2426 19.2426 18.25 18 18.25H3Z" fill="white"/>
</svg>
