<svg width="25" height="24" viewBox="0 0 25 24" fill="none" xmlns="http://www.w3.org/2000/svg">
    <path fill-rule="evenodd" clip-rule="evenodd" d="M8 6a1.5 1.5 0 0 0 1.5 1.5H11V6a1.5 1.5 0 0 0-3 0zM6.5 6c0 .546.146 1.059.401 1.5H6a2 2 0 0 0-2 2V11c0 .507.189.97.5 1.323V17a4 4 0 0 0 4 4h8a4 4 0 0 0 4-4v-4.677c.311-.353.5-.816.5-1.323V9.5a2 2 0 0 0-2-2h-.901A3 3 0 1 0 12.5 6a3 3 0 1 0-6 0zm6.75 3v2.5H19a.5.5 0 0 0 .5-.5V9.5A.5.5 0 0 0 19 9h-5.75zm2.25-1.5A1.5 1.5 0 1 0 14 6v1.5h1.5zM11 9h.75v2.5H6a.5.5 0 0 1-.5-.5V9.5A.5.5 0 0 1 6 9h5zm2.25 10.5h3.25A2.5 2.5 0 0 0 19 17v-4h-5.75v6.5zm-1.5-6.5H6v4a2.5 2.5 0 0 0 2.5 2.5h3.25V13z" fill="#333"/>
</svg>
