<svg width="54" height="54" viewBox="0 0 54 54" fill="none" xmlns="http://www.w3.org/2000/svg">
<rect width="54" height="54" rx="22" fill="#129FCE" fill-opacity="0.04"/>
<path fill-rule="evenodd" clip-rule="evenodd" d="M21.123 19.8141C18.6732 19.8141 16.8914 21.891 16.8914 23.8752L16.8914 30.9715C16.8914 33.3251 18.813 35.1859 21.123 35.1859H33.4652C35.7742 35.1859 37.6968 33.3249 37.6968 30.9715V23.8752C37.6968 21.835 35.922 19.8141 33.4652 19.8141L21.123 19.8141ZM15 23.8752C15 21.005 17.5117 18 21.123 18L33.4652 18C37.0686 18 39.5882 20.934 39.5882 23.8752V30.9715C39.5882 34.2736 36.8734 37 33.4652 37H21.123C17.7135 37 15 34.2734 15 30.9715L15 23.8752Z" fill="#129FCE"/>
<path fill-rule="evenodd" clip-rule="evenodd" d="M19.3145 27.4977C19.3145 24.9234 21.4008 22.837 23.9752 22.837C26.5496 22.837 28.6359 24.9234 28.6359 27.4977C28.6359 30.0721 26.5496 32.1584 23.9752 32.1584C21.4008 32.1584 19.3145 30.0721 19.3145 27.4977ZM23.9752 24.5565C22.3505 24.5565 21.034 25.873 21.034 27.4977C21.034 29.1225 22.3505 30.439 23.9752 30.439C25.5999 30.439 26.9164 29.1225 26.9164 27.4977C26.9164 25.873 25.5999 24.5565 23.9752 24.5565Z" fill="#129FCE"/>
<path fill-rule="evenodd" clip-rule="evenodd" d="M30.778 24.2398C30.778 23.765 31.1629 23.3801 31.6378 23.3801H33.8097C34.2846 23.3801 34.6695 23.765 34.6695 24.2398C34.6695 24.7146 34.2846 25.0995 33.8097 25.0995H31.6378C31.1629 25.0995 30.778 24.7146 30.778 24.2398Z" fill="#129FCE"/>
</svg>
