<svg width="24" height="24" viewBox="0 0 24 24" fill="none" xmlns="http://www.w3.org/2000/svg">
<path fill-rule="evenodd" clip-rule="evenodd" d="M8.49595 8.05556H6.50298C4.84569 8.05556 3.50202 9.39876 3.50147 11.0561C3.50091 12.7141 4.8449 14.0586 6.50299 14.0586H8.49393L8.49595 8.05556ZM6.50298 6.55556C4.01746 6.55556 2.0023 8.57003 2.00147 11.0556C2.00063 13.5423 4.01627 15.5586 6.50299 15.5586H9.99342L9.99646 6.55556H6.50298Z" fill="#333333"/>
<path fill-rule="evenodd" clip-rule="evenodd" d="M10 7.46173V14.6465L15.3098 17.3982C16.3083 17.9156 17.5 17.191 17.5 16.0664V5.98261C17.5 4.85226 16.2972 4.12806 15.2982 4.65692L10 7.46173ZM8.5 15.5586L14.6197 18.73C16.6166 19.7648 19 18.3156 19 16.0664V5.98261C19 3.72191 16.5944 2.2735 14.5964 3.33122L8.5 6.55859V15.5586Z" fill="#333333"/>
<path fill-rule="evenodd" clip-rule="evenodd" d="M7.08537 14.9048L7.84356 19.0451C7.86531 19.1638 7.96877 19.25 8.08947 19.25L8.25602 19.25C8.39409 19.25 8.50602 19.1381 8.50602 19L8.50602 15.1667L10.006 15.1667L10.006 19C10.006 19.9665 9.22252 20.75 8.25602 20.75L8.08947 20.75C7.24456 20.75 6.5203 20.1463 6.3681 19.3153L5.60991 15.175L7.08537 14.9048Z" fill="#333333"/>
<path fill-rule="evenodd" clip-rule="evenodd" d="M20.25 11C20.25 10.3096 19.6904 9.75 19 9.75V8.25C20.5188 8.25 21.75 9.48122 21.75 11C21.75 12.5188 20.5188 13.75 19 13.75V12.25C19.6904 12.25 20.25 11.6904 20.25 11Z" fill="#333333"/>
</svg>
