<svg width="24" height="24" viewBox="0 0 24 24" fill="none" xmlns="http://www.w3.org/2000/svg">
<path d="M14.2288 20.8563C13.4152 22.3421 10.669 22.3421 9.77136 20.8563" stroke="black" stroke-opacity="0.8" stroke-width="1.5" stroke-linecap="round" stroke-linejoin="round"/>
<path fill-rule="evenodd" clip-rule="evenodd" d="M12.0002 2.27646C7.89326 2.27646 4.56397 5.60575 4.56397 9.71264V16.3542C4.44514 16.3237 4.33297 16.2934 4.22779 16.2637C3.82922 16.1509 3.41469 16.3826 3.30191 16.7811C3.18912 17.1797 3.42079 17.5942 3.81935 17.707C6.56195 18.4831 13.6238 19.5625 20.1808 17.707C20.5793 17.5942 20.811 17.1797 20.6982 16.7811C20.5854 16.3826 20.1709 16.1509 19.7724 16.2637C19.6605 16.2953 19.5485 16.3261 19.4363 16.3559V9.71264C19.4363 5.60575 16.107 2.27646 12.0002 2.27646ZM17.9363 16.7026V9.71264C17.9363 6.43418 15.2786 3.77646 12.0002 3.77646C8.72169 3.77646 6.06397 6.43418 6.06397 9.71264V16.6805C8.90556 17.2059 13.4449 17.5911 17.9363 16.7026Z" fill="black" fill-opacity="0.8"/>
</svg>
