<svg width="25" height="24" viewBox="0 0 25 24" fill="none" xmlns="http://www.w3.org/2000/svg">
    <path fill-rule="evenodd" clip-rule="evenodd" d="M12.75 3.5h-1a2 2 0 0 0-2 2v1a2 2 0 0 0 2 2h1a2 2 0 0 0 2-2v-1a2 2 0 0 0-2-2zm-1-1.5a3.5 3.5 0 0 0-3.5 3.5v1a3.5 3.5 0 0 0 3.5 3.5h1a3.5 3.5 0 0 0 3.5-3.5v-1a3.5 3.5 0 0 0-3.5-3.5h-1zM8.25 13.5A4.25 4.25 0 0 0 4 17.75v3a.75.75 0 0 1-1.5 0v-3A5.75 5.75 0 0 1 8.25 12h5a.75.75 0 1 1 0 1.5h-5zM19 13a.75.75 0 0 1 .75.75V21a.75.75 0 0 1-1.5 0v-7.25A.75.75 0 0 1 19 13z" fill="#333"/>
    <path fill-rule="evenodd" clip-rule="evenodd" d="M23.25 17.5a.75.75 0 0 1-.75.75h-7a.75.75 0 0 1 0-1.5h7a.75.75 0 0 1 .75.75z" fill="#333"/>
</svg>
