<svg width="54" height="54" viewBox="0 0 54 54" fill="none" xmlns="http://www.w3.org/2000/svg">
<rect width="54" height="54" rx="22" fill="#129FCE" fill-opacity="0.04"/>
<path d="M20.6945 16H34.1389C35.2435 16 36.1389 16.8954 36.1389 18V37C36.1389 38.1046 35.2435 39 34.1389 39H20.6945C19.5899 39 18.6945 38.1046 18.6945 37V18C18.6945 16.8954 19.5899 16 20.6945 16Z" stroke="#129FCE" stroke-width="2" stroke-linecap="round"/>
<path d="M17 21.9445H20.4722" stroke="#129FCE" stroke-width="2" stroke-linecap="round"/>
<path d="M17 25.4166H20.4722" stroke="#129FCE" stroke-width="2" stroke-linecap="round"/>
<path d="M17 28.8889H20.4722" stroke="#129FCE" stroke-width="2" stroke-linecap="round"/>
<path d="M23.9445 21.3555C23.9445 20.9137 24.3026 20.5555 24.7445 20.5555H30.0889C30.5307 20.5555 30.8889 20.9137 30.8889 21.3555V23.9221C30.8889 24.364 30.5307 24.7221 30.0889 24.7221H24.7445C24.3026 24.7221 23.9445 24.364 23.9445 23.9221V21.3555Z" stroke="#129FCE" stroke-width="2"/>
</svg>
