<svg width="20" height="17" viewBox="0 0 20 17" fill="none" xmlns="http://www.w3.org/2000/svg">
<path fill-rule="evenodd" clip-rule="evenodd" d="M19.25 7.43572H2.54956L8.70495 1.28033C8.99784 0.987437 8.99784 0.512563 8.70495 0.21967C8.41206 -0.0732234 7.93718 -0.0732231 7.64429 0.21967L0.21967 7.64429C0.0718175 7.79214 -0.0013991 7.98637 2.02637e-05 8.18015L0 8.18572C0 8.43187 0.118578 8.65032 0.301727 8.78707L7.65496 16.1403C7.94786 16.4332 8.42273 16.4332 8.71562 16.1403C9.00852 15.8474 9.00852 15.3725 8.71562 15.0796L2.5717 8.93572H19.25C19.6642 8.93572 20 8.59993 20 8.18572C20 7.77151 19.6642 7.43572 19.25 7.43572Z" fill="#333333"/>
</svg>
