<svg width="24" height="24" viewBox="0 0 24 24" fill="none" xmlns="http://www.w3.org/2000/svg">
    <path fill-rule="evenodd" clip-rule="evenodd" d="M3 12.014C3 7.272 6.789 3 12.018 3 17.13 3 21 7.191 21 11.986 21 17.549 16.464 21 12 21c-1.476 0-3.114-.397-4.428-1.172-.459-.28-.846-.486-1.341-.324l-1.818.54c-.459.145-.873-.216-.738-.703l.603-2.018a.944.944 0 0 0-.063-.812C3.441 15.087 3 13.528 3 12.014zm7.83 0c0 .64.513 1.153 1.152 1.162.639 0 1.152-.523 1.152-1.153a1.15 1.15 0 0 0-1.152-1.154 1.147 1.147 0 0 0-1.152 1.145zm4.149.009c0 .63.513 1.153 1.152 1.153.639 0 1.152-.523 1.152-1.153a1.15 1.15 0 0 0-1.152-1.154 1.15 1.15 0 0 0-1.152 1.154zm-7.146 1.153c-.63 0-1.152-.523-1.152-1.153 0-.64.513-1.154 1.152-1.154a1.15 1.15 0 0 1 1.152 1.154c0 .63-.513 1.144-1.152 1.153z" fill="#000" fill-opacity=".38"/>
</svg>
