<svg width="18" height="18" viewBox="0 0 18 18" fill="none" xmlns="http://www.w3.org/2000/svg">
<path fill-rule="evenodd" clip-rule="evenodd" d="M4.5 3C4.5 3.82843 5.17157 4.5 6 4.5H7.5V3C7.5 2.17157 6.82843 1.5 6 1.5C5.17157 1.5 4.5 2.17157 4.5 3ZM3 3C3 3.54643 3.14609 4.05874 3.40135 4.5H2.5C1.39543 4.5 0.5 5.39543 0.5 6.5V8C0.5 8.50722 0.688818 8.97035 1 9.32291V10V14C1 16.2091 2.79086 18 5 18L8.25 18H9.75L13 18C15.2091 18 17 16.2091 17 14V10V9.32291C17.3112 8.97035 17.5 8.50722 17.5 8V7.25V6.5C17.5 5.39543 16.6046 4.5 15.5 4.5H14.5987C14.8539 4.05874 15 3.54643 15 3C15 1.34315 13.6569 0 12 0C10.3431 0 9 1.34315 9 3C9 1.34315 7.65685 0 6 0C4.34315 0 3 1.34315 3 3ZM9.75 6V8.5H15.5C15.7761 8.5 16 8.27614 16 8V7.25V6.5C16 6.22386 15.7761 6 15.5 6H12H10.5H9.75ZM12 4.5C12.8284 4.5 13.5 3.82843 13.5 3C13.5 2.17157 12.8284 1.5 12 1.5C11.1716 1.5 10.5 2.17157 10.5 3V4.5H12ZM7.5 6H8.25V8.5H2.5C2.22386 8.5 2 8.27614 2 8V6.5C2 6.22386 2.22386 6 2.5 6H6H7.5ZM9.75 16.5H13C14.3807 16.5 15.5 15.3807 15.5 14V10H9.75V16.5ZM8.25 10H2.5L2.5 14C2.5 15.3807 3.61929 16.5 5 16.5H8.25V10Z" fill="#333333"/>
</svg>
