<svg width="24" height="24" viewBox="0 0 24 24" fill="none" xmlns="http://www.w3.org/2000/svg">
    <path d="M17.71 2.79a5.842 5.842 0 0 0-1.86-.29A6.263 6.263 0 0 0 12 3.8c-.09-.07-.2-.13-.3-.19-.1-.06-.28-.21-.43-.29l-.38-.17c-.2-.11-.409-.19-.63-.26a.35.35 0 0 0-.09-.06h-.059A6.237 6.237 0 0 0 8.28 2.5h-.11c-.28 0-.559.02-.84.06h-.12a4.52 4.52 0 0 0-.889.21C2.59 3.99 1.26 8.04 2.39 11.58a12.933 12.933 0 0 0 3.011 4.8 38.094 38.094 0 0 0 6.369 4.96l.26.16.25-.15c2.281-1.43 4.4-3.09 6.331-4.96 1.349-1.35 2.379-3 3.009-4.81 1.111-3.54-.219-7.59-3.91-8.79z" fill="#F36B2B"/>
</svg>
