<svg width="60" height="60" viewBox="0 0 60 60" fill="none" xmlns="http://www.w3.org/2000/svg">
<g clip-path="url(#clip0_2134_184131)">
<ellipse cx="30.0372" cy="49.2535" rx="21.009" ry="3.05515" transform="rotate(-0.545239 30.0372 49.2535)" fill="black" fill-opacity="0.2"/>
<path d="M13.2887 37.3597C9.86062 33.9536 9.85173 28.4224 13.2688 25.0053L24.5825 13.6916C27.9996 10.2745 33.5487 10.2656 36.9768 13.6717L38.2273 14.9142C39.3047 15.9847 39.3075 17.7231 38.2335 18.797L18.4346 38.596C17.3606 39.67 15.6166 39.6728 14.5392 38.6023L13.2887 37.3597Z" fill="#282828" stroke="black" stroke-width="2.5"/>
<path d="M28.8635 15.8158C29.876 15.2336 31.0826 15.1321 31.9191 15.5367" stroke="white" stroke-opacity="0.3" stroke-width="2.5" stroke-linecap="round" stroke-linejoin="round"/>
<path d="M27.9648 45.5363L19.1379 38.2441L37.8829 19.4991L45.2268 28.2743C48.9667 32.743 48.6417 40.2351 44.5226 44.3542L44.5221 44.3546L44.5217 44.355L44.5213 44.3554L44.5209 44.3559L44.5205 44.3563L44.5201 44.3567L44.5197 44.3571L44.5192 44.3575L44.5188 44.3579L44.5184 44.3583L44.518 44.3588L44.5176 44.3592L44.5172 44.3596L44.5167 44.36L44.5163 44.3604L44.5159 44.3608L44.5155 44.3613L44.5151 44.3617L44.5147 44.3621L44.5143 44.3625L44.5138 44.3629L44.5134 44.3633L44.513 44.3637L44.5126 44.3642L44.5122 44.3646L44.5118 44.365L44.5114 44.3654L44.5109 44.3658L44.5105 44.3662L44.5101 44.3667L44.5097 44.3671L44.5093 44.3675L44.5089 44.3679L44.5084 44.3683L44.508 44.3687L44.5076 44.3691L44.5072 44.3696L44.5068 44.37L44.5064 44.3704L44.506 44.3708L44.5055 44.3712L44.5051 44.3716L44.5047 44.3721L44.5043 44.3725L44.5039 44.3729L44.5035 44.3733L44.503 44.3737L44.5026 44.3741L44.5022 44.3745L44.5018 44.375L44.5014 44.3754L44.501 44.3758L44.5006 44.3762L44.5001 44.3766L44.4997 44.377L44.4993 44.3775L44.4989 44.3779L44.4985 44.3783L44.4981 44.3787L44.4976 44.3791L44.4972 44.3795L44.4968 44.3799L44.4964 44.3804L44.496 44.3808L44.4956 44.3812L44.4951 44.3816L44.4947 44.382L44.4943 44.3824L44.4939 44.3829L44.4935 44.3833L44.4931 44.3837L44.4927 44.3841L44.4922 44.3845L44.4918 44.3849L44.4914 44.3854L44.491 44.3858L44.4906 44.3862L44.4902 44.3866L44.4897 44.387L44.4893 44.3874L44.4889 44.3878L44.4885 44.3883L44.4881 44.3887L44.4877 44.3891L44.4872 44.3895L44.4868 44.3899L44.4864 44.3903L44.486 44.3908L44.4856 44.3912L44.4852 44.3916L44.4847 44.392L44.4843 44.3924L44.4839 44.3928L44.4835 44.3933L44.4831 44.3937L44.4827 44.3941L44.4823 44.3945L44.4818 44.3949L44.4814 44.3953L44.481 44.3958L44.4806 44.3962L44.4802 44.3966L44.4798 44.397L44.4793 44.3974L44.4789 44.3978L44.4785 44.3983L44.4781 44.3987L44.4777 44.3991L44.4773 44.3995L44.4768 44.3999L44.4764 44.4003L44.476 44.4008L44.4756 44.4012L44.4752 44.4016L44.4748 44.402L44.4743 44.4024L44.4739 44.4028L44.4735 44.4033L44.4731 44.4037L44.4727 44.4041L44.4723 44.4045L44.4718 44.4049L44.4714 44.4053L44.471 44.4057L44.4706 44.4062L44.4702 44.4066L44.4698 44.407L44.4693 44.4074L44.4689 44.4078L44.4685 44.4082L44.4681 44.4087L44.4677 44.4091L44.4673 44.4095L44.4668 44.4099L44.4664 44.4103L44.466 44.4107L44.4656 44.4112L44.4652 44.4116L44.4648 44.412L44.4643 44.4124L44.4639 44.4128L44.4635 44.4133L44.4631 44.4137L44.4627 44.4141L44.4623 44.4145L44.4618 44.4149L44.4614 44.4153L44.461 44.4158L44.4606 44.4162L44.4602 44.4166L44.4598 44.417L44.4593 44.4174L44.4589 44.4178L44.4585 44.4183L44.4581 44.4187L44.4577 44.4191L44.4573 44.4195L44.4568 44.4199L44.4564 44.4203L44.456 44.4208L44.4556 44.4212L44.4552 44.4216L44.4548 44.422L44.4543 44.4224L44.4539 44.4228L44.4535 44.4233L44.4531 44.4237L44.4527 44.4241L44.4522 44.4245L44.4518 44.4249L44.4514 44.4253L44.451 44.4258L44.4506 44.4262L44.4502 44.4266L44.4497 44.427L44.4493 44.4274L44.4489 44.4278L44.4485 44.4283L44.4481 44.4287L44.4477 44.4291L44.4472 44.4295L44.4468 44.4299L44.4464 44.4304L44.446 44.4308L44.4456 44.4312L44.4452 44.4316L44.4447 44.432L44.4443 44.4324L44.4439 44.4329L44.4435 44.4333L44.4431 44.4337L44.4427 44.4341L44.4422 44.4345L44.4418 44.4349L44.4414 44.4354L44.441 44.4358L44.4406 44.4362L44.4401 44.4366L44.4397 44.437L44.4393 44.4374L44.4389 44.4379L44.4385 44.4383L44.4381 44.4387L44.4376 44.4391L44.4372 44.4395L44.4368 44.44L44.4364 44.4404L44.436 44.4408L44.4356 44.4412L44.4351 44.4416L44.4347 44.442L44.4343 44.4425L44.4339 44.4429L44.4335 44.4433L44.433 44.4437L44.4326 44.4441L44.4322 44.4445L44.4318 44.445L44.4314 44.4454L44.431 44.4458L44.4305 44.4462L44.4301 44.4466L44.4297 44.4471L44.4293 44.4475L44.4289 44.4479L44.4284 44.4483L44.428 44.4487L44.4276 44.4491L44.4272 44.4496L44.4268 44.45L44.4264 44.4504L44.4259 44.4508L44.4255 44.4512L44.4251 44.4517L44.4247 44.4521L44.4243 44.4525L44.4238 44.4529L44.4234 44.4533L44.423 44.4537L44.4226 44.4542L44.4222 44.4546L44.4218 44.455L44.4213 44.4554L44.4209 44.4558L44.4205 44.4563L44.4201 44.4567L44.4197 44.4571L44.4193 44.4575L44.4188 44.4579L44.4184 44.4583L44.418 44.4588L44.4176 44.4592L44.4172 44.4596L44.4167 44.46L44.4163 44.4604L44.4159 44.4609L44.4155 44.4613L44.4151 44.4617L44.4146 44.4621L44.4142 44.4625L44.4138 44.4629L44.4134 44.4634L44.413 44.4638L44.4126 44.4642L44.4121 44.4646L44.4117 44.465L44.4113 44.4655L44.4109 44.4659L44.4105 44.4663L44.41 44.4667L44.4096 44.4671L44.4092 44.4675L44.4088 44.468L44.4084 44.4684L44.408 44.4688L44.4075 44.4692L44.4071 44.4696L44.4067 44.4701L44.4063 44.4705L44.4059 44.4709L44.4054 44.4713L44.405 44.4717L44.4046 44.4722L44.4042 44.4726L44.4038 44.473L44.4033 44.4734L44.4029 44.4738L44.4025 44.4742L44.4021 44.4747L44.4017 44.4751L44.4013 44.4755L44.4008 44.4759L44.4004 44.4763L44.4 44.4768L44.3996 44.4772L44.3992 44.4776L44.3987 44.478L44.3983 44.4784L44.3979 44.4789L44.3975 44.4793L44.3971 44.4797L44.3966 44.4801L44.3962 44.4805L44.3958 44.481L44.3954 44.4814L44.395 44.4818L44.3946 44.4822L44.3941 44.4826L44.3937 44.483L44.3933 44.4835L44.3929 44.4839L44.3925 44.4843L44.392 44.4847L44.3916 44.4851L44.3912 44.4856L44.3908 44.486L44.3904 44.4864L44.3899 44.4868L44.3895 44.4872L44.3891 44.4877L44.3887 44.4881L44.3883 44.4885L44.3878 44.4889L44.3874 44.4893L44.387 44.4898L44.3866 44.4902L44.3862 44.4906L44.3857 44.491L44.3853 44.4914L44.3849 44.4918L44.3845 44.4923L44.3841 44.4927L44.3837 44.4931L44.3832 44.4935L44.3828 44.4939L44.3824 44.4944L44.382 44.4948L44.3816 44.4952L44.3811 44.4956L44.3807 44.496L44.3803 44.4965L44.3799 44.4969L44.3795 44.4973L44.379 44.4977L44.3786 44.4981L44.3782 44.4986L44.3778 44.499L44.3774 44.4994L44.3769 44.4998L44.3765 44.5002L44.3761 44.5007L44.3757 44.5011L44.3753 44.5015L44.3748 44.5019L44.3744 44.5023L44.374 44.5028L44.3736 44.5032L44.3732 44.5036L44.3727 44.504L44.3723 44.5044L44.3719 44.5049L44.3715 44.5053L44.3711 44.5057L44.3706 44.5061L44.3702 44.5065L44.3698 44.507L44.3694 44.5074L44.369 44.5078L44.3685 44.5082L44.3681 44.5086L44.3677 44.5091L44.3673 44.5095L44.3669 44.5099L44.3664 44.5103L44.366 44.5107L44.3656 44.5112L44.3652 44.5116L44.3648 44.512L44.3643 44.5124L44.3639 44.5128L44.3635 44.5133L44.3631 44.5137L44.3627 44.5141L44.3622 44.5145L44.3618 44.5149L44.3614 44.5154L44.361 44.5158L44.3606 44.5162L44.3601 44.5166L44.3597 44.517L44.3593 44.5175L44.3589 44.5179L44.3585 44.5183L44.358 44.5187L44.3576 44.5191L44.3572 44.5196L44.3568 44.52L44.3564 44.5204L44.3559 44.5208L44.3555 44.5212L44.3551 44.5217L44.3547 44.5221L44.3543 44.5225L44.3538 44.5229L44.3534 44.5233L44.353 44.5238L44.3526 44.5242L44.3522 44.5246L44.3517 44.525L44.3513 44.5254L44.3509 44.5259L44.3505 44.5263L44.3501 44.5267L44.3496 44.5271L44.3492 44.5275L44.3488 44.528L44.3484 44.5284L44.348 44.5288L44.3475 44.5292L44.3471 44.5296L44.3467 44.5301L44.3463 44.5305L44.3458 44.5309L44.3454 44.5313L44.345 44.5317L44.3446 44.5322L44.3442 44.5326L44.3437 44.533L44.3433 44.5334L44.3429 44.5339L44.3425 44.5343L44.3421 44.5347L44.3416 44.5351L44.3412 44.5355L44.3408 44.536L44.3404 44.5364L44.34 44.5368L44.3395 44.5372L44.3391 44.5376L44.3387 44.5381L44.3383 44.5385L44.3379 44.5389L44.3374 44.5393L44.337 44.5397L44.3366 44.5402L44.3362 44.5406L44.3358 44.541L44.3353 44.5414L44.3349 44.5418L44.3345 44.5423L44.3341 44.5427L44.3336 44.5431L44.3332 44.5435L44.3328 44.544L44.3324 44.5444L44.332 44.5448L44.3315 44.5452L44.3311 44.5456L44.3307 44.5461L44.3303 44.5465L44.3299 44.5469L44.3294 44.5473L44.329 44.5477L44.3286 44.5482L44.3282 44.5486L44.3278 44.549L44.3273 44.5494L44.3269 44.5498L44.3265 44.5503L44.3261 44.5507L44.3256 44.5511L44.3252 44.5515L44.3248 44.552L44.3244 44.5524L44.324 44.5528L44.3235 44.5532L44.3231 44.5536L44.3227 44.5541L44.3223 44.5545L44.3219 44.5549L44.3214 44.5553L44.321 44.5557L44.3206 44.5562L44.3202 44.5566L44.3197 44.557L44.3193 44.5574L44.3189 44.5579L44.3185 44.5583L44.3181 44.5587L44.3176 44.5591L44.3172 44.5595L44.3168 44.56L44.3164 44.5604L44.316 44.5608L44.3155 44.5612L44.3151 44.5616L44.3147 44.5621L44.3143 44.5625L44.3138 44.5629L44.3134 44.5633L44.313 44.5638L44.3126 44.5642L44.3122 44.5646L44.3117 44.565L44.3113 44.5654L44.3109 44.5659L44.3105 44.5663L44.31 44.5667L44.3096 44.5671L44.3092 44.5676L44.3088 44.568L44.3084 44.5684L44.3079 44.5688L44.3075 44.5692L44.3071 44.5697L44.3067 44.5701L44.3063 44.5705L44.3058 44.5709L44.3054 44.5713L44.305 44.5718L44.3046 44.5722L44.3041 44.5726L44.3037 44.573L44.3033 44.5735L44.3029 44.5739L44.3025 44.5743L44.302 44.5747L44.3016 44.5751L44.3012 44.5756L44.3008 44.576L44.3004 44.5764L44.2999 44.5768L44.2995 44.5773L44.2991 44.5777L44.2987 44.5781L44.2982 44.5785L44.2978 44.5789L44.2974 44.5794L44.297 44.5798L44.2966 44.5802L44.2961 44.5806L44.2957 44.581L44.2953 44.5815L44.2949 44.5819L44.2944 44.5823L44.294 44.5827L44.2936 44.5832L44.2932 44.5836L44.2928 44.584L44.2923 44.5844L44.2919 44.5848L44.2915 44.5853L44.2911 44.5857L44.2907 44.5861L44.2902 44.5865L44.2898 44.5869L44.2894 44.5874L44.289 44.5878L44.2886 44.5882L44.2881 44.5886L44.2877 44.589L44.2873 44.5895L44.2869 44.5899L44.2864 44.5903L44.286 44.5907L44.2856 44.5912L44.2852 44.5916L44.2848 44.592L44.2843 44.5924L44.2839 44.5928L44.2835 44.5933L44.2831 44.5937L44.2827 44.5941L44.2822 44.5945L44.2818 44.5949L44.2814 44.5954L44.281 44.5958L44.2806 44.5962L44.2801 44.5966L44.2797 44.597L44.2793 44.5975L44.2789 44.5979L44.2784 44.5983L44.278 44.5987L44.2776 44.5992L44.2772 44.5996L44.2768 44.6L44.2763 44.6004L44.2759 44.6008L44.2755 44.6013L44.2751 44.6017L44.2747 44.6021L44.2742 44.6025L44.2738 44.6029L44.2734 44.6034L44.273 44.6038L44.2726 44.6042L44.2721 44.6046L44.2717 44.605L44.2713 44.6055L44.2709 44.6059L44.2705 44.6063L44.27 44.6067L44.2696 44.6071L44.2692 44.6076L44.2688 44.608L44.2684 44.6084L44.2679 44.6088L44.2675 44.6092L44.2671 44.6097L44.2667 44.6101L44.2662 44.6105L44.2658 44.6109L44.2654 44.6114L44.265 44.6118L44.2646 44.6122L44.2641 44.6126L44.2637 44.613L44.2633 44.6135L44.2629 44.6139L44.2625 44.6143L44.262 44.6147L44.2616 44.6151L44.2612 44.6156L44.2608 44.616L44.2604 44.6164L44.2599 44.6168L44.2595 44.6172L44.2591 44.6177L44.2587 44.6181L44.2583 44.6185L44.2578 44.6189L44.2574 44.6193L44.257 44.6198L44.2566 44.6202L44.2562 44.6206L44.2557 44.621L44.2553 44.6214L44.2549 44.6219L44.2545 44.6223L44.2541 44.6227L44.2536 44.6231L44.2532 44.6235L44.2528 44.624L44.2524 44.6244L44.252 44.6248L44.2515 44.6252L44.2511 44.6256L44.2507 44.6261L44.2503 44.6265L44.2499 44.6269L44.2494 44.6273L44.249 44.6277L44.2486 44.6282L44.2482 44.6286L44.2478 44.629L44.2473 44.6294L44.2469 44.6298L44.2465 44.6303L44.2461 44.6307L44.2457 44.6311L44.2452 44.6315L44.2448 44.6319L44.2444 44.6324L44.244 44.6328L44.2436 44.6332L44.2431 44.6336L44.2427 44.634L44.2423 44.6345L44.2419 44.6349L44.2415 44.6353L44.241 44.6357L44.2406 44.6361L44.2402 44.6366L44.2398 44.637L44.2394 44.6374L44.2389 44.6378L44.2385 44.6382L44.2381 44.6387L44.2377 44.6391L44.2373 44.6395L44.2368 44.6399L44.2364 44.6403L44.236 44.6407L44.2356 44.6412L44.2352 44.6416L44.2348 44.642L44.2343 44.6424L44.2339 44.6428L44.2335 44.6433L44.2331 44.6437L44.2327 44.6441L44.2322 44.6445L44.2318 44.6449L44.2314 44.6454L44.231 44.6458L44.2306 44.6462L44.2301 44.6466L44.2297 44.647L44.2293 44.6475L44.2289 44.6479L44.2285 44.6483L44.228 44.6487L44.2276 44.6491L44.2272 44.6496L44.2268 44.65L44.2264 44.6504L44.2259 44.6508L44.2255 44.6512L44.2251 44.6517L44.2247 44.6521L44.2243 44.6525L44.2238 44.6529L44.2234 44.6533L44.223 44.6537L44.2226 44.6542L44.2222 44.6546L44.2218 44.655L44.2213 44.6554L44.2209 44.6558L44.2205 44.6563L44.2201 44.6567L44.2197 44.6571L44.2192 44.6575L44.2188 44.6579L44.2184 44.6584L44.218 44.6588L44.2176 44.6592L44.2171 44.6596L44.2167 44.66L44.2163 44.6604L44.2159 44.6609L44.2155 44.6613L44.2151 44.6617L44.2146 44.6621L44.2142 44.6625L44.2138 44.663L44.2134 44.6634L44.213 44.6638L44.2125 44.6642L44.2121 44.6646L44.2117 44.6651L44.2113 44.6655L44.2109 44.6659L44.2104 44.6663L44.21 44.6667L44.2096 44.6671L44.2092 44.6676L44.2088 44.668L44.2084 44.6684L44.2079 44.6688L44.2075 44.6692L44.2071 44.6697L44.2067 44.6701L44.2063 44.6705L44.2058 44.6709L44.2054 44.6713L44.205 44.6718L44.2046 44.6722L44.2042 44.6726L44.2037 44.673L44.2033 44.6734L44.2029 44.6738L44.2025 44.6743L44.2021 44.6747L44.2017 44.6751L44.2012 44.6755L44.2008 44.6759L44.2004 44.6764L44.2 44.6768L44.1996 44.6772L44.1991 44.6776L44.1987 44.678L44.1983 44.6784L44.1979 44.6789L44.1975 44.6793L44.1971 44.6797L44.1966 44.6801L44.1962 44.6805L44.1958 44.681L44.1954 44.6814L44.195 44.6818L44.1945 44.6822L44.1941 44.6826L44.1937 44.683L44.1933 44.6835L44.1929 44.6839L44.1925 44.6843L44.192 44.6847L44.1916 44.6851L44.1912 44.6856L44.1908 44.686L44.1904 44.6864L44.1899 44.6868L44.1895 44.6872L44.1891 44.6876L44.1887 44.6881L44.1883 44.6885L44.1879 44.6889L44.1874 44.6893L44.187 44.6897L44.1866 44.6902L44.1862 44.6906L44.1858 44.691L44.1854 44.6914L44.1849 44.6918L44.1845 44.6922L44.1841 44.6927L44.1837 44.6931L44.1833 44.6935L44.1828 44.6939L44.1824 44.6943L44.182 44.6948L44.1816 44.6952L44.1812 44.6956L44.1808 44.696L44.1803 44.6964L44.1799 44.6968L44.1795 44.6973L44.1791 44.6977L44.1787 44.6981L44.1782 44.6985L44.1778 44.6989L44.1774 44.6993L44.177 44.6998L44.1766 44.7002L44.1762 44.7006L44.1757 44.701L44.1753 44.7014L44.1749 44.7018L44.1745 44.7023L44.1741 44.7027L44.1737 44.7031L44.1732 44.7035L44.1728 44.7039L44.1724 44.7044L44.172 44.7048L44.1716 44.7052L44.1712 44.7056L44.1707 44.706L44.1703 44.7064L44.1699 44.7069L44.1695 44.7073L44.1691 44.7077L44.1686 44.7081L44.1682 44.7085L44.1678 44.7089L44.1674 44.7094L44.167 44.7098L44.1666 44.7102L44.1661 44.7106L44.1657 44.711L44.1653 44.7114L44.1649 44.7119L44.1645 44.7123L44.1641 44.7127L44.1636 44.7131L44.1632 44.7135L44.1628 44.714L44.1624 44.7144L44.162 44.7148L44.1616 44.7152L44.1611 44.7156L44.1607 44.716L44.1603 44.7165L44.1599 44.7169L44.1595 44.7173L44.1591 44.7177L44.1586 44.7181L44.1582 44.7185L44.1578 44.719L44.1574 44.7194L44.157 44.7198L44.1566 44.7202L44.1561 44.7206L44.1557 44.721L44.1553 44.7215L44.1549 44.7219L44.1545 44.7223L44.154 44.7227L44.1536 44.7231L44.1532 44.7235L44.1528 44.724L44.1524 44.7244L44.152 44.7248L44.1515 44.7252L44.1511 44.7256L44.1507 44.726L44.1503 44.7265L44.1499 44.7269L44.1495 44.7273L44.149 44.7277L44.1486 44.7281L44.1482 44.7285L44.1478 44.729L44.1474 44.7294L44.147 44.7298L44.1465 44.7302L44.1461 44.7306L44.1457 44.731L44.1453 44.7315L44.1449 44.7319L44.1445 44.7323L44.144 44.7327L44.1436 44.7331L44.1432 44.7335L44.1428 44.734L44.1424 44.7344L44.142 44.7348L44.1415 44.7352L44.1411 44.7356L44.1407 44.736L44.1403 44.7365L44.1399 44.7369L44.1395 44.7373L44.1391 44.7377L44.1386 44.7381L44.1382 44.7385L44.1378 44.739L44.1374 44.7394L44.137 44.7398L44.1366 44.7402L44.1361 44.7406L44.1357 44.741L44.1353 44.7415L44.1349 44.7419L44.1345 44.7423L44.1341 44.7427L44.1336 44.7431L44.1332 44.7435L44.1328 44.744L44.1324 44.7444L44.132 44.7448L44.1316 44.7452L44.1311 44.7456L44.1307 44.746L44.1303 44.7464L44.1299 44.7469L44.1295 44.7473L44.1291 44.7477L44.1286 44.7481L44.1282 44.7485L44.1278 44.7489L44.1274 44.7494L44.127 44.7498L44.1266 44.7502L44.1262 44.7506L44.1257 44.751L44.1253 44.7514L44.1249 44.7519L44.1245 44.7523L44.1241 44.7527L44.1237 44.7531L44.1232 44.7535L44.1228 44.7539L44.1224 44.7544L44.122 44.7548L44.1216 44.7552L44.1212 44.7556L44.1207 44.756L44.1203 44.7564L44.1199 44.7568L44.1195 44.7573L44.1191 44.7577L44.1187 44.7581L44.1183 44.7585L44.1178 44.7589L44.1174 44.7593L44.117 44.7598L44.1166 44.7602L44.1162 44.7606L44.1158 44.761L44.1153 44.7614L44.1149 44.7618L44.1145 44.7622L44.1141 44.7627L44.1137 44.7631L44.1133 44.7635L44.1128 44.7639L44.1124 44.7643L44.112 44.7647L44.1116 44.7652L44.1112 44.7656L44.1108 44.766L44.1104 44.7664L44.1099 44.7668L44.1095 44.7672L44.1091 44.7676L44.1087 44.7681L44.1083 44.7685L44.1079 44.7689L44.1074 44.7693L44.107 44.7697L44.1066 44.7701L44.1062 44.7706L44.1058 44.771L44.1054 44.7714L44.105 44.7718L44.1045 44.7722L44.1041 44.7726L44.1037 44.773L44.1033 44.7735L44.1029 44.7739L44.1025 44.7743L44.102 44.7747L44.1016 44.7751L44.1012 44.7755L44.1008 44.776L44.1004 44.7764L44.1 44.7768L44.0996 44.7772L44.0991 44.7776L44.0987 44.778L44.0983 44.7784L44.0979 44.7789L44.0975 44.7793L44.0971 44.7797L44.0967 44.7801L44.0962 44.7805L44.0958 44.7809L44.0954 44.7814L44.095 44.7818L44.0946 44.7822L44.0942 44.7826C39.975 48.9017 32.4599 49.2498 27.9648 45.5363Z" fill="#C18946" stroke="black" stroke-width="2.5"/>
<path d="M13.0323 14.8948C12.7736 13.8629 13.4033 12.818 14.4388 12.5609C15.4742 12.3038 16.5233 12.9319 16.7819 13.9639L17.3595 16.2684C17.6182 17.3003 16.9885 18.3453 15.953 18.6023C14.9176 18.8594 13.8685 18.2313 13.6099 17.1994L13.0323 14.8948Z" fill="black"/>
<path d="M40.845 30.5345C42.4504 32.153 43.4583 33.5758 43.6828 36.0634" stroke="white" stroke-width="2.5" stroke-linecap="round" stroke-linejoin="round"/>
</g>
<defs>
<clipPath id="clip0_2134_184131">
<rect width="60" height="60" fill="white"/>
</clipPath>
</defs>
</svg>
