<svg width="54" height="54" viewBox="0 0 54 54" fill="none" xmlns="http://www.w3.org/2000/svg">
<rect width="54" height="54" rx="22" fill="#129FCE" fill-opacity="0.04"/>
<path fill-rule="evenodd" clip-rule="evenodd" d="M32.2941 18.8529H22.4118C19.3417 18.8529 16.8529 21.3417 16.8529 24.4118V30.5882C16.8529 33.6583 19.3417 36.1471 22.4118 36.1471H32.2941C35.3642 36.1471 37.8529 33.6583 37.8529 30.5882V24.4118C37.8529 21.3417 35.3642 18.8529 32.2941 18.8529ZM22.4118 17C18.3184 17 15 20.3184 15 24.4118V30.5882C15 34.6816 18.3184 38 22.4118 38H32.2941C36.3875 38 39.7059 34.6816 39.7059 30.5882V24.4118C39.7059 20.3184 36.3875 17 32.2941 17H22.4118Z" fill="#129FCE"/>
<path fill-rule="evenodd" clip-rule="evenodd" d="M23.647 24.4117C23.9882 24.4117 24.2647 24.1351 24.2647 23.794C24.2647 23.4529 23.9882 23.1764 23.647 23.1764C23.3059 23.1764 23.0294 23.4529 23.0294 23.794C23.0294 24.1351 23.3059 24.4117 23.647 24.4117ZM23.647 26.2646C25.0115 26.2646 26.1176 25.1585 26.1176 23.794C26.1176 22.4295 25.0115 21.3234 23.647 21.3234C22.2826 21.3234 21.1765 22.4295 21.1765 23.794C21.1765 25.1585 22.2826 26.2646 23.647 26.2646Z" fill="#129FCE"/>
<path fill-rule="evenodd" clip-rule="evenodd" d="M19.0149 30.5883C19.0149 28.7121 20.5358 27.1912 22.412 27.1912H24.8825C26.7587 27.1912 28.2796 28.7121 28.2796 30.5883V32.4412C28.2796 32.9529 27.8648 33.3677 27.3531 33.3677C26.8415 33.3677 26.4267 32.9529 26.4267 32.4412V30.5883C26.4267 29.7355 25.7353 29.0442 24.8825 29.0442H22.412C21.5592 29.0442 20.8678 29.7355 20.8678 30.5883V32.4412C20.8678 32.9529 20.453 33.3677 19.9414 33.3677C19.4297 33.3677 19.0149 32.9529 19.0149 32.4412V30.5883Z" fill="#129FCE"/>
<path fill-rule="evenodd" clip-rule="evenodd" d="M30.1322 25.6471C30.1322 25.1354 30.547 24.7206 31.0587 24.7206H34.7646C35.2762 24.7206 35.691 25.1354 35.691 25.6471C35.691 26.1587 35.2762 26.5735 34.7646 26.5735H31.0587C30.547 26.5735 30.1322 26.1587 30.1322 25.6471Z" fill="#129FCE"/>
<path fill-rule="evenodd" clip-rule="evenodd" d="M30.1322 29.3529C30.1322 28.8412 30.547 28.4265 31.0587 28.4265H34.7646C35.2762 28.4265 35.691 28.8412 35.691 29.3529C35.691 29.8646 35.2762 30.2794 34.7646 30.2794H31.0587C30.547 30.2794 30.1322 29.8646 30.1322 29.3529Z" fill="#129FCE"/>
</svg>
