<svg width="24" height="24" viewBox="0 0 24 24" fill="none" xmlns="http://www.w3.org/2000/svg">
<path d="M12.75 2C12.75 1.58579 12.4142 1.25 12 1.25C11.5858 1.25 11.25 1.58579 11.25 2L12.75 2ZM11.25 22C11.25 22.4142 11.5858 22.75 12 22.75C12.4142 22.75 12.75 22.4142 12.75 22L11.25 22ZM11.25 2L11.25 22L12.75 22L12.75 2L11.25 2Z" fill="#E5E5E5"/>
<path d="M22 12.75C22.4142 12.75 22.75 12.4142 22.75 12C22.75 11.5858 22.4142 11.25 22 11.25L22 12.75ZM2 11.25C1.58579 11.25 1.25 11.5858 1.25 12C1.25 12.4142 1.58579 12.75 2 12.75L2 11.25ZM22 11.25L2 11.25L2 12.75L22 12.75L22 11.25Z" fill="#E5E5E5"/>
</svg>
