<svg width="20" height="20" viewBox="0 0 20 20" fill="none" xmlns="http://www.w3.org/2000/svg">
<path fill-rule="evenodd" clip-rule="evenodd" d="M13.0306 2.03033C13.3235 1.73744 13.3235 1.26256 13.0306 0.96967C12.7377 0.676777 12.2628 0.676777 11.9699 0.96967L10.4699 2.46967C10.177 2.76256 10.177 3.23744 10.4699 3.53033L11.9699 5.03033C12.2628 5.32322 12.7377 5.32322 13.0306 5.03033C13.3235 4.73744 13.3235 4.26256 13.0306 3.96967L12.8109 3.75H14.0002C16.3474 3.75 18.2502 5.65279 18.2502 8V12C18.2502 14.3472 16.3474 16.25 14.0002 16.25H11.0002C10.586 16.25 10.2502 16.5858 10.2502 17C10.2502 17.4142 10.586 17.75 11.0002 17.75H14.0002C17.1759 17.75 19.7502 15.1756 19.7502 12V8C19.7502 4.82436 17.1759 2.25 14.0002 2.25H12.8109L13.0306 2.03033ZM7.1039 17.75L6.88753 17.9528C6.58534 18.2361 6.57003 18.7108 6.85333 19.013C7.13663 19.3151 7.61125 19.3304 7.91344 19.0471L9.51344 17.5471C9.66468 17.4054 9.75048 17.2073 9.75048 17C9.75048 16.7927 9.66468 16.5946 9.51344 16.4528L7.91344 14.9528C7.61125 14.6695 7.13663 14.6849 6.85333 14.987C6.57003 15.2892 6.58534 15.7639 6.88753 16.0472L7.1039 16.25H6.00009C3.65288 16.25 1.75009 14.3472 1.75009 12V8C1.75009 5.65279 3.65288 3.75 6.00009 3.75H9.00009C9.4143 3.75 9.75009 3.41421 9.75009 3C9.75009 2.58578 9.4143 2.25 9.00009 2.25H6.00009C2.82445 2.25 0.250092 4.82436 0.250092 8V12C0.250092 15.1756 2.82445 17.75 6.00009 17.75H7.1039Z" fill="#333333"/>
</svg>
