<svg width="44" height="44" viewBox="0 0 44 44" fill="none" xmlns="http://www.w3.org/2000/svg">
<rect width="44" height="44" rx="16" fill="#F6F6F6"/>
<path fill-rule="evenodd" clip-rule="evenodd" d="M14.4697 14.4697C14.7626 14.1768 15.2374 14.1768 15.5303 14.4697L22 20.9393L28.4697 14.4697C28.7626 14.1768 29.2374 14.1768 29.5303 14.4697C29.8232 14.7626 29.8232 15.2374 29.5303 15.5303L23.0607 22L29.5303 28.4697C29.8232 28.7626 29.8232 29.2374 29.5303 29.5303C29.2374 29.8232 28.7626 29.8232 28.4697 29.5303L22 23.0607L15.5303 29.5303C15.2374 29.8232 14.7626 29.8232 14.4697 29.5303C14.1768 29.2374 14.1768 28.7626 14.4697 28.4697L20.9393 22L14.4697 15.5303C14.1768 15.2374 14.1768 14.7626 14.4697 14.4697Z" fill="#333333"/>
</svg>
