<svg width="24" height="24" viewBox="0 0 24 24" fill="none" xmlns="http://www.w3.org/2000/svg">
<path d="M15.8499 2.50083C16.4809 2.50083 17.1109 2.58983 17.7099 2.79083C21.4009 3.99083 22.7309 8.04083 21.6199 11.5808C20.9899 13.3898 19.9599 15.0408 18.6109 16.3898C16.6799 18.2598 14.5609 19.9198 12.2799 21.3498L12.0002 21.5008L11.9999 3.79983C13.1109 2.95083 14.4599 2.49083 15.8499 2.50083Z" fill="black" fill-opacity="0.38"/>
<path d="M8.15019 2.50083C7.51919 2.50083 6.88919 2.58983 6.29019 2.79083C2.59919 3.99083 1.26919 8.04083 2.38019 11.5808C3.01019 13.3898 4.04019 15.0408 5.38919 16.3898C7.32019 18.2598 9.43919 19.9198 11.7202 21.3498L12.0002 21.5008L11.9999 3.79983C10.8889 2.95083 9.54019 2.49083 8.15019 2.50083Z" fill="black" fill-opacity="0.38"/>
</svg>
