<svg width="32" height="32" viewBox="0 0 32 32" fill="none" xmlns="http://www.w3.org/2000/svg">
    <rect width="32" height="32" rx="13" fill="#3C3C3C"/>
    <path fill-rule="evenodd" clip-rule="evenodd" d="M13.879 7.695a3.544 3.544 0 0 1 4.258.034l4.804 4.286A2.573 2.573 0 0 1 24 14.038v5.526C24 21.467 22.359 23 20.348 23h-1.664a.73.73 0 0 1-.045-.001.73.73 0 0 1-.044.001h-6.943C9.642 23 8 21.467 8 19.564v-5.516c.008-.793.4-1.538 1.059-2.025l4.777-4.292a.642.642 0 0 1 .043-.036zm4.76 14.076a.658.658 0 0 1 .045-.002h1.664c1.306 0 2.355-.993 2.355-2.205V14.05a1.364 1.364 0 0 0-.577-1.078.665.665 0 0 1-.051-.041L17.27 8.645a2.193 2.193 0 0 0-2.564 0l-4.78 4.293a.638.638 0 0 1-.054.044 1.35 1.35 0 0 0-.575 1.076v5.506c0 1.212 1.048 2.205 2.355 2.205h.672v-3.487c0-.34.29-.615.649-.615.358 0 .649.275.649.615v3.487h4.973c.015 0 .03 0 .044.002z" fill="#fff"/>
</svg>
