<svg width="16" height="20" viewBox="0 0 16 20" fill="none" xmlns="http://www.w3.org/2000/svg">
<path d="M13.3618 10.6365C13.3725 9.86977 13.5736 9.11819 13.9464 8.4516C14.3192 7.78502 14.8517 7.22505 15.4943 6.82372C15.0859 6.23141 14.5472 5.7441 13.9211 5.40053C13.295 5.05697 12.5988 4.8666 11.8876 4.84456C10.3705 4.67962 8.90116 5.76623 8.1283 5.76623C7.35544 5.76623 6.14845 4.85911 4.8699 4.88336C4.04093 4.91199 3.23331 5.15792 2.52533 5.59732C1.81736 6.03673 1.23306 6.65468 0.829089 7.39128C-0.916997 10.4667 0.385413 14.9829 2.05994 17.4714C2.89959 18.6842 3.87758 20.0473 5.15614 19.9988C6.43469 19.9503 6.8736 19.1838 8.38592 19.1838C9.89824 19.1838 10.3276 19.9988 11.63 19.9648C12.9324 19.9308 13.8198 18.7424 14.626 17.5151C15.2287 16.649 15.6924 15.6911 16 14.6773C15.2188 14.3413 14.5522 13.779 14.0831 13.0605C13.6139 12.342 13.3631 11.499 13.3618 10.6365Z" fill="black" fill-opacity="0.38"/>
<path d="M10.9487 3.35886C11.7001 2.42545 12.0733 1.21948 11.988 0C10.8537 0.124579 9.80581 0.694375 9.05367 1.59559C8.68546 2.03528 8.40364 2.54719 8.22443 3.10185C8.04522 3.65651 7.97217 4.24296 8.00948 4.82742C8.57612 4.83341 9.13668 4.70439 9.64909 4.45004C10.1615 4.1957 10.6124 3.82264 10.968 3.35886" fill="black" fill-opacity="0.38"/>
</svg>
