<svg width="24" height="24" viewBox="0 0 24 24" fill="none" xmlns="http://www.w3.org/2000/svg">
<path fill-rule="evenodd" clip-rule="evenodd" d="M3 12.0135C3 7.27241 6.789 3 12.018 3C17.13 3 21 7.19129 21 11.9865C21 17.5478 16.464 21 12 21C10.524 21 8.886 20.6034 7.572 19.8282C7.113 19.5488 6.726 19.3415 6.231 19.5038L4.413 20.0446C3.954 20.1888 3.54 19.8282 3.675 19.3415L4.278 17.3225C4.377 17.0431 4.359 16.7456 4.215 16.5113C3.441 15.0871 3 13.5278 3 12.0135ZM10.83 12.0135C10.83 12.6535 11.343 13.1672 11.982 13.1763C12.621 13.1763 13.134 12.6535 13.134 12.0225C13.134 11.3826 12.621 10.8688 11.982 10.8688C11.352 10.8598 10.83 11.3826 10.83 12.0135ZM14.979 12.0226C14.979 12.6535 15.492 13.1763 16.131 13.1763C16.77 13.1763 17.283 12.6535 17.283 12.0226C17.283 11.3826 16.77 10.8688 16.131 10.8688C15.492 10.8688 14.979 11.3826 14.979 12.0226ZM7.83302 13.1763C7.20302 13.1763 6.68102 12.6535 6.68102 12.0225C6.68102 11.3826 7.19402 10.8688 7.83302 10.8688C8.47202 10.8688 8.98502 11.3826 8.98502 12.0225C8.98502 12.6535 8.47202 13.1672 7.83302 13.1763Z" fill="white"/>
</svg>
