<svg width="24" height="24" viewBox="0 0 24 24" fill="none" xmlns="http://www.w3.org/2000/svg">
<path fill-rule="evenodd" clip-rule="evenodd" d="M6 4.25C6.41421 4.25 6.75 4.58579 6.75 5V7.25H9C9.41421 7.25 9.75 7.58579 9.75 8C9.75 8.41421 9.41421 8.75 9 8.75H6.75V11C6.75 11.4142 6.41421 11.75 6 11.75C5.58579 11.75 5.25 11.4142 5.25 11V8.75H3C2.58579 8.75 2.25 8.41421 2.25 8C2.25 7.58579 2.58579 7.25 3 7.25H5.25V5C5.25 4.58579 5.58579 4.25 6 4.25ZM17.8211 5.25C16.4011 5.25 15.25 6.40111 15.25 7.82108V12.9997C14.6233 12.529 13.8442 12.25 13 12.25H12C9.92893 12.25 8.25 13.9289 8.25 16V17C8.25 19.0711 9.92893 20.75 12 20.75H13C15.0711 20.75 16.75 19.0711 16.75 17V16.5V16V7.82108C16.75 7.22954 17.2295 6.75 17.8211 6.75C17.9874 6.75 18.1514 6.78871 18.3001 6.86308L20.9156 8.17082C21.2861 8.35606 21.7366 8.20589 21.9218 7.83541C22.107 7.46493 21.9569 7.01442 21.5864 6.82918L18.9709 5.52144C18.6139 5.34293 18.2202 5.25 17.8211 5.25ZM15.25 16C15.25 14.7574 14.2426 13.75 13 13.75H12C10.7574 13.75 9.75 14.7574 9.75 16V17C9.75 18.2426 10.7574 19.25 12 19.25H13C14.2426 19.25 15.25 18.2426 15.25 17V16.5V16Z" fill="#333333"/>
</svg>
