<svg width="21" height="20" viewBox="0 0 21 20" fill="none" xmlns="http://www.w3.org/2000/svg">
<path fill-rule="evenodd" clip-rule="evenodd" d="M18.0617 2.02494C18.3624 1.74007 18.3753 1.26537 18.0904 0.964667C17.8055 0.663965 17.3308 0.651131 17.0301 0.936001L13.825 3.97239C13.6021 4.18355 13.5304 4.50925 13.6441 4.79448C13.7577 5.07971 14.0338 5.26686 14.3408 5.26686L16.4357 5.26686L14.6321 6.93992C14.3285 7.22162 14.3107 7.69616 14.5924 7.99983C14.8741 8.3035 15.3486 8.32131 15.6523 8.0396L18.857 5.0667C19.0831 4.85691 19.1578 4.53005 19.0451 4.24289C18.9324 3.95573 18.6554 3.76686 18.3469 3.76686L16.223 3.76686L18.0617 2.02494ZM4.40089 5.52503C5.28056 3.02784 7.70428 1.24939 10.5387 1.24939C11.2328 1.24939 11.9029 1.35609 12.5321 1.55427C12.9271 1.67872 13.1465 2.09988 13.0221 2.49496C12.8976 2.89003 12.4765 3.10942 12.0814 2.98496C11.5967 2.83227 11.0785 2.74939 10.5387 2.74939C8.21462 2.74939 6.27686 4.28713 5.71458 6.34726C5.63992 6.62081 5.41737 6.82886 5.13942 6.88496C3.5718 7.20133 2.41797 8.54702 2.41797 10.1309C2.41797 11.8663 3.805 13.3171 5.59954 13.4385C6.01281 13.4664 6.32517 13.8241 6.29721 14.2374C6.26925 14.6507 5.91157 14.963 5.4983 14.9351C2.95576 14.7631 0.917969 12.6942 0.917969 10.1309C0.917969 7.94951 2.39517 6.12525 4.40089 5.52503ZM18.4558 8.12944C18.8048 7.90633 19.2686 8.00838 19.4917 8.35737C19.9143 9.01851 20.1595 9.80144 20.1595 10.6391C20.1595 12.6733 18.7242 14.3586 16.8184 14.8205C16.4158 14.918 16.0104 14.6708 15.9128 14.2682C15.8152 13.8657 16.0625 13.4602 16.4651 13.3627C17.7387 13.054 18.6595 11.9401 18.6595 10.6391C18.6595 10.0983 18.502 9.59419 18.2279 9.16533C18.0048 8.81633 18.1068 8.35255 18.4558 8.12944ZM8.00146 11.2494C8.41568 11.2494 8.75146 11.5852 8.75146 11.9994V16.9994C8.75146 17.4136 8.41568 17.7494 8.00146 17.7494C7.58725 17.7494 7.25146 17.4136 7.25146 16.9994V11.9994C7.25146 11.5852 7.58725 11.2494 8.00146 11.2494ZM14.7515 11.9994C14.7515 11.5852 14.4157 11.2494 14.0015 11.2494C13.5873 11.2494 13.2515 11.5852 13.2515 11.9994V16.9994C13.2515 17.4136 13.5873 17.7494 14.0015 17.7494C14.4157 17.7494 14.7515 17.4136 14.7515 16.9994V11.9994ZM11.0015 13.2494C11.4157 13.2494 11.7515 13.5852 11.7515 13.9994V18.9994C11.7515 19.4136 11.4157 19.7494 11.0015 19.7494C10.5873 19.7494 10.2515 19.4136 10.2515 18.9994V13.9994C10.2515 13.5852 10.5873 13.2494 11.0015 13.2494Z" fill="#333333"/>
</svg>
