<svg width="20" height="26" viewBox="0 0 20 26" fill="none" xmlns="http://www.w3.org/2000/svg">
<path d="M0.75 9.57031C0.75 7.2231 2.65279 5.32031 5 5.32031H15C17.3472 5.32031 19.25 7.2231 19.25 9.57031V11.5703C19.25 11.7084 19.1381 11.8203 19 11.8203H1C0.861929 11.8203 0.75 11.7084 0.75 11.5703V9.57031Z" stroke="#F36B2B" stroke-width="1.5"/>
<path d="M2.34112 12.0879C2.32849 11.9419 2.44362 11.8164 2.59019 11.8164H17.4092C17.5558 11.8164 17.671 11.942 17.6583 12.0881L17.166 17.7451C16.8425 21.463 13.7301 24.3164 9.99813 24.3164C6.26467 24.3164 3.15147 21.4608 2.82988 17.7412L2.34112 12.0879Z" stroke="#F36B2B" stroke-width="1.5"/>
<path d="M9.874 0.642302C10.0879 0.287568 10.5488 0.17337 10.9035 0.387232C11.2583 0.601094 11.3725 1.06203 11.1586 1.41677L10.126 3.12957C9.91212 3.4843 9.45118 3.5985 9.09645 3.38464C8.74172 3.17078 8.62752 2.70984 8.84138 2.35511L9.874 0.642302Z" fill="#F36B2B"/>
</svg>
