<svg width="44" height="44" viewBox="0 0 44 44" fill="none" xmlns="http://www.w3.org/2000/svg">
<path d="M23.4764 13.3304L23.7777 12.8283L23.505 12.5556L24 12.0607L32.2731 20.3338L31.7782 20.8288L31.5055 20.5561L31.0034 20.8574L25.1698 24.3576L24.9319 24.5003L24.8441 24.7635L24.0663 27.097L23.9197 27.5367L24.2474 27.8645L24.4949 28.112L24 28.6069L20.364 24.9698L19.8431 24.4486L19.3128 24.9603L13.5088 30.5609L13.3934 30.4454L19.0856 24.7532L19.6159 24.2229L19.0856 23.6926L15.7268 20.3338L16.2218 19.8389L16.4693 20.0863L16.7971 20.4141L17.2368 20.2675L19.5703 19.4897L19.8335 19.4019L19.9762 19.164L23.4764 13.3304Z" fill="#F36B2B" stroke="#F36B2B" stroke-width="1.5"/>
</svg>
