<svg width="21" height="17" viewBox="0 0 21 17" fill="none" xmlns="http://www.w3.org/2000/svg">
<path fill-rule="evenodd" clip-rule="evenodd" d="M7 1.75C7.41421 1.75 7.75 1.41421 7.75 1C7.75 0.585786 7.41421 0.25 7 0.25H1C0.585786 0.25 0.25 0.585786 0.25 1C0.25 1.41421 0.585786 1.75 1 1.75L7 1.75ZM13.25 3.82108C13.25 2.40111 14.4011 1.25 15.8211 1.25C16.2202 1.25 16.6139 1.34293 16.9709 1.52144L19.5864 2.82918C19.9569 3.01442 20.107 3.46493 19.9218 3.83541C19.7366 4.20589 19.2861 4.35606 18.9156 4.17082L16.3001 2.86308C16.1514 2.78871 15.9874 2.75 15.8211 2.75C15.2295 2.75 14.75 3.22954 14.75 3.82108V12V12.5V13C14.75 15.0711 13.0711 16.75 11 16.75H10C7.92893 16.75 6.25 15.0711 6.25 13V12C6.25 9.92893 7.92893 8.25 10 8.25H11C11.8442 8.25 12.6233 8.52896 13.25 8.99973V3.82108ZM11 9.75C12.2426 9.75 13.25 10.7574 13.25 12V12.5V13C13.25 14.2426 12.2426 15.25 11 15.25H10C8.75736 15.25 7.75 14.2426 7.75 13V12C7.75 10.7574 8.75736 9.75 10 9.75H11ZM7.75 3.5C7.75 3.91421 7.41421 4.25 7 4.25L1 4.25C0.585786 4.25 0.25 3.91421 0.25 3.5C0.25 3.08579 0.585786 2.75 1 2.75L7 2.75C7.41421 2.75 7.75 3.08579 7.75 3.5ZM7 6.75C7.41421 6.75 7.75 6.41421 7.75 6C7.75 5.58579 7.41421 5.25 7 5.25L1 5.25C0.585786 5.25 0.25 5.58579 0.25 6C0.25 6.41421 0.585786 6.75 1 6.75L7 6.75Z" fill="#333333"/>
</svg>
