<svg width="24" height="24" viewBox="0 0 24 24" fill="none" xmlns="http://www.w3.org/2000/svg">
<path d="M15.8499 2.50114C16.4809 2.50114 17.1109 2.59014 17.7099 2.79114C21.4009 3.99114 22.7309 8.04114 21.6199 11.5811C20.9899 13.3901 19.9599 15.0411 18.6109 16.3901C16.6799 18.2601 14.5609 19.9201 12.2799 21.3501L12.0002 21.5011L11.9999 3.80014C13.1109 2.95114 14.4599 2.49114 15.8499 2.50114Z" fill="white"/>
<path d="M8.15019 2.50114C7.51919 2.50114 6.88919 2.59014 6.29019 2.79114C2.59919 3.99114 1.26919 8.04114 2.38019 11.5811C3.01019 13.3901 4.04019 15.0411 5.38919 16.3901C7.32019 18.2601 9.43919 19.9201 11.7202 21.3501L12.0002 21.5011L11.9999 3.80014C10.8889 2.95114 9.54019 2.49114 8.15019 2.50114Z" fill="white"/>
</svg>
