<svg width="20" height="20" viewBox="0 0 20 20" fill="none" xmlns="http://www.w3.org/2000/svg">
<path fill-rule="evenodd" clip-rule="evenodd" d="M18.2526 6.00571L17.6577 4.99429C17.1545 4.13846 16.0391 3.84323 15.1644 4.33429C14.7481 4.5746 14.2513 4.64278 13.7835 4.52379C13.3158 4.4048 12.9156 4.10842 12.6712 3.7C12.5139 3.4404 12.4294 3.14472 12.4262 2.84286C12.4404 2.35889 12.254 1.88991 11.9096 1.54275C11.5652 1.19558 11.092 0.999801 10.5978 1H9.39928C8.91516 0.999995 8.45099 1.18901 8.10948 1.52521C7.76798 1.86142 7.57729 2.3171 7.57962 2.79143C7.56527 3.77075 6.75085 4.55724 5.75121 4.55714C5.44312 4.55401 5.14134 4.47122 4.87638 4.31714C4.00169 3.82608 2.88637 4.12132 2.3831 4.97714L1.74447 6.00571C1.2418 6.86047 1.53903 7.95254 2.40934 8.44857C2.97506 8.76858 3.32355 9.35998 3.32355 10C3.32355 10.64 2.97506 11.2314 2.40934 11.5514C1.54013 12.0441 1.24258 13.1335 1.74447 13.9857L2.3481 15.0057C2.58391 15.4226 2.97955 15.7302 3.44748 15.8605C3.91541 15.9908 4.41705 15.9331 4.84138 15.7C5.25853 15.4615 5.75563 15.3962 6.22219 15.5185C6.68874 15.6408 7.08609 15.9407 7.32592 16.3514C7.48317 16.611 7.56767 16.9067 7.57087 17.2086C7.57087 18.198 8.38948 19 9.39928 19H10.5978C11.6042 19 12.4214 18.2032 12.4262 17.2171C12.4239 16.7413 12.6158 16.2843 12.9592 15.9479C13.3026 15.6114 13.769 15.4234 14.2546 15.4257C14.562 15.4338 14.8625 15.5162 15.1295 15.6657C16.0019 16.1582 17.1165 15.867 17.6227 15.0143L18.2526 13.9857C18.4964 13.5757 18.5633 13.0874 18.4386 12.6288C18.3138 12.1703 18.0076 11.7795 17.5877 11.5429C17.1679 11.3062 16.8617 10.9154 16.7369 10.4569C16.6121 9.99836 16.6791 9.51002 16.9229 9.1C17.0814 8.82879 17.3109 8.60391 17.5877 8.44857C18.4528 7.95281 18.7494 6.86712 18.2526 6.01429V6.00571Z" stroke="black" stroke-opacity="0.8" stroke-width="1.5" stroke-linecap="round" stroke-linejoin="round"/>
<circle cx="10" cy="10" r="2.5" stroke="black" stroke-opacity="0.8" stroke-width="1.5" stroke-linecap="round" stroke-linejoin="round"/>
</svg>
