<svg width="12" height="14" viewBox="0 0 12 14" fill="none" xmlns="http://www.w3.org/2000/svg">
<path fill-rule="evenodd" clip-rule="evenodd" d="M6.00035 0C4.1068 0 2.57178 1.38154 2.57178 3.08576V4.11087C1.05127 4.77114 0 6.18804 0 7.82943V9.88661C0 12.1589 2.01472 14.001 4.5 14.001H7.5C9.98528 14.001 12 12.1589 12 9.88661V7.82943C12 6.18829 10.9491 4.77157 9.42892 4.11118V3.08576C9.42892 1.38154 7.8939 0 6.00035 0ZM8.05749 3.74635V3.08576C8.05749 2.06323 7.13648 1.2343 6.00035 1.2343C4.86422 1.2343 3.94321 2.06323 3.94321 3.08576V3.74627C4.12565 3.72569 4.31147 3.71509 4.5 3.71509H7.5C7.68877 3.71509 7.87483 3.72572 8.05749 3.74635ZM6 6.62942C6.31066 6.62942 6.5625 6.85967 6.5625 7.14371V8.51516C6.5625 8.7992 6.31066 9.02945 6 9.02945C5.68934 9.02945 5.4375 8.7992 5.4375 8.51516V7.14371C5.4375 6.85967 5.68934 6.62942 6 6.62942Z" fill="#F36B2B"/>
</svg>
