<svg width="20" height="20" viewBox="0 0 20 20" fill="none" xmlns="http://www.w3.org/2000/svg">
<path fill-rule="evenodd" clip-rule="evenodd" d="M13.0305 0.96967C13.3234 1.26256 13.3234 1.73744 13.0305 2.03033L12.8108 2.25H14.0001C17.1758 2.25 19.7501 4.82436 19.7501 8V12C19.7501 15.1756 17.1758 17.75 14.0001 17.75H11.0001C10.5859 17.75 10.2501 17.4142 10.2501 17C10.2501 16.5858 10.5859 16.25 11.0001 16.25H14.0001C16.3474 16.25 18.2501 14.3472 18.2501 12V8C18.2501 5.65279 16.3474 3.75 14.0001 3.75H12.8108L13.0305 3.96967C13.3234 4.26256 13.3234 4.73744 13.0305 5.03033C12.7376 5.32322 12.2627 5.32322 11.9698 5.03033L10.4698 3.53033C10.1769 3.23744 10.1769 2.76256 10.4698 2.46967L11.9698 0.96967C12.2627 0.676777 12.7376 0.676777 13.0305 0.96967ZM6.88743 17.9528L7.1038 17.75H6C2.82436 17.75 0.25 15.1756 0.25 12V8C0.25 4.82436 2.82436 2.25 6 2.25H9C9.41421 2.25 9.75 2.58578 9.75 3C9.75 3.41421 9.41421 3.75 9 3.75H6C3.65279 3.75 1.75 5.65279 1.75 8V12C1.75 14.3472 3.65279 16.25 6 16.25H7.10381L6.88743 16.0472C6.58525 15.7639 6.56994 15.2892 6.85324 14.987C7.13654 14.6849 7.61116 14.6695 7.91335 14.9528L9.51335 16.4528C9.66459 16.5946 9.75039 16.7927 9.75039 17C9.75039 17.2073 9.66459 17.4054 9.51335 17.5471L7.91335 19.0471C7.61116 19.3304 7.13654 19.3151 6.85324 19.013C6.56994 18.7108 6.58525 18.2361 6.88743 17.9528ZM12.1553 13.094H8.17927V11.934H9.47527V8.63798L8.09927 8.94198V7.88598L10.2753 7.11798H11.0753V11.934H12.1553V13.094Z" fill="#129FCE"/>
</svg>
