<svg width="20" height="20" viewBox="0 0 20 20" fill="none" xmlns="http://www.w3.org/2000/svg">
<path fill-rule="evenodd" clip-rule="evenodd" d="M10.7511 1.19922C10.7511 0.785005 10.4153 0.449219 10.0011 0.449219C9.58685 0.449219 9.25107 0.785005 9.25107 1.19922V1.49552C7.67414 1.60807 6.02751 2.14247 4.58472 3.20007C2.3553 4.83428 0.686673 7.66135 0.450388 11.9142C0.429545 12.2894 0.689517 12.6221 1.05858 12.6925C1.42765 12.763 1.7919 12.5495 1.91073 12.193C1.98503 11.9702 2.44264 11.2392 3.64412 11.2392C4.89409 11.2392 5.72736 12.0322 5.95395 12.3721C6.09305 12.5808 6.32722 12.7061 6.57799 12.7061C6.82875 12.7061 7.06293 12.5808 7.20202 12.3721C7.35955 12.1358 8.02709 11.4946 9.25107 11.2976V16.8465C9.25107 17.2241 9.15522 17.5212 8.99704 17.7111C8.85892 17.8768 8.59826 18.0524 8.04516 18.0524C7.66761 18.0524 7.37042 17.9566 7.1806 17.7984C7.01485 17.6603 6.83924 17.3996 6.83924 16.8465C6.83924 16.4323 6.50346 16.0965 6.08924 16.0965C5.67503 16.0965 5.33924 16.4323 5.33924 16.8465C5.33924 17.7603 5.65262 18.4776 6.22033 18.9507C6.76398 19.4038 7.44475 19.5524 8.04516 19.5524C8.95898 19.5524 9.67628 19.239 10.1494 18.6713C10.6024 18.1277 10.7511 17.4469 10.7511 16.8465V11.2976C11.9748 11.4947 12.6422 12.1357 12.7997 12.3719C12.9243 12.5588 13.1262 12.68 13.3498 12.7022C13.5733 12.7243 13.7951 12.6451 13.954 12.4862C14.1563 12.2839 14.5455 11.9581 15.0108 11.6876C15.4868 11.4109 15.9621 11.2392 16.3575 11.2392C16.7348 11.2392 17.1131 11.398 17.4591 11.6476C17.8053 11.8972 18.0617 12.1971 18.1784 12.3721C18.3617 12.6471 18.7034 12.7697 19.0198 12.6739C19.3361 12.5781 19.5524 12.2866 19.5524 11.9561C19.5524 10.3701 19.2205 8.96985 18.6878 7.75532C18.5215 7.37599 18.0791 7.20336 17.6997 7.36973C17.3204 7.53611 17.1478 7.97849 17.3142 8.35782C17.5545 8.90578 17.7478 9.49996 17.8762 10.1421C17.446 9.91077 16.9317 9.73916 16.3575 9.73916C15.5794 9.73916 14.8323 10.0563 14.257 10.3908C13.9696 10.5578 13.705 10.741 13.4762 10.9181C12.7826 10.3286 11.614 9.73916 10.0008 9.73916C8.43876 9.73916 7.29354 10.292 6.59278 10.8623C5.95957 10.3039 4.95398 9.73916 3.64412 9.73916C3.07981 9.73916 2.59699 9.84407 2.18999 10.0114C2.72265 7.28298 3.99025 5.49566 5.47152 4.40986C7.30799 3.06369 9.54871 2.73831 11.3436 3.12345C11.7486 3.21035 12.1474 2.95248 12.2343 2.54749C12.3212 2.14249 12.0633 1.74373 11.6583 1.65683C11.3642 1.59373 11.061 1.54628 10.7511 1.51537V1.19922ZM15.5378 0.910236C15.4016 0.687547 15.1594 0.551678 14.8984 0.551514C14.6374 0.551349 14.3951 0.686912 14.2586 0.909429L12.9222 3.08867C12.9142 3.10159 12.9067 3.11475 12.8996 3.12813C12.5393 3.80433 12.3275 4.81701 12.5281 5.71248C12.6318 6.17517 12.8561 6.64818 13.2733 7.00523C13.6973 7.36808 14.2509 7.55151 14.8979 7.55151C15.4795 7.55151 16.0035 7.41704 16.4329 7.13438C16.8666 6.8489 17.1576 6.44207 17.3128 5.98142C17.615 5.0847 17.3991 4.02912 16.8844 3.11331C16.8799 3.10528 16.8752 3.09734 16.8704 3.08948L15.5378 0.910236ZM13.9919 5.38458C13.883 4.89853 14.0013 4.26262 14.2138 3.85167L14.897 2.73763L15.5832 3.85971C15.963 4.54116 16.0131 5.14123 15.8914 5.50236C15.8343 5.67164 15.7401 5.79463 15.6081 5.88148C15.4719 5.97115 15.25 6.05151 14.8979 6.05151C14.5414 6.05151 14.3538 5.95565 14.2486 5.86561C14.1366 5.76976 14.0438 5.61628 13.9919 5.38458Z" fill="#333333"/>
</svg>
