<svg width="19" height="19" viewBox="0 0 19 19" fill="none" xmlns="http://www.w3.org/2000/svg">
<path fill-rule="evenodd" clip-rule="evenodd" d="M17.4383 5.51481V5.51008C17.4419 4.3651 17.0971 3.67117 16.647 3.25192C16.1803 2.81715 15.3993 2.49118 14.1906 2.49118H5.74816C4.54547 2.49118 3.76284 2.81648 3.29252 3.25335C2.83868 3.67493 2.49121 4.37099 2.49121 5.51481V12.7123L3.09509 12.0078C4.09064 10.8463 5.84267 10.7205 6.99393 11.7279L7.97734 12.5884C8.49175 13.0385 9.27232 12.9919 9.72959 12.4839L11.4104 10.6163C12.5028 9.40246 14.4061 9.40246 15.4986 10.6163L17.4383 12.7715V5.51481ZM17.412 14.9278L17.3838 14.9532L14.3836 11.6197C13.8871 11.068 13.0219 11.068 12.5254 11.6197L10.8445 13.4873C9.83855 14.6051 8.12129 14.7075 6.98958 13.7172L6.00617 12.8568C5.48287 12.3989 4.68649 12.456 4.23397 12.984L2.55772 14.9396L2.52249 14.9094C2.61829 15.7503 2.92427 16.3031 3.30311 16.6619C3.77491 17.1087 4.5542 17.4383 5.74816 17.4383H14.1814C15.3875 17.4383 16.169 17.1114 16.638 16.6738C17.0181 16.3191 17.3232 15.7708 17.412 14.9278ZM5.74816 0.99118H14.1906C17.1279 0.99118 18.9475 2.58505 18.9383 5.51481V14.4055C18.9383 17.3352 17.1187 18.9383 14.1814 18.9383H5.74816C2.8201 18.9383 0.991211 17.3076 0.991211 14.3318V5.51481C0.991211 2.58505 2.8201 0.99118 5.74816 0.99118ZM6.47505 7.46768C7.02328 7.46768 7.46771 7.02325 7.46771 6.47502C7.46771 5.9268 7.02328 5.48237 6.47505 5.48237C5.92683 5.48237 5.4824 5.9268 5.4824 6.47502C5.4824 7.02325 5.92683 7.46768 6.47505 7.46768ZM6.47505 8.96768C7.85171 8.96768 8.96771 7.85168 8.96771 6.47502C8.96771 5.09837 7.85171 3.98237 6.47505 3.98237C5.0984 3.98237 3.9824 5.09837 3.9824 6.47502C3.9824 7.85168 5.0984 8.96768 6.47505 8.96768Z" fill="#333333"/>
</svg>
