<svg width="22" height="13" viewBox="0 0 22 13" fill="none" xmlns="http://www.w3.org/2000/svg">
<path fill-rule="evenodd" clip-rule="evenodd" d="M11 0.25C5.33908 0.25 0.75 4.83908 0.75 10.5V12C0.75 12.4142 1.08579 12.75 1.5 12.75C1.91421 12.75 2.25 12.4142 2.25 12V10.5C2.25 5.66751 6.16751 1.75 11 1.75C15.8325 1.75 19.75 5.66751 19.75 10.5V12C19.75 12.4142 20.0858 12.75 20.5 12.75C20.9142 12.75 21.25 12.4142 21.25 12V10.5C21.25 4.83908 16.6609 0.25 11 0.25ZM3.55005 10.75C3.55005 6.60786 6.90791 3.25 11.05 3.25C15.1922 3.25 18.55 6.60786 18.55 10.75V12C18.55 12.4142 18.2143 12.75 17.8 12.75C17.3858 12.75 17.05 12.4142 17.05 12V10.75C17.05 7.43629 14.3638 4.75 11.05 4.75C7.73634 4.75 5.05005 7.43629 5.05005 10.75V12C5.05005 12.4142 4.71426 12.75 4.30005 12.75C3.88584 12.75 3.55005 12.4142 3.55005 12V10.75ZM6.25 11C6.25 8.37665 8.37665 6.25 11 6.25C13.6234 6.25 15.75 8.37665 15.75 11V12C15.75 12.4142 15.4142 12.75 15 12.75C14.5858 12.75 14.25 12.4142 14.25 12V11C14.25 9.20507 12.7949 7.75 11 7.75C9.20507 7.75 7.75 9.20507 7.75 11V12C7.75 12.4142 7.41421 12.75 7 12.75C6.58579 12.75 6.25 12.4142 6.25 12V11Z" fill="#333333"/>
</svg>
