<svg width="24" height="24" viewBox="0 0 24 24" fill="none" xmlns="http://www.w3.org/2000/svg">
<path fill-rule="evenodd" clip-rule="evenodd" d="M2.00244 6.80282C2.00244 4.70258 3.68137 3 5.75244 3H9.75739C10.7519 3 11.7058 3.40065 12.409 4.11382L13.3107 5.02817H18.2546C20.3257 5.02817 22.0046 6.73075 22.0046 8.83099V11.4915C21.1138 10.5364 19.7865 10 18.5003 10C16.398 10 14.1859 11.4328 13.9496 13.7852C12.8077 14.6536 12 15.9875 12 17.5921V19.0614C12 19.7693 12.1511 20.4198 12.4178 21H6C3.79086 21 2 19.1839 2 16.9437L2.00244 6.80282Z" fill="#E5E5E5"/>
<path fill-rule="evenodd" clip-rule="evenodd" d="M18.5003 12C17.0801 12 15.9288 12.9867 15.9288 14.204V14.9361C14.7884 15.4077 14 16.4197 14 17.5921V19.0614C14 20.6843 15.511 22 17.375 22H19.625C21.489 22 23 20.6843 23 19.0614V17.5921C23 16.4199 22.2118 15.408 21.0717 14.9364V14.204C21.0717 12.9867 19.9204 12 18.5003 12ZM20.0431 14.6758V14.204C20.0431 13.4736 19.3524 12.8816 18.5003 12.8816C17.6482 12.8816 16.9574 13.4736 16.9574 14.204V14.6757C17.0942 14.661 17.2336 14.6535 17.375 14.6535H19.625C19.7666 14.6535 19.9061 14.661 20.0431 14.6758ZM18.5 16.735C18.733 16.735 18.9219 16.8994 18.9219 17.1023V18.0818C18.9219 18.2847 18.733 18.4492 18.5 18.4492C18.267 18.4492 18.0781 18.2847 18.0781 18.0818V17.1023C18.0781 16.8994 18.267 16.735 18.5 16.735Z" fill="#F36B2B"/>
</svg>
