<svg width="18" height="20" viewBox="0 0 18 20" fill="none" xmlns="http://www.w3.org/2000/svg">
<path fill-rule="evenodd" clip-rule="evenodd" d="M8.99967 0.25C9.41388 0.25 9.74967 0.585786 9.74967 1V2.69367L10.2414 2.20198C10.5343 1.90909 11.0091 1.90909 11.302 2.20198C11.5949 2.49487 11.5949 2.96975 11.302 3.26264L9.74967 4.81499V8.69654L13.1241 6.7483L13.6892 4.63938C13.7964 4.23928 14.2077 4.00185 14.6077 4.10905C15.0078 4.21626 15.2453 4.62751 15.1381 5.02761L14.9612 5.68764L16.4206 4.84507C16.7793 4.63796 17.238 4.76087 17.4451 5.11959C17.6522 5.47831 17.5293 5.937 17.1706 6.1441L15.7038 6.99094L16.3755 7.17092C16.7756 7.27812 17.0131 7.68937 16.9058 8.08947C16.7986 8.48957 16.3874 8.72701 15.9873 8.6198L13.8667 8.0516L10.4943 9.99869L14.0833 12.0708L16.204 11.5026C16.6041 11.3953 17.0153 11.6328 17.1225 12.0329C17.2297 12.433 16.9923 12.8442 16.5922 12.9514L15.9204 13.1315L17.1708 13.8534C17.5296 14.0605 17.6525 14.5192 17.4454 14.8779C17.2382 15.2366 16.7796 15.3596 16.4208 15.1524L15.1779 14.4349L15.3548 15.0947C15.462 15.4948 15.2245 15.9061 14.8244 16.0133C14.4243 16.1205 14.0131 15.8831 13.9059 15.483L13.3408 13.3742L9.74967 11.3008V15.4348L11.3021 16.9872C11.595 17.2801 11.595 17.755 11.3021 18.0479C11.0092 18.3408 10.5344 18.3408 10.2415 18.0479L9.74967 17.5561V19C9.74967 19.4142 9.41388 19.75 8.99967 19.75C8.58546 19.75 8.24967 19.4142 8.24967 19V17.5648L7.7666 18.0479C7.47371 18.3408 6.99884 18.3408 6.70594 18.0479C6.41305 17.755 6.41305 17.2801 6.70594 16.9872L8.24967 15.4435V11.2946L4.66973 13.3615L4.10148 15.4822C3.99428 15.8823 3.58303 16.1197 3.18292 16.0125C2.78283 15.9053 2.54539 15.4941 2.6526 15.094L2.83261 14.4222L1.58216 15.1441C1.22344 15.3512 0.764744 15.2283 0.557637 14.8696C0.350531 14.5109 0.473437 14.0522 0.832156 13.8451L2.07504 13.1275L1.41516 12.9507C1.01506 12.8435 0.777622 12.4322 0.884828 12.0321C0.992034 11.632 1.40329 11.3946 1.80339 11.5018L3.91216 12.0668L7.49427 9.99869L4.12888 8.05568L2.01996 8.62077C1.61986 8.72797 1.20861 8.49054 1.1014 8.09044C0.994197 7.69034 1.23163 7.27909 1.63173 7.17188L2.29177 6.99502L0.832378 6.15245C0.473659 5.94534 0.350752 5.48665 0.557859 5.12793C0.764966 4.76921 1.22366 4.6463 1.58238 4.85341L3.04914 5.70024L2.86917 5.02858C2.76196 4.62848 2.9994 4.21722 3.3995 4.11002C3.7996 4.00281 4.21085 4.24025 4.31806 4.64035L4.88626 6.76091L8.24967 8.70277V4.80648L6.70583 3.26264C6.41294 2.96975 6.41294 2.49487 6.70583 2.20198C6.99873 1.90909 7.4736 1.90909 7.76649 2.20198L8.24967 2.68516V1C8.24967 0.585786 8.58546 0.25 8.99967 0.25Z" fill="#333333"/>
</svg>
