<svg width="24" height="24" viewBox="0 0 24 24" fill="none" xmlns="http://www.w3.org/2000/svg">
<path fill-rule="evenodd" clip-rule="evenodd" d="M9 4.5H13C15.4853 4.5 17.5 6.51472 17.5 9V13C17.5 15.4853 15.4853 17.5 13 17.5H9C6.51472 17.5 4.5 15.4853 4.5 13V9C4.5 6.51472 6.51472 4.5 9 4.5ZM3 9C3 5.68629 5.68629 3 9 3H13C16.3137 3 19 5.68629 19 9V13C19 14.3865 18.5297 15.6632 17.7399 16.6792L21.5303 20.4697C21.8232 20.7626 21.8232 21.2374 21.5303 21.5303C21.2374 21.8232 20.7626 21.8232 20.4697 21.5303L16.6792 17.7399C15.6632 18.5297 14.3865 19 13 19H9C5.68629 19 3 16.3137 3 13V9Z" fill="black" fill-opacity="0.8"/>
</svg>
