<svg width="24" height="24" viewBox="0 0 24 24" fill="none" xmlns="http://www.w3.org/2000/svg">
<path fill-rule="evenodd" clip-rule="evenodd" d="M8.63804 6.14518C8.77619 5.92233 9.0518 5.75 9.39306 5.75C9.91641 5.75 10.2506 6.13385 10.2506 6.5C10.2506 6.86615 9.91641 7.25 9.39306 7.25V7.25225C9.37373 7.25076 9.35419 7.25 9.33447 7.25H3.00049C2.58627 7.25 2.25049 7.58579 2.25049 8C2.25049 8.41421 2.58627 8.75 3.00049 8.75H9.33447C9.35419 8.75 9.37373 8.74924 9.39306 8.74775V8.75C10.6453 8.75 11.7506 7.7907 11.7506 6.5C11.7506 5.2093 10.6453 4.25 9.39306 4.25C8.5443 4.25 7.7809 4.68097 7.36315 5.35482C7.1449 5.70688 7.25336 6.1692 7.60542 6.38744C7.95747 6.60569 8.41979 6.49723 8.63804 6.14518ZM15.2505 7.82108C15.2505 6.40111 16.4016 5.25 17.8216 5.25C18.2207 5.25 18.6144 5.34293 18.9714 5.52144L21.5869 6.82918C21.9574 7.01442 22.1075 7.46493 21.9223 7.83541C21.737 8.20589 21.2865 8.35606 20.9161 8.17082L18.3006 6.86308C18.1518 6.78871 17.9878 6.75 17.8216 6.75C17.23 6.75 16.7505 7.22954 16.7505 7.82108V16V16.5V17C16.7505 19.0711 15.0716 20.75 13.0005 20.75H12.0005C9.92942 20.75 8.25049 19.0711 8.25049 17V16C8.25049 13.9289 9.92942 12.25 12.0005 12.25H13.0005C13.8447 12.25 14.6237 12.529 15.2505 12.9997V7.82108ZM13.0005 13.75C14.2431 13.75 15.2505 14.7574 15.2505 16V16.5V17C15.2505 18.2426 14.2431 19.25 13.0005 19.25H12.0005C10.7578 19.25 9.75049 18.2426 9.75049 17V16C9.75049 14.7574 10.7578 13.75 12.0005 13.75H13.0005ZM7.75049 11C7.75049 11.4142 7.4147 11.75 7.00049 11.75L3.00049 11.75C2.58627 11.75 2.25049 11.4142 2.25049 11C2.25049 10.5858 2.58627 10.25 3.00049 10.25L7.00049 10.25C7.4147 10.25 7.75049 10.5858 7.75049 11Z" fill="#333333"/>
</svg>
