<svg width="24" height="24" fill="none" xmlns="http://www.w3.org/2000/svg">
    <path fill-rule="evenodd" clip-rule="evenodd" d="M6.25 7A2.25 2.25 0 0 1 8.5 4.75h2.512c.08 0 .16.004.238.013V7.2A2.75 2.75 0 0 0 14 9.95h3.72c.02.12.03.241.03.364V17a2.25 2.25 0 0 1-2.25 2.25h-7A2.25 2.25 0 0 1 6.25 17V7zm10.513 1.45L12.75 5.486V7.2c0 .69.56 1.25 1.25 1.25h2.763zM8.5 3.25A3.75 3.75 0 0 0 4.75 7v10a3.75 3.75 0 0 0 3.75 3.75h7A3.75 3.75 0 0 0 19.25 17v-6.686a3.75 3.75 0 0 0-1.522-3.017L13.24 3.983a3.75 3.75 0 0 0-2.228-.733H8.5z" fill="#000" fill-opacity=".8"/>
</svg>
