<svg width="22" height="24" viewBox="0 0 22 24" fill="none" xmlns="http://www.w3.org/2000/svg">
<path fill-rule="evenodd" clip-rule="evenodd" d="M20.2146 4.30566C20.2146 2.90052 18.9409 1.83914 17.5588 2.09255L10.0588 3.46769C8.9905 3.66357 8.2146 4.59466 8.2146 5.6808V9.93175L15.8403 7.9626C16.2414 7.85904 16.6505 8.1002 16.754 8.50126C16.8576 8.90232 16.6164 9.3114 16.2154 9.41496L8.2146 11.481V18.7056H8.21455L8.2146 18.7235V19.7235C8.2146 21.6565 6.6476 23.2235 4.7146 23.2235H3.7146C1.7816 23.2235 0.2146 21.6565 0.2146 19.7235V18.7235C0.2146 16.7905 1.7816 15.2235 3.7146 15.2235H4.7146C5.45822 15.2235 6.14768 15.4554 6.7146 15.8509V5.6808C6.7146 3.87057 8.00776 2.31875 9.78831 1.99229L17.2883 0.61715C19.5918 0.194799 21.7146 1.96376 21.7146 4.30566V16.1828H21.7127C21.714 16.2215 21.7146 16.2603 21.7146 16.2993V17.2993C21.7146 19.2323 20.1476 20.7993 18.2146 20.7993H17.2146C15.2816 20.7993 13.7146 19.2323 13.7146 17.2993V16.2993C13.7146 14.3663 15.2816 12.7993 17.2146 12.7993H18.2146C18.9582 12.7993 19.6477 13.0312 20.2146 13.4267V4.30566ZM17.2146 14.2993H18.2146C19.3192 14.2993 20.2146 15.1947 20.2146 16.2993V17.2993C20.2146 18.4039 19.3192 19.2993 18.2146 19.2993H17.2146C16.11 19.2993 15.2146 18.4039 15.2146 17.2993V16.2993C15.2146 15.1947 16.11 14.2993 17.2146 14.2993ZM3.7146 16.7235H4.7146C5.81917 16.7235 6.7146 17.6189 6.7146 18.7235V19.7235C6.7146 20.8281 5.81917 21.7235 4.7146 21.7235H3.7146C2.61003 21.7235 1.7146 20.8281 1.7146 19.7235V18.7235C1.7146 17.6189 2.61003 16.7235 3.7146 16.7235Z" fill="#129FCE"/>
</svg>
