<svg width="16" height="16" viewBox="0 0 16 16" fill="none" xmlns="http://www.w3.org/2000/svg">
<path fill-rule="evenodd" clip-rule="evenodd" d="M14.5 8C14.5 11.5899 11.5899 14.5 8 14.5C6.47537 14.5 5.07333 13.9751 3.96477 13.0961L13.0961 3.96477C13.9751 5.07333 14.5 6.47537 14.5 8ZM2.90409 12.0355L12.0355 2.90409C10.9269 2.025 9.52474 1.5 8 1.5C4.41015 1.5 1.5 4.41015 1.5 8C1.5 9.52474 2.025 10.9269 2.90409 12.0355ZM16 8C16 12.4183 12.4183 16 8 16C3.58172 16 0 12.4183 0 8C0 3.58172 3.58172 0 8 0C12.4183 0 16 3.58172 16 8Z" fill="#333333"/>
</svg>
