<svg width="18" height="18" viewBox="0 0 18 18" fill="none" xmlns="http://www.w3.org/2000/svg">
<path fill-rule="evenodd" clip-rule="evenodd" d="M16.5 9C16.5 13.1421 13.1421 16.5 9 16.5C4.85786 16.5 1.5 13.1421 1.5 9C1.5 4.85786 4.85786 1.5 9 1.5C13.1421 1.5 16.5 4.85786 16.5 9ZM18 9C18 13.9706 13.9706 18 9 18C4.02944 18 0 13.9706 0 9C0 4.02944 4.02944 0 9 0C13.9706 0 18 4.02944 18 9ZM6.19106 10.5278C5.93025 10.206 5.45796 10.1565 5.13616 10.4173C4.81437 10.6781 4.76493 11.1504 5.02574 11.4722C5.96194 12.6273 7.39464 13.3678 8.99974 13.3678C10.6048 13.3678 12.0375 12.6273 12.9737 11.4722C13.2345 11.1504 13.1851 10.6781 12.8633 10.4173C12.5415 10.1565 12.0692 10.206 11.8084 10.5278C11.1448 11.3466 10.1334 11.8678 8.99974 11.8678C7.86606 11.8678 6.85468 11.3466 6.19106 10.5278ZM6.89961 6.9C6.89961 7.39706 6.49667 7.8 5.99961 7.8C5.50255 7.8 5.09961 7.39706 5.09961 6.9C5.09961 6.40294 5.50255 6 5.99961 6C6.49667 6 6.89961 6.40294 6.89961 6.9ZM11.9 7.8C12.3971 7.8 12.8 7.39706 12.8 6.9C12.8 6.40294 12.3971 6 11.9 6C11.4029 6 11 6.40294 11 6.9C11 7.39706 11.4029 7.8 11.9 7.8Z" fill="#333333"/>
</svg>
