<svg width="16" height="12" viewBox="0 0 16 12" fill="none" xmlns="http://www.w3.org/2000/svg">
<path fill-rule="evenodd" clip-rule="evenodd" d="M0 0.75C0 0.335786 0.370523 0 0.827586 0H15.1724C15.6295 0 16 0.335786 16 0.75C16 1.16421 15.6295 1.5 15.1724 1.5H0.827586C0.370523 1.5 0 1.16421 0 0.75Z" fill="#333333"/>
<path fill-rule="evenodd" clip-rule="evenodd" d="M0 5.75C0 5.33579 0.370523 5 0.827586 5H15.1724C15.6295 5 16 5.33579 16 5.75C16 6.16421 15.6295 6.5 15.1724 6.5H0.827586C0.370523 6.5 0 6.16421 0 5.75Z" fill="#333333"/>
<path fill-rule="evenodd" clip-rule="evenodd" d="M0 10.75C0 10.3358 0.370523 10 0.827586 10H15.1724C15.6295 10 16 10.3358 16 10.75C16 11.1642 15.6295 11.5 15.1724 11.5H0.827586C0.370523 11.5 0 11.1642 0 10.75Z" fill="#333333"/>
</svg>
