<svg width="20" height="17" viewBox="0 0 20 17" fill="none" xmlns="http://www.w3.org/2000/svg">
<path fill-rule="evenodd" clip-rule="evenodd" d="M11.9654 2.8939C11.8581 3.294 11.4469 3.53144 11.0468 3.42423C10.6467 3.31703 10.4093 2.90578 10.5165 2.50568L10.9823 0.767009C11.0895 0.36691 11.5008 0.129473 11.9009 0.236679C12.301 0.343886 12.5384 0.755138 12.4312 1.15524L11.9654 2.8939ZM4.633 0.890932C4.99172 0.683825 5.45041 0.806732 5.65752 1.16545L6.55752 2.7243C6.76462 3.08302 6.64172 3.54171 6.283 3.74882C5.92428 3.95592 5.46559 3.83302 5.25848 3.4743L4.35848 1.91545C4.15137 1.55673 4.27428 1.09804 4.633 0.890932ZM6.2748 7.963C5.91977 9.28801 6.53259 10.646 7.68086 11.2829C8.03707 10.9488 8.46816 10.6904 8.94335 10.5314C9.45247 9.27001 10.5742 8.31936 11.9407 7.98204C11.6825 6.99581 10.9165 6.1735 9.86318 5.89125C8.30018 5.47245 6.69361 6.4 6.2748 7.963ZM4.82591 7.57478C4.2993 9.54011 5.18032 11.5494 6.85004 12.5355C6.7296 12.868 6.66375 13.2266 6.66375 13.6025C6.66375 15.359 8.09681 16.7332 9.82751 16.8468C9.84362 16.8478 9.85975 16.8484 9.8759 16.8484L16.1945 16.8543L16.2097 16.8545H16.3538H16.3545C18.008 16.8545 19.4225 15.5784 19.4225 13.9153C19.4225 12.5944 18.5269 11.515 17.3321 11.129C16.9217 9.35337 15.3431 8.03452 13.4524 7.86671C13.1358 6.26258 11.9394 4.89467 10.2514 4.44237C7.88821 3.80915 5.45913 5.21158 4.82591 7.57478ZM16.3545 15.3545H16.3551H16.3552C17.2618 15.3541 17.9225 14.6701 17.9225 13.9153C17.9225 13.2225 17.3704 12.5932 16.5763 12.4903C16.2274 12.4451 15.9569 12.1634 15.9257 11.8131C15.8059 10.4681 14.5945 9.34862 13.0431 9.34862C11.6747 9.34862 10.5628 10.2249 10.2445 11.3558C10.1678 11.6283 9.94436 11.8343 9.66662 11.8887C8.7782 12.0625 8.16375 12.7902 8.16375 13.6025C8.16375 14.4849 8.89331 15.2714 9.90336 15.3484L16.3545 15.3545ZM1.21383 6.27525C0.813732 6.16805 0.402479 6.40548 0.295273 6.80558C0.188067 7.20568 0.425504 7.61694 0.825603 7.72414L2.56427 8.19002C2.96437 8.29722 3.37562 8.05979 3.48283 7.65969C3.59003 7.25959 3.3526 6.84833 2.9525 6.74113L1.21383 6.27525ZM2.29014 13.731C1.93142 13.9381 1.47273 13.8152 1.26563 13.4565C1.05852 13.0978 1.18142 12.6391 1.54014 12.432L3.09899 11.532C3.45771 11.3249 3.9164 11.4478 4.12351 11.8065C4.33062 12.1652 4.20771 12.6239 3.84899 12.831L2.29014 13.731ZM14.2496 5.95966C14.4567 6.31838 14.9154 6.44129 15.2741 6.23418L16.833 5.33418C17.1917 5.12707 17.3146 4.66838 17.1075 4.30966C16.9004 3.95094 16.4417 3.82804 16.0829 4.03514L14.5241 4.93514C14.1654 5.14225 14.0425 5.60094 14.2496 5.95966Z" fill="#333333"/>
</svg>
