<svg width="20" height="20" viewBox="0 0 20 20" fill="none" xmlns="http://www.w3.org/2000/svg">
<path fill-rule="evenodd" clip-rule="evenodd" d="M13.0305 2.03033C13.3234 1.73744 13.3234 1.26256 13.0305 0.96967C12.7376 0.676777 12.2627 0.676777 11.9698 0.96967L10.4698 2.46967C10.1769 2.76256 10.1769 3.23744 10.4698 3.53033L11.9698 5.03033C12.2627 5.32322 12.7376 5.32322 13.0305 5.03033C13.3234 4.73744 13.3234 4.26256 13.0305 3.96967L12.8108 3.75H14.0001C16.3474 3.75 18.2501 5.65279 18.2501 8V12C18.2501 14.3472 16.3474 16.25 14.0001 16.25H11.0001C10.5859 16.25 10.2501 16.5858 10.2501 17C10.2501 17.4142 10.5859 17.75 11.0001 17.75H14.0001C17.1758 17.75 19.7501 15.1756 19.7501 12V8C19.7501 4.82436 17.1758 2.25 14.0001 2.25H12.8108L13.0305 2.03033ZM7.1038 17.75L6.88743 17.9528C6.58525 18.2361 6.56994 18.7108 6.85324 19.013C7.13654 19.3151 7.61116 19.3304 7.91335 19.0471L9.51335 17.5471C9.66459 17.4054 9.75039 17.2073 9.75039 17C9.75039 16.7927 9.66459 16.5946 9.51335 16.4528L7.91335 14.9528C7.61116 14.6695 7.13654 14.6849 6.85324 14.987C6.56994 15.2892 6.58525 15.7639 6.88743 16.0472L7.10381 16.25H6C3.65279 16.25 1.75 14.3472 1.75 12V8C1.75 5.65279 3.65279 3.75 6 3.75H9C9.41421 3.75 9.75 3.41421 9.75 3C9.75 2.58578 9.41421 2.25 9 2.25H6C2.82436 2.25 0.25 4.82436 0.25 8V12C0.25 15.1756 2.82436 17.75 6 17.75H7.1038Z" fill="#129FCE"/>
</svg>
