<svg width="14" height="18" viewBox="0 0 14 18" fill="none" xmlns="http://www.w3.org/2000/svg">
<path fill-rule="evenodd" clip-rule="evenodd" d="M0 3.16129C0 1.6915 1.27682 0.5 2.85185 0.5H11.1481C12.7232 0.5 14 1.6915 14 3.16129V14.7742C14 14.8172 13.996 14.8594 13.9883 14.9004C14.0305 15.1453 13.9585 15.4066 13.7722 15.5958L12.4288 16.9601C11.7201 17.6799 10.571 17.6799 9.86226 16.9601L9.06642 16.1519L8.27058 16.9601C7.56185 17.6799 6.41278 17.6799 5.70406 16.9601L4.90855 16.1522L4.11335 16.9598C3.40463 17.6796 2.25555 17.6796 1.54683 16.9598L0.309247 15.7029C0.146303 15.5374 0.0707718 15.3168 0.0826534 15.1001C0.0297756 15.0021 0 14.8914 0 14.7742V3.16129ZM9.65416 14.5226C9.67858 14.5421 9.70212 14.5632 9.72462 14.5861L10.9622 15.843C11.0634 15.9458 11.2276 15.9458 11.3288 15.843L12.4444 14.71V3.16129C12.4444 2.4932 11.8641 1.95161 11.1481 1.95161H2.85185C2.13593 1.95161 1.55556 2.4932 1.55556 3.16129V14.7344L2.64677 15.8427C2.74801 15.9455 2.91217 15.9455 3.01341 15.8427L4.35681 14.4783C4.66055 14.1698 5.15301 14.1698 5.45675 14.4783C5.47184 14.4936 5.48618 14.5094 5.49977 14.5257C5.52283 14.5443 5.54508 14.5644 5.56641 14.5861L6.80399 15.843C6.90524 15.9458 7.06939 15.9458 7.17064 15.843L8.51403 14.4786C8.81777 14.1701 9.31023 14.1701 9.61397 14.4786C9.62802 14.4929 9.64142 14.5076 9.65416 14.5226ZM3.11108 5.5561C3.11108 5.11984 3.45931 4.76617 3.88886 4.76617H5.96292C6.39248 4.76617 6.7407 5.11984 6.7407 5.5561C6.7407 5.99237 6.39248 6.34603 5.96292 6.34603H3.88886C3.45931 6.34603 3.11108 5.99237 3.11108 5.5561ZM3.88886 7.39929C3.45931 7.39929 3.11108 7.75295 3.11108 8.18922C3.11108 8.62549 3.45931 8.97915 3.88886 8.97915H9.07403C9.50358 8.97915 9.8518 8.62549 9.8518 8.18922C9.8518 7.75295 9.50358 7.39929 9.07403 7.39929H3.88886ZM3.11108 10.8223C3.11108 10.3861 3.45931 10.0324 3.88886 10.0324H9.07403C9.50358 10.0324 9.8518 10.3861 9.8518 10.8223C9.8518 11.2586 9.50358 11.6123 9.07403 11.6123H3.88886C3.45931 11.6123 3.11108 11.2586 3.11108 10.8223Z" fill="#333333"/>
</svg>
