<svg width="24" height="24" viewBox="0 0 24 24" fill="none" xmlns="http://www.w3.org/2000/svg">
<path fill-rule="evenodd" clip-rule="evenodd" d="M5.75244 3C3.68137 3 2.00244 4.70258 2.00244 6.80282L2 16.9437C2 19.1839 3.79086 21 6 21H12.0407C12.0139 20.8244 12 20.6446 12 20.4615C12 18.4949 13.0394 16.7711 14.5989 15.8095C14.3745 15.2995 14.25 14.7357 14.25 14.1429C14.25 11.8548 16.1048 10 18.3929 10H18.6071C20.0132 10 21.2556 10.7005 22.0046 11.7714V8.83099C22.0046 6.73075 20.3257 5.02817 18.2546 5.02817H13.3107L12.409 4.11382C11.7058 3.40065 10.7519 3 9.75739 3H5.75244Z" fill="#F6CA42"/>
<rect x="16.25" y="12" width="4.5" height="4.28571" rx="2.14286" fill="#129FCE"/>
<path d="M14 20.4615C14 18.5498 15.5498 17 17.4615 17H19.5385C21.4502 17 23 18.5498 23 20.4615C23 21.3112 22.3112 22 21.4615 22H15.5385C14.6888 22 14 21.3112 14 20.4615Z" fill="#129FCE"/>
</svg>
