<svg width="18" height="18" viewBox="0 0 18 18" fill="none" xmlns="http://www.w3.org/2000/svg">
<path fill-rule="evenodd" clip-rule="evenodd" d="M1.75 7C1.75 4.10051 4.10051 1.75 7 1.75H8C8.41421 1.75 8.75 1.41421 8.75 1C8.75 0.585786 8.41421 0.25 8 0.25H7C3.27208 0.25 0.25 3.27208 0.25 7V11C0.25 14.7279 3.27208 17.75 7 17.75H11C14.7279 17.75 17.75 14.7279 17.75 11V10C17.75 9.58579 17.4142 9.25 17 9.25C16.5858 9.25 16.25 9.58579 16.25 10V11C16.25 13.8995 13.8995 16.25 11 16.25H7C4.10051 16.25 1.75 13.8995 1.75 11V7ZM12 0.25C11.5858 0.25 11.25 0.585786 11.25 1C11.25 1.41421 11.5858 1.75 12 1.75H15C15.0601 1.75 15.1191 1.75424 15.1769 1.76242L8.46967 8.46967C8.17678 8.76256 8.17678 9.23744 8.46967 9.53033C8.76256 9.82322 9.23744 9.82322 9.53033 9.53033L16.2376 2.82308C16.2458 2.88088 16.25 2.93994 16.25 3V6C16.25 6.41421 16.5858 6.75 17 6.75C17.4142 6.75 17.75 6.41421 17.75 6V3C17.75 1.48122 16.5188 0.25 15 0.25H12Z" fill="#333333"/>
</svg>
