<svg width="24" height="24" viewBox="0 0 24 24" fill="none" xmlns="http://www.w3.org/2000/svg">
<ellipse cx="11.9999" cy="20.2798" rx="8.68915" ry="1.22125" fill="#E5E5E5"/>
<path d="M15.0962 18.7946C13.827 20.0638 11.7692 20.0638 10.5 18.7946L6.25736 14.5519C4.98815 13.2827 4.98815 11.2249 6.25736 9.95573L6.96446 9.24862C7.06209 9.15099 7.22039 9.15099 7.31802 9.24862L15.8033 17.7339C15.9009 17.8315 15.9009 17.9898 15.8033 18.0875L15.0962 18.7946Z" fill="#282828" stroke="black" stroke-width="1.5"/>
<path d="M7.38825 13.001C7.16206 12.6076 7.12309 12.1392 7.28103 11.8149" stroke="white" stroke-opacity="0.3" stroke-linecap="round" stroke-linejoin="round"/>
<path d="M15.3856 16.9661C15.2998 17.0681 15.1451 17.0747 15.0509 16.9805L8.07137 10.0009C7.97716 9.90673 7.98377 9.75206 8.08569 9.66623L11.0146 7.19979C12.9417 5.577 15.7901 5.69885 17.5715 7.48029C19.353 9.26174 19.4748 12.1102 17.852 14.0372L15.3856 16.9661Z" fill="#C18946" stroke="black" stroke-width="1.5"/>
<path d="M6.26022 19.3392C5.85816 19.4388 5.45148 19.1936 5.35186 18.7915C5.25225 18.3895 5.49744 17.9828 5.89949 17.8832L6.79649 17.661C7.19855 17.5613 7.60523 17.8065 7.70484 18.2086C7.80445 18.6106 7.55927 19.0173 7.15721 19.1169L6.26022 19.3392Z" fill="black"/>
<path d="M11.9494 8.96457C12.7891 8.32376 13.1376 8.02624 13.9662 8.03727" stroke="white" stroke-linecap="round" stroke-linejoin="round"/>
</svg>
