<svg width="32" height="32" viewBox="0 0 32 32" fill="none" xmlns="http://www.w3.org/2000/svg">
<path d="M16 28C9.37258 28 4 22.6274 4 16C4 9.37258 9.37258 4 16 4C22.6274 4 28 9.37258 28 16C28 19.3062 26.6629 22.3001 24.5 24.4705" stroke="#333333" stroke-width="1.5" stroke-linecap="round"/>
<path d="M10 14.4286C10 12.535 11.535 11 13.4286 11H18.5714C20.465 11 22 12.535 22 14.4286V14.4286C22 14.7442 21.7442 15 21.4286 15H10.5714C10.2558 15 10 14.7442 10 14.4286V14.4286Z" stroke="#333333" stroke-width="1.5"/>
<path d="M21 15C21 19.4183 20.1667 23 16 23C11.8333 23 11 19.4183 11 15" stroke="#333333" stroke-width="1.5"/>
<path d="M16 28V22.5455" stroke="#333333" stroke-width="1.5"/>
<path d="M16.0713 8.93728L16.5429 8.00001" stroke="#333333" stroke-width="1.5" stroke-linecap="round"/>
</svg>
