<svg width="24" height="24" viewBox="0 0 24 24" fill="none" xmlns="http://www.w3.org/2000/svg">
<path fill-rule="evenodd" clip-rule="evenodd" d="M12 22C17.5228 22 22 17.5228 22 12C22 6.47715 17.5228 2 12 2C6.47715 2 2 6.47715 2 12C2 17.5228 6.47715 22 12 22Z" fill="#129FCE"/>
<path d="M8.53033 11.4697C8.23744 11.1768 7.76256 11.1768 7.46967 11.4697C7.17678 11.7626 7.17678 12.2374 7.46967 12.5303L8.53033 11.4697ZM16.5303 10.5303C16.8232 10.2374 16.8232 9.76256 16.5303 9.46967C16.2374 9.17678 15.7626 9.17678 15.4697 9.46967L16.5303 10.5303ZM7.46967 12.5303L10.1161 15.1768L11.1768 14.1161L8.53033 11.4697L7.46967 12.5303ZM11.8839 15.1768L16.5303 10.5303L15.4697 9.46967L10.8232 14.1161L11.8839 15.1768ZM10.1161 15.1768C10.6043 15.6649 11.3957 15.6649 11.8839 15.1768L10.8232 14.1161C10.9209 14.0185 11.0791 14.0185 11.1768 14.1161L10.1161 15.1768Z" fill="white"/>
</svg>
