<svg width="24" height="24" viewBox="0 0 24 24" fill="none" xmlns="http://www.w3.org/2000/svg">
<path d="M10.8375 4.25891C12.1613 3.31339 14 4.25963 14 5.88638V18.1136C14 19.7404 12.1613 20.6866 10.8375 19.7411L7 17H5C3.34315 17 2 15.6569 2 14V10C2 8.34315 3.34315 7 5 7H7L10.8375 4.25891Z" fill="black" fill-opacity="0.38"/>
<path d="M17.5 16C18.5 15 19 13.5619 19 12.0065C19 10.4446 18.5 9 17.5 8" stroke="black" stroke-opacity="0.38" stroke-width="1.5" stroke-linecap="round" stroke-linejoin="round"/>
<path d="M19 5C20.8536 6.79146 22 9.26633 22 12C22 14.7337 20.8536 17.2085 19 19" stroke="black" stroke-opacity="0.38" stroke-width="1.5" stroke-linecap="round" stroke-linejoin="round"/>
</svg>
