<svg width="18" height="16" viewBox="0 0 18 16" fill="none" xmlns="http://www.w3.org/2000/svg">
<path fill-rule="evenodd" clip-rule="evenodd" d="M14.9689 13.9697C14.676 14.2626 14.676 14.7374 14.9689 15.0303C15.2618 15.3232 15.7367 15.3232 16.0296 15.0303L17.5296 13.5303C17.8225 13.2374 17.8225 12.7626 17.5296 12.4697L16.0296 10.9697C15.7367 10.6768 15.2618 10.6768 14.9689 10.9697C14.676 11.2626 14.676 11.7374 14.9689 12.0303L15.093 12.1544C13.9542 11.934 12.91 11.3402 12.1349 10.4521L9.78699 7.76169L11.4201 5.72035C12.3448 4.56442 13.7107 3.85683 15.1775 3.76114L14.9689 3.96967C14.676 4.26256 14.676 4.73744 14.9689 5.03033C15.2618 5.32322 15.7367 5.32322 16.0296 5.03033L17.5296 3.53033C17.8225 3.23744 17.8225 2.76256 17.5296 2.46967L16.0296 0.96967C15.7367 0.676777 15.2618 0.676777 14.9689 0.96967C14.676 1.26256 14.676 1.73744 14.9689 2.03033L15.1963 2.25773C13.2664 2.35013 11.4622 3.26652 10.2488 4.78331L8.78476 6.61331L6.99422 4.56164C5.71237 3.09286 3.85808 2.25 1.9086 2.25H0.999512C0.585298 2.25 0.249512 2.58579 0.249512 3C0.249512 3.41421 0.585298 3.75 0.999512 3.75H1.9086C3.42487 3.75 4.86709 4.40555 5.86408 5.54795L7.83259 7.80352L5.85169 10.2796C4.85538 11.525 3.34699 12.25 1.75212 12.25H0.999512C0.585298 12.25 0.249512 12.5858 0.249512 13C0.249512 13.4142 0.585298 13.75 0.999512 13.75H1.75212C3.80266 13.75 5.74203 12.8179 7.02299 11.2167L8.83482 8.95191L11.0048 11.4384C12.0991 12.6922 13.6104 13.4899 15.2421 13.6965L14.9689 13.9697Z" fill="#129FCE"/>
</svg>
