<svg width="24" height="24" viewBox="0 0 24 24" fill="none" xmlns="http://www.w3.org/2000/svg">
<path fill-rule="evenodd" clip-rule="evenodd" d="M14.3776 0.779041C12.9627 -0.25968 11.0373 -0.25968 9.62241 0.779041L8.23108 1.80045C8.00145 1.96904 7.73446 2.07963 7.45288 2.1228L5.74681 2.38437C4.01185 2.65037 2.65037 4.01185 2.38437 5.74681L2.1228 7.45288C2.07963 7.73446 1.96904 8.00145 1.80045 8.23108L0.779041 9.62241C-0.25968 11.0373 -0.25968 12.9627 0.779041 14.3776L1.80045 15.7689C1.96904 15.9986 2.07963 16.2656 2.1228 16.5471L2.38437 18.2532C2.65037 19.9881 4.01185 21.3497 5.74681 21.6156L7.45288 21.8772C7.73446 21.9204 8.00145 22.031 8.23108 22.1996L9.62241 23.2209C11.0373 24.2597 12.9627 24.2597 14.3776 23.2209L15.7689 22.1996C15.9986 22.031 16.2656 21.9204 16.5471 21.8772L18.2532 21.6156C19.9881 21.3497 21.3497 19.9881 21.6156 18.2532L21.8772 16.5471C21.9204 16.2656 22.031 15.9986 22.1996 15.7689L23.2209 14.3776C24.2597 12.9627 24.2597 11.0373 23.2209 9.62241L22.1996 8.23108C22.031 8.00145 21.9204 7.73446 21.8772 7.45288L21.6156 5.74681C21.3497 4.01185 19.9881 2.65037 18.2532 2.38437L16.5471 2.1228C16.2656 2.07963 15.9986 1.96904 15.7689 1.80045L14.3776 0.779041Z" fill="#F36B2B"/>
<path fill-rule="evenodd" clip-rule="evenodd" d="M17.7364 9.93678C18.0878 9.58532 18.0878 9.01546 17.7364 8.66399C17.3849 8.31252 16.8151 8.31252 16.4636 8.66399L10.2 14.9276L7.53639 12.264C7.18493 11.9125 6.61507 11.9125 6.2636 12.264C5.91213 12.6155 5.91213 13.1853 6.2636 13.5368L9.5636 16.8367C9.91507 17.1882 10.4849 17.1882 10.8364 16.8367L13.0864 14.5868L17.7364 9.93678Z" fill="white"/>
</svg>
