<svg width="24" height="24" viewBox="0 0 24 24" fill="none" xmlns="http://www.w3.org/2000/svg">
<path fill-rule="evenodd" clip-rule="evenodd" d="M19.2482 4.55131C19.2766 4.13806 18.9645 3.78011 18.5513 3.75178C18.138 3.72346 17.7801 4.03551 17.7518 4.44875L17.6013 6.64397C16.1911 5.16969 14.2029 4.25003 12 4.25003C7.71979 4.25003 4.25 7.71982 4.25 12C4.25 16.2802 7.71979 19.75 12 19.75C15.5828 19.75 18.596 17.3195 19.4843 14.0185C19.592 13.6186 19.355 13.2071 18.955 13.0994C18.555 12.9918 18.1435 13.2288 18.0359 13.6288C17.3194 16.2913 14.8875 18.25 12 18.25C8.54822 18.25 5.75 15.4518 5.75 12C5.75 8.54825 8.54822 5.75003 12 5.75003C13.8524 5.75003 15.5166 6.55527 16.662 7.83713L14.0246 7.75043C13.6107 7.73683 13.264 8.0614 13.2504 8.47539C13.2368 8.88938 13.5614 9.23602 13.9754 9.24963L18.1917 9.38823C18.5953 9.40149 18.937 9.0928 18.9646 8.68991L19.2482 4.55131Z" fill="#333333"/>
</svg>
