<svg width="48" height="48" fill="none" xmlns="http://www.w3.org/2000/svg">
    <path d="M0 20C0 8.954 8.954 0 20 0h8c11.046 0 20 8.954 20 20v8c0 11.046-8.954 20-20 20h-8C8.954 48 0 39.046 0 28v-8z" fill="#000" fill-opacity=".1"/>
    <mask id="a" mask-type="alpha" maskUnits="userSpaceOnUse" x="0" y="0" width="48" height="48">
        <path d="M0 20C0 8.954 8.954 0 20 0h8c11.046 0 20 8.954 20 20v8c0 11.046-8.954 20-20 20h-8C8.954 48 0 39.046 0 28v-8z" fill="#000"/>
    </mask>
    <g mask="url(#a)" fill="#fff" fill-opacity=".74">
        <path d="M8 40c0-6.627 5.373-12 12-12h8c6.627 0 12 5.373 12 12v6a2 2 0 0 1-2 2H10a2 2 0 0 1-2-2v-6zM17 16a6 6 0 0 1 6-6h2a6 6 0 0 1 6 6v2a6 6 0 0 1-6 6h-2a6 6 0 0 1-6-6v-2z"/>
    </g>
</svg>
