<svg width="24" height="25" viewBox="0 0 24 25" fill="none" xmlns="http://www.w3.org/2000/svg">
<path fill-rule="evenodd" clip-rule="evenodd" d="M3.06419 20.0642C1.37189 18.3719 1.37189 15.6281 3.06419 13.9358L7.4012 9.5988C9.09358 7.90642 11.8375 7.90673 13.5298 9.59897L14.001 10.0702C14.3915 10.4607 14.3915 11.0939 14.001 11.4845C13.6105 11.875 12.9773 11.875 12.5868 11.4845L12.1155 11.0132C11.2042 10.1019 9.72662 10.1019 8.81545 11.013L4.47844 15.3501C3.56719 16.2613 3.56719 17.7387 4.47844 18.65L5.42126 19.5928C6.33251 20.504 7.80991 20.504 8.72114 19.5928L10.4054 17.9085C10.7959 17.518 11.4291 17.518 11.8197 17.9085C12.2102 18.2991 12.2102 18.9322 11.8197 19.3228L10.1354 21.007C8.44307 22.6994 5.69932 22.6993 4.00702 21.007L3.06419 20.0642Z" fill="white"/>
<path fill-rule="evenodd" clip-rule="evenodd" d="M20.5064 4.50856C22.1987 6.20087 22.1987 8.94464 20.5064 10.6369L16.1694 14.974C14.477 16.6663 11.733 16.666 10.0408 14.9738L9.56955 14.5025C9.17902 14.112 9.17902 13.4788 9.56955 13.0883C9.96009 12.6978 10.5933 12.6978 10.9838 13.0883L11.455 13.5595C12.3663 14.4709 13.8439 14.4709 14.7551 13.5597L19.0921 9.2227C20.0034 8.31146 20.0034 6.83405 19.0921 5.9228L18.1493 4.97998C17.238 4.06873 15.7606 4.06872 14.8494 4.97996L13.1651 6.66422C12.7746 7.05476 12.1414 7.05476 11.7509 6.66422C11.3604 6.27369 11.3604 5.64051 11.7509 5.24998L13.4352 3.56571C15.1275 1.8734 17.8712 1.87343 19.5635 3.56573L20.5064 4.50856Z" fill="white"/>
</svg>
